{
.appVersion = "3236";
.formatVersion = 3;
DisplayStrings = (
"2+2=4
2-2=0",
"รก",
"ร",
""
);
date = "2023-10-16 11:25:55 +0000";
familyName = Wheatpaste035;
fontMaster = (
{
iconName = Bold;
id = m01;
metricValues = (
{
over = 16;
pos = 800;
},
{
over = 16;
pos = 700;
},
{
over = 16;
pos = 500;
},
{
over = -16;
},
{
over = -16;
pos = -200;
},
{
}
);
name = Bold;
userData = {
GSCornerRadius = 111;
};
}
);
glyphs = (
{
glyphname = A;
lastChange = "2024-02-02 07:26:09 +0000";
layers = (
{
anchors = (
{
name = bottom;
pos = (272,0);
},
{
name = ogonek;
pos = (470,10);
},
{
name = top;
pos = (328,672);
}
);
layerId = m01;
shapes = (
{
closed = 1;
nodes = (
(76,59,o),
(78,57,o),
(82,57,cs),
(100,57,o),
(156,102,o),
(161,125,cs),
(197,289,o),
(241,452,o),
(276,615,cs),
(283,649,o),
(174,547,o),
(168,521,cs),
(135,369,o),
(110,217,o),
(77,65,cs)
);
},
{
closed = 1;
nodes = (
(30,150,o),
(-10,38,o),
(-10,7,cs),
(-10,0,o),
(-7,-3,o),
(-1,3,cs),
(17,19,o),
(48,29,o),
(77,29,cs),
(104,29,o),
(130,20,o),
(144,1,cs),
(157,-17,o),
(210,122,o),
(210,160,cs),
(210,164,o),
(209,167,o),
(208,169,cs),
(193,189,o),
(166,199,o),
(136,199,cs),
(105,199,o),
(72,188,o),
(49,167,cs)
);
},
{
closed = 1;
nodes = (
(81,407,o),
(24,237,o),
(34,237,cs),
(63,237,o),
(92,237,o),
(121,237,c),
(124,236,o),
(131,243,o),
(135,243,cs),
(135,243,o),
(249,242,o),
(305,242,c),
(312,244,o),
(321,238,o),
(327,238,cs),
(328,238,o),
(329,238,o),
(330,238,c),
(365,238,o),
(401,238,o),
(437,238,cs),
(449,238,o),
(509,408,o),
(497,408,cs),
(462,408,o),
(426,408,o),
(390,408,c),
(379,405,o),
(370,394,o),
(359,392,c),
(305,391,o),
(251,390,o),
(198,389,c),
(191,392,o),
(189,404,o),
(181,407,c),
(152,407,o),
(123,407,o),
(94,407,cs)
);
},
{
closed = 1;
nodes = (
(386,719,o),
(244,615,o),
(276,615,cs),
(284,615,o),
(286,554,o),
(286,470,cs),
(286,373,o),
(283,246,o),
(283,149,cs),
(283,115,o),
(284,86,o),
(284,62,cs),
(286,18,o),
(299,0,o),
(325,0,cs),
(333,0,o),
(342,1,o),
(351,4,cs),
(381,13,o),
(475,110,o),
(475,129,cs),
(475,132,o),
(472,134,o),
(467,132,cs),
(460,130,o),
(453,129,o),
(448,129,cs),
(427,129,o),
(415,143,o),
(414,184,cs),
(413,193,o),
(413,203,o),
(413,214,cs),
(413,320,o),
(427,503,o),
(427,617,cs),
(427,678,o),
(423,719,o),
(412,719,cs)
);
},
{
closed = 1;
nodes = (
(235,598,o),
(231,562,o),
(231,537,cs),
(231,520,o),
(233,508,o),
(237,511,cs),
(266,534,o),
(295,557,o),
(324,580,cs),
(330,585,o),
(334,622,o),
(334,648,cs),
(334,664,o),
(332,675,o),
(328,672,cs),
(299,649,o),
(270,626,o),
(241,603,cs)
);
}
);
width = 534;
}
);
unicode = 65;
},
{
glyphname = AE;
lastChange = "2024-02-02 07:50:26 +0000";
layers = (
{
layerId = m01;
shapes = (
{
closed = 1;
nodes = (
(66,33,o),
(150,92,o),
(161,123,cs),
(216,294,o),
(278,463,o),
(334,634,cs),
(345,668,o),
(238,578,o),
(226,542,cs),
(175,384,o),
(129,225,o),
(77,67,cs)
);
},
{
closed = 1;
nodes = (
(30,150,o),
(-10,38,o),
(-10,7,cs),
(-10,0,o),
(-7,-3,o),
(-1,3,cs),
(17,19,o),
(48,29,o),
(77,29,cs),
(104,29,o),
(130,20,o),
(144,1,cs),
(157,-17,o),
(210,122,o),
(210,160,cs),
(210,164,o),
(209,167,o),
(208,169,cs),
(193,189,o),
(166,199,o),
(136,199,cs),
(105,199,o),
(72,188,o),
(49,167,cs)
);
},
{
closed = 1;
nodes = (
(92,408,o),
(35,238,o),
(45,238,cs),
(74,238,o),
(103,238,o),
(132,238,c),
(131,239,o),
(131,239,o),
(131,239,cs),
(133,236,o),
(133,247,o),
(136,243,c),
(200,243,o),
(262,242,o),
(325,242,cs),
(336,242,o),
(389,392,o),
(379,392,cs),
(319,391,o),
(258,389,o),
(198,389,c),
(195,393,o),
(197,402,o),
(193,407,cs),
(193,408,o),
(193,408,o),
(192,408,cs),
(163,408,o),
(134,408,o),
(105,408,cs)
);
},
{
closed = 1;
nodes = (
(431,664,o),
(347,602,o),
(344,575,cs),
(325,390,o),
(308,200,o),
(290,29,cs),
(285,-15,o),
(306,0,o),
(314,6,cs),
(345,33,o),
(348,36,o),
(401,19,cs),
(469,-2,o),
(560,-18,o),
(610,25,cs),
(633,44,o),
(679,218,o),
(652,195,cs),
(616,166,o),
(525,169,o),
(463,189,cs),
(416,204,o),
(401,203,o),
(350,160,c),
(358,152,o),
(366,144,o),
(374,137,c),
(392,314,o),
(411,472,o),
(428,635,cs)
);
},
{
closed = 1;
nodes = (
(332,438,o),
(272,268,o),
(293,268,cs),
(390,269,o),
(487,269,o),
(583,269,cs),
(603,269,o),
(665,439,o),
(643,439,cs),
(546,438,o),
(449,438,o),
(353,438,cs)
);
},
{
closed = 1;
nodes = (
(668,540,o),
(717,714,o),
(693,704,cs),
(642,684,o),
(486,724,o),
(394,693,cs),
(373,686,o),
(326,513,o),
(348,521,cs),
(438,550,o),
(592,510,o),
(647,532,cs)
);
},
{
closed = 1;
nodes = (
(295,621,o),
(290,528,o),
(301,536,cs),
(331,558,o),
(362,579,o),
(392,601,cs),
(404,610,o),
(406,703,o),
(392,693,cs),
(363,672,o),
(335,649,o),
(305,628,cs)
);
}
);
width = 699;
}
);
metricLeft = A;
unicode = 198;
},
{
glyphname = B;
lastChange = "2024-02-02 07:27:59 +0000";
layers = (
{
layerId = m01;
shapes = (
{
closed = 1;
nodes = (
(290,-3,o),
(413,143,o),
(390,147,cs),
(258,172,o),
(173,184,o),
(118,184,cs),
(81,184,o),
(57,179,o),
(41,168,cs),
(22,155,o),
(-20,39,o),
(-20,7,cs),
(-20,0,o),
(-18,-3,o),
(-13,0,cs),
(-9,3,o),
(26,18,o),
(103,18,cs),
(145,18,o),
(200,14,o),
(270,1,cs)
);
},
{
closed = 1;
nodes = (
(165,602,o),
(161,606,o),
(154,606,cs),
(133,606,o),
(79,560,o),
(73,529,cs),
(55,425,o),
(28,118,o),
(26,106,cs),
(26,98,o),
(29,94,o),
(35,94,cs),
(56,94,o),
(111,143,o),
(114,172,cs),
(114,172,o),
(147,501,o),
(163,591,cs)
);
},
{
closed = 1;
nodes = (
(233,313,o),
(224,295,o),
(224,283,cs),
(224,275,o),
(229,270,o),
(238,270,cs),
(254,270,o),
(284,288,o),
(315,326,cs),
(396,426,o),
(428,504,o),
(428,563,cs),
(428,671,o),
(320,716,o),
(216,716,cs),
(185,716,o),
(155,712,o),
(128,705,cs),
(105,699,o),
(13,543,o),
(42,551,cs),
(79,560,o),
(113,565,o),
(144,565,cs),
(241,565,o),
(302,520,o),
(302,453,cs),
(302,419,o),
(287,380,o),
(253,338,cs)
);
},
{
closed = 1;
nodes = (
(109,484,o),
(60,356,o),
(60,319,cs),
(60,314,o),
(61,310,o),
(63,309,cs),
(284,240,o),
(338,203,o),
(338,173,cs),
(338,159,o),
(326,146,o),
(314,132,cs),
(285,98,o),
(273,70,o),
(273,54,cs),
(273,44,o),
(278,38,o),
(287,38,cs),
(302,38,o),
(328,54,o),
(360,92,cs),
(433,180,o),
(464,242,o),
(464,289,cs),
(464,395,o),
(307,421,o),
(125,479,cs)
);
}
);
width = 494;
}
);
unicode = 66;
},
{
glyphname = C;
lastChange = "2024-02-02 07:47:04 +0000";
layers = (
{
anchors = (
{
name = bottom;
pos = (200,-16);
},
{
name = top;
pos = (331,707);
}
);
guides = (
{
pos = (683,541);
}
);
layerId = m01;
shapes = (
{
closed = 1;
nodes = (
(361,616,o),
(364,622,o),
(364,625,cs),
(364,627,o),
(363,628,o),
(360,628,cs),
(341,628,o),
(261,582,o),
(224,543,cs),
(67,380,o),
(10,251,o),
(10,159,cs),
(10,43,o),
(99,-16,o),
(190,-16,cs),
(238,-16,o),
(287,1,o),
(323,35,cs),
(353,63,o),
(419,218,o),
(402,218,cs),
(401,218,o),
(398,216,o),
(395,213,cs),
(357,177,o),
(308,159,o),
(263,159,cs),
(202,159,o),
(150,193,o),
(150,266,cs),
(150,339,o),
(202,452,o),
(352,607,cs)
);
},
{
closed = 1;
nodes = (
(398,587,o),
(435,693,o),
(435,724,cs),
(435,732,o),
(432,735,o),
(425,727,cs),
(413,715,o),
(375,706,o),
(336,706,cs),
(299,706,o),
(260,714,o),
(241,732,cs),
(227,745,o),
(175,614,o),
(175,574,cs),
(175,569,o),
(175,566,o),
(177,564,cs),
(198,545,o),
(237,536,o),
(277,536,cs),
(318,536,o),
(359,546,o),
(377,565,cs)
);
}
);
width = 464;
}
);
unicode = 67;
},
{
glyphname = D;
lastChange = "2024-02-02 07:26:09 +0000";
layers = (
{
layerId = m01;
shapes = (
{
closed = 1;
nodes = (
(98,724,o),
(47,594,o),
(47,555,cs),
(47,550,o),
(48,546,o),
(50,545,cs),
(281,440,o),
(355,313,o),
(355,213,cs),
(355,176,o),
(344,142,o),
(328,115,cs),
(317,98,o),
(313,85,o),
(313,76,cs),
(313,65,o),
(319,60,o),
(327,60,cs),
(341,60,o),
(365,76,o),
(386,111,cs),
(431,184,o),
(452,254,o),
(452,321,cs),
(452,482,o),
(328,619,o),
(114,717,cs)
);
},
{
closed = 1;
nodes = (
(47,72,o),
(68,58,o),
(89,58,cs),
(108,58,o),
(127,70,o),
(128,95,cs),
(136,258,o),
(156,474,o),
(156,579,cs),
(156,612,o),
(154,634,o),
(150,641,cs),
(141,651,o),
(131,656,o),
(120,656,cs),
(98,656,o),
(77,638,o),
(77,616,cs),
(77,608,o),
(80,600,o),
(86,591,cs),
(87,591,o),
(61,358,o),
(48,99,cs)
);
},
{
closed = 1;
nodes = (
(299,-3,o),
(391,107,o),
(391,141,cs),
(391,146,o),
(389,150,o),
(383,150,cs),
(236,166,o),
(164,184,o),
(119,184,cs),
(96,184,o),
(80,179,o),
(65,167,cs),
(46,152,o),
(5,38,o),
(5,7,cs),
(5,-1,o),
(7,-4,o),
(13,1,cs),
(21,7,o),
(36,13,o),
(85,13,cs),
(123,13,o),
(181,9,o),
(271,0,cs)
);
}
);
width = 512;
}
);
unicode = 68;
},
{
glyphname = E;
lastChange = "2024-02-02 07:26:09 +0000";
layers = (
{
anchors = (
{
name = bottom;
pos = (247,0);
},
{
name = ogonek;
pos = (454,3);
},
{
name = top;
pos = (282,700);
},
{
name = topleft;
pos = (63,700);
}
);
layerId = m01;
shapes = (
{
closed = 1;
nodes = (
(180,664,o),
(96,602,o),
(93,575,cs),
(74,390,o),
(57,200,o),
(39,29,cs),
(34,-15,o),
(55,0,o),
(63,6,cs),
(90,30,o),
(121,35,o),
(170,19,cs),
(238,-2,o),
(329,-18,o),
(379,25,cs),
(402,44,o),
(448,218,o),
(421,195,cs),
(385,166,o),
(294,169,o),
(232,189,cs),
(181,205,o),
(154,206,o),
(99,160,c),
(107,152,o),
(115,144,o),
(123,137,c),
(141,314,o),
(160,472,o),
(177,635,cs)
);
},
{
closed = 1;
nodes = (
(68,438,o),
(8,268,o),
(29,268,cs),
(137,269,o),
(245,269,o),
(352,269,cs),
(372,269,o),
(434,439,o),
(412,439,cs),
(304,438,o),
(196,438,o),
(89,438,cs)
);
},
{
closed = 1;
nodes = (
(440,549,o),
(487,723,o),
(460,703,cs),
(411,667,o),
(170,739,o),
(98,681,cs),
(75,662,o),
(31,491,o),
(56,511,cs),
(120,563,o),
(361,491,o),
(418,533,cs)
);
}
);
width = 498;
}
);
unicode = 69;
},
{
glyphname = F;
lastChange = "2024-02-02 07:26:09 +0000";
layers = (
{
layerId = m01;
shapes = (
{
closed = 1;
nodes = (
(183,673,o),
(101,602,o),
(98,574,cs),
(81,405,o),
(65,236,o),
(48,68,cs),
(45,36,o),
(127,110,o),
(130,136,cs),
(147,305,o),
(163,474,o),
(180,642,cs)
);
},
{
closed = 1;
nodes = (
(440,561,o),
(483,733,o),
(454,705,cs),
(419,672,o),
(165,715,o),
(114,690,cs),
(91,678,o),
(37,508,o),
(62,520,cs),
(109,545,o),
(367,492,o),
(414,537,cs)
);
},
{
closed = 1;
nodes = (
(367,285,o),
(415,459,o),
(389,444,cs),
(353,424,o),
(130,457,o),
(86,431,cs),
(63,418,o),
(18,245,o),
(42,259,cs),
(80,281,o),
(303,248,o),
(345,272,cs)
);
},
{
closed = 1;
nodes = (
(29,148,o),
(-10,38,o),
(-10,7,cs),
(-10,-1,o),
(-7,-4,o),
(-1,2,cs),
(17,18,o),
(47,28,o),
(76,28,cs),
(103,28,o),
(129,19,o),
(144,0,cs),
(158,-17,o),
(210,120,o),
(210,159,cs),
(210,163,o),
(209,166,o),
(208,168,cs),
(192,188,o),
(165,198,o),
(135,198,cs),
(104,198,o),
(72,187,o),
(49,166,cs)
);
}
);
width = 434;
}
);
unicode = 70;
},
{
glyphname = G;
lastChange = "2024-02-02 07:26:09 +0000";
layers = (
{
layerId = m01;
shapes = (
{
closed = 1;
nodes = (
(383,624,o),
(387,631,o),
(387,635,cs),
(387,639,o),
(383,641,o),
(376,641,cs),
(355,641,o),
(310,625,o),
(281,599,cs),
(85,426,o),
(5,273,o),
(5,159,cs),
(5,96,o),
(30,45,o),
(73,9,cs),
(111,-22,o),
(170,-16,o),
(184,-16,cs),
(193,-16,o),
(372,140,o),
(404,186,cs),
(411,198,o),
(415,213,o),
(415,224,cs),
(415,236,o),
(411,244,o),
(406,244,cs),
(402,244,o),
(397,241,o),
(392,234,cs),
(376,209,o),
(264,116,o),
(264,116,cs),
(260,116,o),
(226,115,o),
(199,137,cs),
(160,170,o),
(138,211,o),
(138,262,cs),
(138,352,o),
(209,470,o),
(373,615,cs)
);
},
{
closed = 1;
nodes = (
(248,351,o),
(160,219,o),
(221,267,cs),
(242,284,o),
(318,289,o),
(313,200,cs),
(310,135,o),
(301,72,o),
(294,6,cs),
(288,-58,o),
(300,-105,o),
(335,-100,cs),
(362,-97,o),
(488,33,o),
(455,28,cs),
(432,25,o),
(429,50,o),
(436,114,cs),
(442,178,o),
(451,244,o),
(455,308,cs),
(458,387,o),
(372,450,o),
(297,391,cs)
);
},
{
closed = 1;
nodes = (
(392,587,o),
(429,693,o),
(429,724,cs),
(429,732,o),
(426,735,o),
(419,727,cs),
(407,715,o),
(369,706,o),
(330,706,cs),
(293,706,o),
(254,714,o),
(235,732,cs),
(221,745,o),
(169,614,o),
(169,574,cs),
(169,569,o),
(169,566,o),
(171,564,cs),
(192,545,o),
(231,536,o),
(271,536,cs),
(312,536,o),
(353,546,o),
(371,565,cs)
);
}
);
width = 525;
}
);
unicode = 71;
},
{
glyphname = H;
lastChange = "2024-02-02 07:26:09 +0000";
layers = (
{
guides = (
{
pos = (103,-2);
},
{
pos = (204,711);
},
{
pos = (1015,217);
}
);
layerId = m01;
shapes = (
{
closed = 1;
nodes = (
(84,438,o),
(23,268,o),
(44,268,cs),
(188,269,o),
(333,269,o),
(477,269,cs),
(496,269,o),
(558,439,o),
(537,439,cs),
(393,438,o),
(248,438,o),
(104,438,cs)
);
},
{
closed = 1;
nodes = (
(168,702,o),
(38,571,o),
(77,580,cs),
(86,583,o),
(97,564,o),
(92,488,cs),
(82,361,o),
(72,234,o),
(63,106,cs),
(57,39,o),
(81,-4,o),
(104,0,cs),
(134,5,o),
(261,138,o),
(226,132,cs),
(191,126,o),
(203,155,o),
(207,218,cs),
(217,345,o),
(227,472,o),
(236,600,cs),
(241,660,o),
(230,717,o),
(199,710,cs)
);
},
{
closed = 1;
nodes = (
(437,702,o),
(307,571,o),
(346,580,cs),
(355,583,o),
(366,564,o),
(361,488,cs),
(351,361,o),
(341,234,o),
(332,106,cs),
(326,39,o),
(350,-4,o),
(373,0,cs),
(403,5,o),
(530,138,o),
(495,132,cs),
(460,126,o),
(472,155,o),
(476,218,cs),
(486,345,o),
(496,472,o),
(505,600,cs),
(510,660,o),
(499,717,o),
(468,710,cs)
);
}
);
width = 581;
}
);
unicode = 72;
},
{
glyphname = I;
lastChange = "2024-02-02 07:26:09 +0000";
layers = (
{
anchors = (
{
name = bottom;
pos = (138,0);
},
{
name = ogonek;
pos = (228,10);
},
{
name = top;
pos = (156,702);
},
{
name = topleft;
pos = (45,700);
}
);
layerId = m01;
shapes = (
{
closed = 1;
nodes = (
(156,702,o),
(26,571,o),
(65,580,cs),
(74,583,o),
(85,565,o),
(80,488,cs),
(70,361,o),
(60,234,o),
(51,106,cs),
(45,39,o),
(69,-4,o),
(92,0,cs),
(122,5,o),
(249,138,o),
(214,132,cs),
(179,126,o),
(191,155,o),
(195,218,cs),
(205,345,o),
(215,472,o),
(224,600,cs),
(229,661,o),
(218,717,o),
(187,710,cs)
);
}
);
width = 275;
}
);
unicode = 73;
},
{
glyphname = J;
lastChange = "2024-02-02 07:26:09 +0000";
layers = (
{
anchors = (
{
name = bottom;
pos = (180,0);
},
{
name = top;
pos = (322,702);
}
);
layerId = m01;
shapes = (
{
closed = 1;
nodes = (
(103,-23,o),
(215,118,o),
(211,141,cs),
(202,180,o),
(144,249,o),
(97,249,cs),
(92,249,o),
(87,249,o),
(82,247,cs),
(54,237,o),
(-54,93,o),
(-18,105,cs),
(-16,106,o),
(-13,107,o),
(-9,107,cs),
(28,107,o),
(89,41,o),
(97,3,cs)
);
},
{
closed = 1;
nodes = (
(322,702,o),
(192,571,o),
(231,580,cs),
(240,583,o),
(253,563,o),
(246,488,cs),
(236,399,o),
(226,309,o),
(217,219,cs),
(203,96,o),
(201,120,o),
(199,119,cs),
(128,64,o),
(56,-40,o),
(135,21,cs),
(356,193,o),
(356,281,o),
(361,331,cs),
(371,420,o),
(381,510,o),
(390,600,cs),
(397,661,o),
(384,717,o),
(353,710,cs)
);
}
);
width = 427;
}
);
unicode = 74;
},
{
glyphname = K;
lastChange = "2024-02-02 07:26:09 +0000";
layers = (
{
anchors = (
{
name = bottom;
pos = (270,0);
},
{
name = top;
pos = (310,721);
}
);
layerId = m01;
shapes = (
{
closed = 1;
nodes = (
(294,459,o),
(174,324,o),
(192,314,cs),
(211,303,o),
(299,10,o),
(394,0,cs),
(416,-2,o),
(533,135,o),
(508,138,cs),
(421,146,o),
(333,437,o),
(310,450,cs)
);
},
{
closed = 1;
nodes = (
(134,696,o),
(10,562,o),
(54,579,cs),
(64,583,o),
(71,566,o),
(66,496,cs),
(56,370,o),
(46,244,o),
(37,118,cs),
(32,54,o),
(32,0,o),
(77,0,cs),
(103,0,o),
(234,152,o),
(201,152,cs),
(178,152,o),
(177,165,o),
(181,230,cs),
(191,356,o),
(201,482,o),
(210,608,cs),
(215,663,o),
(208,723,o),
(170,709,cs)
);
},
{
closed = 1;
nodes = (
(496,567,o),
(534,675,o),
(534,706,cs),
(534,714,o),
(532,717,o),
(525,711,cs),
(507,695,o),
(477,685,o),
(448,685,cs),
(421,685,o),
(395,694,o),
(380,713,cs),
(367,729,o),
(314,596,o),
(314,555,cs),
(314,551,o),
(314,547,o),
(316,545,cs),
(332,525,o),
(359,515,o),
(389,515,cs),
(420,515,o),
(452,526,o),
(475,547,cs)
);
},
{
closed = 1;
nodes = (
(509,609,o),
(402,615,o),
(385,596,cs),
(363,570,o),
(72,259,o),
(64,251,cs),
(45,230,o),
(153,226,o),
(170,243,cs),
(178,252,o),
(468,563,o),
(491,588,cs)
);
}
);
width = 559;
}
);
unicode = 75;
},
{
glyphname = L;
lastChange = "2024-02-02 07:26:09 +0000";
layers = (
{
layerId = m01;
shapes = (
{
closed = 1;
nodes = (
(48,92,o),
(-3,-43,o),
(43,11,cs),
(70,42,o),
(122,59,o),
(169,37,cs),
(210,16,o),
(273,-19,o),
(325,18,cs),
(350,36,o),
(407,206,o),
(377,184,cs),
(337,155,o),
(304,170,o),
(263,189,cs),
(208,217,o),
(150,210,o),
(87,137,cs)
);
},
{
closed = 1;
nodes = (
(147,703,o),
(20,575,o),
(57,583,cs),
(77,587,o),
(71,561,o),
(65,490,cs),
(52,334,o),
(41,177,o),
(27,21,cs),
(24,-16,o),
(164,122,o),
(167,155,cs),
(179,303,o),
(194,450,o),
(207,598,cs),
(211,649,o),
(217,717,o),
(177,709,cs)
);
}
);
width = 426;
}
);
unicode = 76;
},
{
glyphname = M;
lastChange = "2024-02-02 07:26:09 +0000";
layers = (
{
layerId = m01;
shapes = (
{
closed = 1;
nodes = (
(264,730,o),
(137,605,o),
(148,587,cs),
(216,475,o),
(239,49,o),
(294,-2,cs),
(308,-15,o),
(435,111,o),
(420,124,cs),
(371,171,o),
(344,599,o),
(275,713,cs)
);
},
{
closed = 1;
nodes = (
(19,62,o),
(120,114,o),
(128,138,cs),
(211,372,o),
(219,654,o),
(219,657,cs),
(221,683,o),
(138,605,o),
(136,583,cs),
(136,572,o),
(114,329,o),
(29,92,cs)
);
},
{
closed = 1;
nodes = (
(289,128,o),
(389,164,o),
(398,186,cs),
(489,406,o),
(543,620,o),
(546,640,cs),
(551,672,o),
(466,616,o),
(461,584,cs),
(460,574,o),
(388,368,o),
(299,154,cs)
);
},
{
closed = 1;
nodes = (
(598,737,o),
(469,613,o),
(470,585,cs),
(471,472,o),
(459,4,o),
(532,-1,cs),
(556,-2,o),
(679,123,o),
(651,125,cs),
(587,129,o),
(601,586,o),
(599,707,cs)
);
},
{
closed = 1;
nodes = (
(4,148,o),
(-35,37,o),
(-35,7,cs),
(-35,-1,o),
(-32,-4,o),
(-26,2,cs),
(-8,18,o),
(23,28,o),
(53,28,cs),
(82,28,o),
(109,19,o),
(123,0,cs),
(136,-18,o),
(189,121,o),
(189,159,cs),
(189,163,o),
(189,166,o),
(187,168,cs),
(172,188,o),
(144,198,o),
(113,198,cs),
(81,198,o),
(47,187,o),
(24,166,cs)
);
}
);
width = 715;
}
);
unicode = 77;
},
{
glyphname = N;
lastChange = "2024-02-02 07:47:29 +0000";
layers = (
{
anchors = (
{
name = bottom;
pos = (291,0);
},
{
name = top;
pos = (291,700);
}
);
layerId = m01;
shapes = (
{
closed = 1;
nodes = (
(175,728,o),
(54,609,o),
(64,591,cs),
(155,428,o),
(255,129,o),
(358,2,cs),
(370,-13,o),
(491,107,o),
(478,122,cs),
(377,247,o),
(277,546,o),
(186,709,cs)
);
},
{
closed = 1;
nodes = (
(-6,150,o),
(-45,40,o),
(-45,9,cs),
(-45,1,o),
(-42,-2,o),
(-36,4,cs),
(-18,20,o),
(12,30,o),
(41,30,cs),
(68,30,o),
(94,21,o),
(109,2,cs),
(123,-15,o),
(175,122,o),
(175,161,cs),
(175,165,o),
(174,168,o),
(173,170,cs),
(157,190,o),
(130,200,o),
(100,200,cs),
(69,200,o),
(37,189,o),
(14,168,cs)
);
},
{
closed = 1;
nodes = (
(524,565,o),
(562,673,o),
(562,704,cs),
(562,712,o),
(560,715,o),
(553,709,cs),
(535,693,o),
(505,683,o),
(476,683,cs),
(449,683,o),
(423,692,o),
(408,711,cs),
(395,727,o),
(342,594,o),
(342,553,cs),
(342,549,o),
(342,545,o),
(344,543,cs),
(360,523,o),
(387,513,o),
(417,513,cs),
(448,513,o),
(480,524,o),
(503,545,cs)
);
},
{
closed = 1;
nodes = (
(23,4,o),
(113,62,o),
(122,107,cs),
(133,167,o),
(173,635,o),
(173,636,cs),
(177,683,o),
(87,621,o),
(83,578,cs),
(81,562,o),
(44,116,o),
(32,55,cs)
);
},
{
closed = 1;
nodes = (
(348,4,o),
(438,62,o),
(447,107,cs),
(458,167,o),
(498,635,o),
(498,636,cs),
(502,683,o),
(412,621,o),
(408,578,cs),
(406,562,o),
(369,116,o),
(357,55,cs)
);
}
);
width = 532;
}
);
unicode = 78;
},
{
glyphname = O;
lastChange = "2024-02-02 07:29:48 +0000";
layers = (
{
anchors = (
{
name = bottom;
pos = (223,0);
},
{
name = center;
pos = (223,350);
},
{
name = ogonek;
pos = (397,10);
},
{
name = top;
pos = (296,717);
},
{
name = topleft;
pos = (25,700);
},
{
name = topright;
pos = (421,700);
}
);
layerId = m01;
shapes = (
{
closed = 1;
nodes = (
(169,66,o),
(138,21,o),
(138,-1,cs),
(138,-10,o),
(143,-15,o),
(152,-15,cs),
(165,-15,o),
(185,-7,o),
(214,14,cs),
(322,90,o),
(440,230,o),
(440,400,cs),
(440,497,o),
(402,604,o),
(301,715,cs),
(287,731,o),
(190,546,o),
(205,529,cs),
(302,421,o),
(334,337,o),
(334,273,cs),
(334,154,o),
(224,105,o),
(222,104,cs)
);
},
{
closed = 1;
nodes = (
(268,574,o),
(308,666,o),
(308,700,cs),
(308,707,o),
(306,712,o),
(301,712,cs),
(297,712,o),
(289,708,o),
(279,698,cs),
(211,632,o),
(5,344,o),
(5,153,cs),
(5,69,o),
(45,4,o),
(152,-15,cs),
(185,-21,o),
(309,87,o),
(309,119,cs),
(309,123,o),
(307,126,o),
(302,127,cs),
(177,150,o),
(140,218,o),
(140,292,cs),
(140,407,o),
(229,536,o),
(229,536,cs)
);
}
);
width = 474;
}
);
unicode = 79;
},
{
glyphname = Oslash;
lastChange = "2024-02-02 07:54:21 +0000";
layers = (
{
layerId = m01;
shapes = (
{
closed = 1;
nodes = (
(169,66,o),
(138,21,o),
(138,-1,cs),
(138,-10,o),
(143,-15,o),
(152,-15,cs),
(165,-15,o),
(185,-7,o),
(214,14,cs),
(322,90,o),
(440,230,o),
(440,400,cs),
(440,497,o),
(402,604,o),
(301,715,cs),
(287,731,o),
(190,546,o),
(205,529,cs),
(302,421,o),
(334,337,o),
(334,273,cs),
(334,154,o),
(224,105,o),
(222,104,cs)
);
},
{
closed = 1;
nodes = (
(268,574,o),
(308,666,o),
(308,700,cs),
(308,707,o),
(306,712,o),
(301,712,cs),
(297,712,o),
(289,708,o),
(279,698,cs),
(211,632,o),
(5,344,o),
(5,153,cs),
(5,69,o),
(45,4,o),
(152,-15,cs),
(185,-21,o),
(309,87,o),
(309,119,cs),
(309,123,o),
(307,126,o),
(302,127,cs),
(177,150,o),
(140,218,o),
(140,292,cs),
(140,407,o),
(229,536,o),
(229,536,cs)
);
},
{
closed = 1;
nodes = (
(490,761,o),
(374,714,o),
(333,632,cs),
(312,591,o),
(52,-31,o),
(51,-33,cs),
(16,-116,o),
(139,-53,o),
(171,23,cs),
(183,51,o),
(424,631,o),
(447,676,cs)
);
}
);
width = 490;
}
);
metricLeft = O;
metricRight = O;
unicode = 216;
},
{
glyphname = OE;
lastChange = "2024-02-02 07:54:28 +0000";
layers = (
{
layerId = m01;
shapes = (
{
closed = 1;
nodes = (
(223,591,o),
(228,603,o),
(228,611,cs),
(228,639,o),
(162,600,o),
(118.74,529.794,cs),
(41,404,o),
(10,289,o),
(10,196,cs),
(10,67,o),
(71,-17,o),
(153,-17,cs),
(186,-17,o),
(223,-3,o),
(260.379,26.807,cs),
(305,63,o),
(361,164,o),
(361,195,cs),
(361,200,o),
(359,203,o),
(355,203,cs),
(350,203,o),
(343,199,o),
(333.621,191.193,cs),
(304,167,o),
(276,157,o),
(251,157,cs),
(185,157,o),
(138,230,o),
(138,334,cs),
(138,404,o),
(159,488,o),
(211.26,572.206,cs)
);
},
{
closed = 1;
nodes = (
(261,125,o),
(252,105,o),
(252,94,cs),
(252,86,o),
(256,82,o),
(263,82,cs),
(280,82,o),
(317,108,o),
(354.199,159.567,cs),
(441,280,o),
(473,392,o),
(473,484,cs),
(473,623,o),
(398,715,o),
(319,715,cs),
(297,715,o),
(275,708,o),
(254.263,693.894,cs),
(201,657,o),
(109,528,o),
(135,528,cs),
(139,528,o),
(145,531,o),
(155.737,538.106,cs),
(171,549,o),
(186,553,o),
(200,553,cs),
(271,553,o),
(328,435,o),
(328,317,cs),
(328,258,o),
(314,199,o),
(281.801,154.433,cs)
);
},
{
closed = 1;
nodes = (
(478.03,663.666,o),
(393.753,602.238,o),
(390.947,575.11,cs),
(371.841,390.419,o),
(354.574,199.617,o),
(336.959,29.339,cs),
(332.379,-14.937,o),
(352.695,-0.499,o),
(360.512,6.174,cs),
(387.943,29.591,o),
(419.418,35.119,o),
(468.218,19.428,cs),
(535.998,-2.366,o),
(626.57,-17.514,o),
(677.418,25.056,cs),
(700.473,44.358,o),
(746.237,218.097,o),
(718.582,194.944,cs),
(683.43,165.514,o),
(592.06,168.548,o),
(529.782,188.572,cs),
(478.627,205.021,o),
(452.057,206.409,o),
(397.488,159.826,c),
(405.339,152.104,o),
(413.19,144.383,o),
(421.041,136.661,c),
(439.426,314.383,o),
(458.159,471.581,o),
(475.053,634.89,cs)
);
},
{
closed = 1;
nodes = (
(384.231,437.657,o),
(323.981,268.206,o),
(345.276,268.276,cs),
(446.943,268.609,o),
(548.61,268.942,o),
(650.276,269.276,cs),
(670.332,269.342,o),
(731.893,438.797,o),
(709.724,438.724,cs),
(608.057,438.391,o),
(506.39,438.058,o),
(404.724,437.724,cs)
);
},
{
closed = 1;
nodes = (
(737.957,548.871,o),
(784.798,723.005,o),
(758.267,703.483,cs),
(708.897,667.154,o),
(478.153,743.644,o),
(405.928,685.226,cs),
(382.639,666.39,o),
(339.078,494.558,o),
(364.072,514.774,cs),
(427.847,566.356,o),
(659.103,490.846,o),
(715.733,532.517,cs)
);
}
);
width = 796;
}
);
metricLeft = o;
metricRight = E;
unicode = 338;
},
{
glyphname = P;
lastChange = "2024-02-02 07:26:09 +0000";
layers = (
{
guides = (
{
pos = (113,716);
},
{
pos = (-217,587);
},
{
pos = (-226,373);
}
);
layerId = m01;
shapes = (
{
closed = 1;
nodes = (
(242,285,o),
(235,268,o),
(235,257,cs),
(235,248,o),
(240,244,o),
(248,244,cs),
(266,244,o),
(298,264,o),
(330,305,cs),
(407,405,o),
(438,485,o),
(438,548,cs),
(438,661,o),
(338,715,o),
(222,715,cs),
(195,715,o),
(167,713,o),
(140,707,cs),
(118,702,o),
(35,564,o),
(62,569,cs),
(95,576,o),
(124,579,o),
(151,579,cs),
(262,579,o),
(317,524,o),
(317,450,cs),
(317,406,o),
(298,356,o),
(260,307,cs)
);
},
{
closed = 1;
nodes = (
(266,214,o),
(383,364,o),
(334,369,cs),
(182,386,o),
(130,407,o),
(98,394,cs),
(76,386,o),
(17,216,o),
(40,226,cs),
(48,229,o),
(86,234,o),
(224,219,cs)
);
},
{
closed = 1;
nodes = (
(217,629,o),
(76,519,o),
(74,492,cs),
(66,363,o),
(58,235,o),
(49,106,cs),
(45,42,o),
(58,0,o),
(89,0,cs),
(113,0,o),
(240,130,o),
(211,130,cs),
(190,130,o),
(186,150,o),
(191,214,cs),
(199,343,o),
(207,471,o),
(216,600,cs)
);
}
);
width = 443;
}
);
unicode = 80;
},
{
glyphname = Q;
lastChange = "2024-02-02 07:26:09 +0000";
layers = (
{
layerId = m01;
shapes = (
{
closed = 1;
nodes = (
(263,335,o),
(219,290,o),
(221,273,cs),
(232,189,o),
(302,-16,o),
(419,-16,cs),
(427,-16,o),
(436,-15,o),
(444,-13,cs),
(464,-8,o),
(520,137,o),
(520,177,cs),
(520,184,o),
(518,188,o),
(514,187,cs),
(497,183,o),
(480,181,o),
(463,181,cs),
(370,181,o),
(275,239,o),
(265,319,cs)
);
},
{
closed = 1;
nodes = (
(184,66,o),
(153,21,o),
(153,-1,cs),
(153,-10,o),
(158,-15,o),
(167,-15,cs),
(180,-15,o),
(200,-7,o),
(229,14,cs),
(337,90,o),
(455,230,o),
(455,400,cs),
(455,497,o),
(417,604,o),
(316,715,cs),
(302,731,o),
(205,546,o),
(220,529,cs),
(317,421,o),
(349,337,o),
(349,273,cs),
(349,154,o),
(239,105,o),
(237,104,cs)
);
},
{
closed = 1;
nodes = (
(283,574,o),
(323,666,o),
(323,700,cs),
(323,707,o),
(321,712,o),
(316,712,cs),
(312,712,o),
(304,708,o),
(294,698,cs),
(226,632,o),
(20,344,o),
(20,153,cs),
(20,69,o),
(60,4,o),
(167,-15,cs),
(200,-21,o),
(324,87,o),
(324,119,cs),
(324,123,o),
(322,126,o),
(317,127,cs),
(192,150,o),
(155,218,o),
(155,292,cs),
(155,407,o),
(244,536,o),
(244,536,cs)
);
}
);
width = 580;
}
);
unicode = 81;
},
{
glyphname = R;
lastChange = "2024-02-02 07:26:09 +0000";
layers = (
{
guides = (
{
angle = 180;
pos = (332,360);
},
{
pos = (178,564);
}
);
layerId = m01;
shapes = (
{
closed = 1;
nodes = (
(174,621,o),
(103,470,o),
(105,421,cs),
(110,268,o),
(323,-23,o),
(394,0,cs),
(414,7,o),
(476,178,o),
(452,170,cs),
(363,139,o),
(180,442,o),
(175,575,cs)
);
},
{
closed = 1;
nodes = (
(19,148,o),
(-20,38,o),
(-20,7,cs),
(-20,-1,o),
(-17,-4,o),
(-11,2,cs),
(7,18,o),
(37,28,o),
(66,28,cs),
(93,28,o),
(119,19,o),
(134,0,cs),
(148,-17,o),
(200,120,o),
(200,159,cs),
(200,163,o),
(199,166,o),
(198,168,cs),
(182,188,o),
(155,198,o),
(125,198,cs),
(94,198,o),
(62,187,o),
(39,166,cs)
);
},
{
closed = 1;
nodes = (
(173,642,o),
(80,560,o),
(76,462,cs),
(68,287,o),
(74,300,o),
(54,63,cs),
(50,17,o),
(129,64,o),
(132,105,cs),
(154,358,o),
(160,373,o),
(168,540,cs)
);
},
{
closed = 1;
nodes = (
(235,309,o),
(225,288,o),
(225,274,cs),
(225,265,o),
(230,260,o),
(239,260,cs),
(253,260,o),
(278,274,o),
(308,308,cs),
(404,416,o),
(441,499,o),
(441,560,cs),
(441,669,o),
(326,712,o),
(220,712,cs),
(180,712,o),
(142,706,o),
(111,695,cs),
(87,687,o),
(-4,530,o),
(25,541,cs),
(72,557,o),
(115,565,o),
(154,565,cs),
(250,565,o),
(312,517,o),
(312,450,cs),
(312,416,o),
(296,377,o),
(260,336,cs)
);
}
);
width = 517;
}
);
unicode = 82;
},
{
glyphname = S;
lastChange = "2024-02-02 07:26:09 +0000";
layers = (
{
layerId = m01;
shapes = (
{
closed = 1;
nodes = (
(289,465,o),
(288,462,o),
(288,459,cs),
(288,457,o),
(289,456,o),
(291,456,cs),
(308,456,o),
(394,534,o),
(415,574,cs),
(420,586,o),
(423,599,o),
(423,613,cs),
(423,662,o),
(389,715,o),
(327,715,cs),
(293,715,o),
(251,700,o),
(203,660,cs),
(152,618,o),
(117,565,o),
(132,565,cs),
(137,565,o),
(149,572,o),
(169,588,cs),
(176,594,o),
(185,597,o),
(195,597,cs),
(238,597,o),
(299,551,o),
(299,500,cs),
(299,490,o),
(297,480,o),
(291,470,cs)
);
},
{
closed = 1;
nodes = (
(204,663,o),
(78,551,o),
(60,509,cs),
(16,409,o),
(93,359,o),
(162,294,cs),
(227,234,o),
(302,188,o),
(260,86,cs),
(245,49,o),
(370,163,o),
(386,202,cs),
(438,326,o),
(349,356,o),
(284,416,cs),
(215,479,o),
(150,539,o),
(186,623,cs)
);
},
{
closed = 1;
nodes = (
(139,235,o),
(138,238,o),
(135,238,cs),
(116,238,o),
(24,152,o),
(10,117,cs),
(7,109,o),
(5,99,o),
(5,90,cs),
(5,42,o),
(45,-16,o),
(112,-16,cs),
(146,-16,o),
(188,0,o),
(235,40,cs),
(285,82,o),
(317,132,o),
(303,132,cs),
(297,132,o),
(284,124,o),
(263,106,cs),
(259,103,o),
(254,102,o),
(247,102,cs),
(209,102,o),
(131,146,o),
(131,203,cs),
(131,211,o),
(133,219,o),
(136,227,cs)
);
}
);
width = 464;
}
);
unicode = 83;
},
{
glyphname = Germandbls;
lastChange = "2024-02-01 23:11:09 +0000";
layers = (
{
layerId = m01;
shapes = (
{
closed = 1;
nodes = (
(528.429,573.213,o),
(617.45,730.341,o),
(577.559,715.049,cs),
(519.201,692.679,o),
(178.262,729.98,o),
(138.632,712.196,cs),
(102.138,695.819,o),
(38.943,526.971,o),
(85.368,547.804,cs),
(102.819,555.635,o),
(434.799,537.321,o),
(496.441,560.951,cs)
);
},
{
closed = 1;
nodes = (
(263,358,o),
(252,337,o),
(252,324,cs),
(252,315,o),
(257,309,o),
(266,309,cs),
(276,309,o),
(290,315,o),
(307.813,331.156,cs),
(328,349,o),
(355,358,o),
(381,358,cs),
(431,358,o),
(479,326,o),
(479,262,cs),
(479,238,o),
(473,211,o),
(457.634,178.918,cs),
(453,170,o),
(451,164,o),
(451,160,cs),
(451,158,o),
(452,157,o),
(454,157,cs),
(468,157,o),
(537,233,o),
(560.366,281.082,cs),
(576,313,o),
(583,344,o),
(583,372,cs),
(583,433,o),
(546,477,o),
(483,477,cs),
(432,477,o),
(364,449,o),
(286.277,379.461,cs)
);
},
{
closed = 1;
nodes = (
(568,268,o),
(578,313,o),
(578,334,cs),
(578,342,o),
(577,347,o),
(574,347,cs),
(570,347,o),
(562,338,o),
(551.257,314.144,cs),
(505,215,o),
(418,140,o),
(366,140,cs),
(340,140,o),
(323,158,o),
(323,200,cs),
(323,211,o),
(324,223,o),
(326.394,236.656,cs),
(332.381,271.638,o),
(203.151,149.818,o),
(197.606,117.411,cs),
(196,107,o),
(195,97,o),
(195,88,cs),
(195,29,o),
(231,-1,o),
(282,-1,cs),
(360,-1,o),
(475,72,o),
(548.743,227.856,cs)
);
},
{
closed = 1;
nodes = (
(577.126,634.499,o),
(473.05,640.934,o),
(414.725,587.911,cs),
(382.109,558.26,o),
(269.249,364.552,o),
(268.271,363.051,cs),
(228.486,302.031,o),
(358.05,349.79,o),
(393.083,403.52,cs),
(397.442,410.206,o),
(516.945,579.789,o),
(517.275,580.089,cs)
);
},
{
closed = 1;
nodes = (
(125.727,714.153,o),
(-8.297,583.847,o),
(21.281,583.847,cs),
(40.195,583.847,o),
(45.614,562.959,o),
(40.522,494.328,cs),
(31.074,366.979,o),
(21.253,239.657,o),
(11.522,112.328,cs),
(6.406,45.38,o),
(12.685,15.426,o),
(31.788,1.417,cs),
(47.586,-10.168,o),
(178.398,120.713,o),
(162.212,132.583,cs),
(151.315,140.574,o),
(151.659,160.615,o),
(156.478,223.672,cs),
(166.208,351,o),
(176.03,478.322,o),
(185.478,605.672,cs),
(190.636,675.194,o),
(178.106,714.153,o),
(148.719,714.153,cs)
);
}
);
width = 626;
}
);
unicode = 7838;
},
{
glyphname = T;
lastChange = "2024-02-02 07:26:09 +0000";
layers = (
{
layerId = m01;
shapes = (
{
closed = 1;
nodes = (
(427,565,o),
(487,733,o),
(440,710,cs),
(388,685,o),
(145,739,o),
(85,686,cs),
(61,665,o),
(18,494,o),
(43,516,cs),
(93,559,o),
(320,513,o),
(388,546,cs)
);
},
{
closed = 1;
nodes = (
(347,628,o),
(296,646,o),
(263,602,cs),
(139,443,o),
(78,262,o),
(70,164,cs),
(61,53,o),
(126,-31,o),
(210,-14,cs),
(243,-7,o),
(374,106,o),
(336,98,cs),
(274,85,o),
(192,177,o),
(200,280,cs),
(205,336,o),
(229,475,o),
(311,582,cs)
);
}
);
width = 422;
}
);
unicode = 84;
},
{
glyphname = U;
lastChange = "2024-02-02 07:26:09 +0000";
layers = (
{
anchors = (
{
name = bottom;
pos = (284,0);
},
{
name = ogonek;
pos = (504,10);
},
{
name = top;
pos = (302,700);
},
{
name = topright;
pos = (539,700);
}
);
layerId = m01;
shapes = (
{
closed = 1;
nodes = (
(395,376,o),
(355,382,o),
(352,355,cs),
(325,114,o),
(253,124,o),
(241,124,cs),
(192,120,o),
(180,203,o),
(189,293,cs),
(200,394,o),
(209,495,o),
(219,596,cs),
(226,664,o),
(194,723,o),
(142,706,cs),
(109,695,o),
(-13,565,o),
(28,578,cs),
(72,593,o),
(79,550,o),
(75,502,cs),
(64,401,o),
(55,300,o),
(45,199,cs),
(34,96,o),
(97,-23,o),
(193,-16,cs),
(317,-6,o),
(377,220,o),
(392,351,cs)
);
},
{
closed = 1;
nodes = (
(415,-1,o),
(531,117,o),
(503,117,cs),
(461,117,o),
(463,199,o),
(472,293,cs),
(483,394,o),
(493,495,o),
(503,596,cs),
(510,664,o),
(477,723,o),
(425,706,cs),
(392,695,o),
(270,565,o),
(311,578,cs),
(355,593,o),
(364,550,o),
(359,502,cs),
(348,401,o),
(338,300,o),
(328,199,cs),
(316,88,o),
(338,-1,o),
(391,-1,cs)
);
}
);
width = 567;
}
);
unicode = 85;
},
{
glyphname = V;
lastChange = "2024-02-02 07:26:09 +0000";
layers = (
{
layerId = m01;
shapes = (
{
closed = 1;
nodes = (
(505,648,o),
(409,626,o),
(403,605,cs),
(344,404,o),
(253,121,o),
(239,30,cs),
(235,8,o),
(344,111,o),
(347,134,cs),
(357,195,o),
(446,446,o),
(499,625,cs)
);
},
{
closed = 1;
nodes = (
(527,567,o),
(565,675,o),
(565,706,cs),
(565,714,o),
(563,717,o),
(556,711,cs),
(538,695,o),
(508,685,o),
(479,685,cs),
(452,685,o),
(426,694,o),
(411,713,cs),
(398,729,o),
(345,596,o),
(345,555,cs),
(345,551,o),
(345,547,o),
(347,545,cs),
(363,525,o),
(390,515,o),
(420,515,cs),
(451,515,o),
(483,526,o),
(506,547,cs)
);
},
{
closed = 1;
nodes = (
(248,6,o),
(372,144,o),
(321,121,cs),
(309,115,o),
(243,487,o),
(215,635,cs),
(205,689,o),
(158,721,o),
(124,711,cs),
(92,701,o),
(-31,571,o),
(8,583,cs),
(46,595,o),
(77,563,o),
(87,511,cs),
(113,371,o),
(163,-33,o),
(203,-15,cs)
);
}
);
width = 505;
}
);
unicode = 86;
},
{
glyphname = W;
lastChange = "2024-02-02 07:26:09 +0000";
layers = (
{
anchors = (
{
name = bottom;
pos = (360,0);
},
{
name = top;
pos = (373,703);
}
);
layerId = m01;
shapes = (
{
closed = 1;
nodes = (
(382,-18,o),
(510,110,o),
(500,127,cs),
(442,232,o),
(457,659,o),
(399,711,cs),
(385,724,o),
(264,605,o),
(279,591,cs),
(331,543,o),
(312,110,o),
(372,1,cs)
);
},
{
closed = 1;
nodes = (
(682,646,o),
(577,599,o),
(568,574,cs),
(484,331,o),
(408,37,o),
(405,26,cs),
(397,-1,o),
(512,110,o),
(519,138,cs),
(522,149,o),
(589,376,o),
(672,618,cs)
);
},
{
closed = 1;
nodes = (
(429,637,o),
(335,597,o),
(325,571,cs),
(284,463,o),
(181,70,o),
(180,70,cs),
(124,-1,o),
(204,57,o),
(260,126,cs),
(295,171,o),
(391,535,o),
(419,609,cs)
);
},
{
closed = 1;
nodes = (
(128,-19,o),
(256,109,o),
(249,128,cs),
(194,280,o),
(241,745,o),
(126,709,cs),
(94,700,o),
(-21,577,o),
(18,589,cs),
(115,618,o),
(55,182,o),
(121,2,cs)
);
},
{
closed = 1;
nodes = (
(693,568,o),
(731,677,o),
(731,707,cs),
(731,716,o),
(729,718,o),
(722,712,cs),
(705,696,o),
(674,686,o),
(643,686,cs),
(615,686,o),
(587,695,o),
(573,714,cs),
(560,730,o),
(507,597,o),
(507,556,cs),
(507,552,o),
(507,548,o),
(509,546,cs),
(524,526,o),
(553,516,o),
(584,516,cs),
(616,516,o),
(650,527,o),
(672,548,cs)
);
}
);
width = 701;
}
);
unicode = 87;
},
{
glyphname = X;
lastChange = "2024-02-02 07:26:09 +0000";
layers = (
{
layerId = m01;
shapes = (
{
closed = 1;
nodes = (
(483,616,o),
(374,594,o),
(358,570,cs),
(338,541,o),
(88,128,o),
(88,128,cs),
(73,102,o),
(183,127,o),
(196,149,cs),
(209,170,o),
(436,545,o),
(466,590,cs)
);
},
{
closed = 1;
nodes = (
(402,-4,o),
(508,140,o),
(472,127,cs),
(408,104,o),
(239,756,o),
(156,713,cs),
(123,696,o),
(19,552,o),
(60,573,cs),
(121,604,o),
(294,-42,o),
(372,-15,cs)
);
},
{
closed = 1;
nodes = (
(85,-47,o),
(198,91,o),
(200,122,cs),
(202,170,o),
(143,241,o),
(106,250,cs),
(88,255,o),
(-24,113,o),
(-2,108,cs),
(21,101,o),
(88,26,o),
(86,-12,cs)
);
},
{
closed = 1;
nodes = (
(454,448,o),
(565,591,o),
(543,596,cs),
(514,604,o),
(453,677,o),
(455,716,cs),
(456,749,o),
(343,616,o),
(341,582,cs),
(339,534,o),
(403,462,o),
(435,454,cs)
);
}
);
width = 541;
}
);
unicode = 88;
},
{
glyphname = Y;
lastChange = "2024-02-02 07:26:09 +0000";
layers = (
{
anchors = (
{
name = bottom;
pos = (210,0);
},
{
name = top;
pos = (344,700);
},
{
name = topleft;
pos = (14,700);
}
);
layerId = m01;
shapes = (
{
closed = 1;
nodes = (
(529,703,o),
(414,647,o),
(393,579,cs),
(389,566,o),
(158,112,o),
(150,98,cs),
(111,21,o),
(216,52,o),
(254,126,cs),
(256,130,o),
(494,592,o),
(507,631,cs)
);
},
{
closed = 1;
nodes = (
(524,567,o),
(562,675,o),
(562,706,cs),
(562,714,o),
(560,717,o),
(553,711,cs),
(535,695,o),
(505,685,o),
(476,685,cs),
(449,685,o),
(423,694,o),
(408,713,cs),
(395,729,o),
(342,596,o),
(342,555,cs),
(342,551,o),
(342,547,o),
(344,545,cs),
(360,525,o),
(387,515,o),
(417,515,cs),
(448,515,o),
(480,526,o),
(503,547,cs)
);
},
{
closed = 1;
nodes = (
(267,333,o),
(359,437,o),
(338,437,cs),
(335,437,o),
(332,436,o),
(326,433,cs),
(272,405,o),
(225,711,o),
(155,711,cs),
(152,711,o),
(149,710,o),
(146,709,cs),
(115,697,o),
(25,602,o),
(25,584,cs),
(25,581,o),
(28,580,o),
(34,583,cs),
(88,604,o),
(127,306,o),
(206,306,cs),
(212,306,o),
(218,308,o),
(224,311,cs)
);
},
{
closed = 1;
nodes = (
(118,148,o),
(79,38,o),
(79,7,cs),
(79,-1,o),
(82,-4,o),
(88,2,cs),
(106,18,o),
(136,28,o),
(165,28,cs),
(192,28,o),
(218,19,o),
(233,0,cs),
(247,-17,o),
(299,120,o),
(299,159,cs),
(299,163,o),
(298,166,o),
(297,168,cs),
(281,188,o),
(254,198,o),
(224,198,cs),
(193,198,o),
(161,187,o),
(138,166,cs)
);
}
);
width = 513;
}
);
unicode = 89;
},
{
glyphname = Z;
lastChange = "2024-02-02 07:26:09 +0000";
layers = (
{
layerId = m01;
shapes = (
{
closed = 1;
nodes = (
(22,122,o),
(-25,-40,o),
(30,6,cs),
(107,73,o),
(259,-55,o),
(354,25,cs),
(377,44,o),
(423,218,o),
(396,195,cs),
(307,121,o),
(183,259,o),
(66,160,cs)
);
},
{
closed = 1;
nodes = (
(97,657,o),
(42,487,o),
(76,524,cs),
(123,574,o),
(285,508,o),
(399,540,cs),
(420,546,o),
(481,717,o),
(457,710,cs),
(341,676,o),
(187,754,o),
(124,686,cs)
);
},
{
closed = 1;
nodes = (
(433,604,o),
(335,590,o),
(326,568,cs),
(268,426,o),
(81,211,o),
(46,100,cs),
(39,78,o),
(138,94,o),
(144,114,cs),
(177,219,o),
(364,434,o),
(424,582,cs)
);
},
{
closed = 1;
nodes = (
(135,444,o),
(76,273,o),
(104,292,cs),
(144,320,o),
(258,230,o),
(312,252,cs),
(334,261,o),
(394,431,o),
(368,420,cs),
(320,400,o),
(208,494,o),
(158,460,cs)
);
}
);
width = 467;
}
);
unicode = 90;
},
{
glyphname = a;
lastChange = "2024-02-02 07:26:09 +0000";
layers = (
{
anchors = (
{
name = bottom;
pos = (243,0);
},
{
name = ogonek;
pos = (437,10);
},
{
name = top;
pos = (320,715);
}
);
background = {
shapes = (
{
closed = 1;
nodes = (
);
}
);
};
guides = (
{
pos = (289,715);
}
);
layerId = m01;
shapes = (
{
closed = 1;
nodes = (
(299.266,-5.856,o),
(439.509,140.39,o),
(412.498,146.49,cs),
(387.585,152.115,o),
(398.143,241.06,o),
(411.399,427.812,cs),
(415.368,483.718,o),
(418.545,507.564,o),
(424.61,578.565,cs),
(432.08,666.029,o),
(370.251,836.674,o),
(164.746,570.971,cs),
(98.828,485.743,o),
(145.077,480.882,o),
(213.254,569.029,cs),
(214.608,570.78,o),
(291.066,582.129,o),
(279.39,445.435,cs),
(273.128,372.122,o),
(270.724,350.276,o),
(266.601,292.188,cs),
(252.171,88.917,o),
(238.415,7.885,o),
(275.502,-0.49,cs)
);
},
{
closed = 1;
nodes = (
(54.063,397.675,o),
(-6.603,228.223,o),
(13.998,228.275,cs),
(146.331,228.608,o),
(278.665,228.942,o),
(410.998,229.275,cs),
(430.491,229.324,o),
(492.496,398.779,o),
(471.002,398.725,cs),
(338.669,398.392,o),
(206.335,398.058,o),
(74.002,397.725,cs)
);
},
{
closed = 1;
nodes = (
(261.086,666.733,o),
(166.917,592.022,o),
(131.625,525.852,cs),
(116.951,498.337,o),
(99.821,453.624,o),
(92.945,407.147,cs),
(78.351,308.487,o),
(62.965,154.09,o),
(45.452,15.927,cs),
(38.995,-35.009,o),
(130.933,33.776,o),
(136.548,78.073,cs),
(155.035,223.91,o),
(171.68,384.917,o),
(187.055,488.853,cs),
(194.044,536.1,o),
(221.049,591.663,o),
(222.375,594.148,cs)
);
}
);
width = 505;
}
);
unicode = 97;
},
{
glyphname = ae;
lastChange = "2024-02-02 07:55:30 +0000";
layers = (
{
layerId = m01;
shapes = (
{
closed = 1;
nodes = (
(299,-6,o),
(440,140,o),
(412,146,cs),
(401,149,o),
(397,168,o),
(397,204,cs),
(397,250,o),
(404,324,o),
(411,428,cs),
(415,484,o),
(419,508,o),
(425,579,cs),
(429,631,o),
(409,714,o),
(347,714,cs),
(306,714,o),
(247,677,o),
(165,571,cs),
(142,542,o),
(133,522,o),
(133,512,cs),
(133,507,o),
(135,505,o),
(139,505,cs),
(152,505,o),
(180,526,o),
(213,569,cs),
(215,571,o),
(280,580,o),
(280,473,cs),
(280,464,o),
(280,455,o),
(279,445,cs),
(273,372,o),
(271,350,o),
(267,292,cs),
(259,186,o),
(252,113,o),
(252,67,cs),
(252,24,o),
(258,4,o),
(276,0,cs)
);
},
{
closed = 1;
nodes = (
(53,397,o),
(-7,227,o),
(14,227,cs),
(129,228,o),
(243,228,o),
(357,228,cs),
(377,228,o),
(439,398,o),
(417,398,cs),
(302,397,o),
(188,397,o),
(74,397,cs)
);
},
{
closed = 1;
nodes = (
(261,667,o),
(167,592,o),
(132,526,cs),
(117,498,o),
(100,454,o),
(93,407,cs),
(78,308,o),
(63,154,o),
(45,16,cs),
(39,-35,o),
(131,34,o),
(137,78,cs),
(155,224,o),
(172,385,o),
(187,489,cs),
(194,536,o),
(221,592,o),
(222,594,cs)
);
},
{
closed = 1;
nodes = (
(552,455,o),
(679,583,o),
(672,602,cs),
(634,705,o),
(559,730,o),
(508,706,cs),
(296,606,o),
(294,144,o),
(275,45,cs),
(264,-12,o),
(285,3,o),
(286,4,cs),
(329,19,o),
(362,23,o),
(412,14,cs),
(472,4,o),
(553,-27,o),
(618,26,cs),
(660,61,o),
(701,227,o),
(650,186,cs),
(627,167,o),
(528,174,o),
(472,184,cs),
(428,191,o),
(395,197,o),
(348,180,c),
(351,167,o),
(355,153,o),
(359,139,c),
(408,391,o),
(424,538,o),
(458,554,cs),
(484,566,o),
(508,572,o),
(544,476,cs)
);
},
{
closed = 1;
nodes = (
(297,430,o),
(237,260,o),
(258,260,cs),
(357,261,o),
(456,261,o),
(554,261,cs),
(574,261,o),
(636,431,o),
(614,431,cs),
(515,430,o),
(416,430,o),
(318,430,cs)
);
}
);
width = 724;
}
);
metricLeft = a;
metricRight = e;
unicode = 230;
},
{
glyphname = b;
lastChange = "2024-02-02 07:28:05 +0000";
layers = (
{
guides = (
{
pos = (310,715);
}
);
layerId = m01;
shapes = (
{
closed = 1;
nodes = (
(230,643,o),
(107,571,o),
(83,518,cs),
(15,364,o),
(32,128,o),
(32,119,cs),
(32,77,o),
(143,154,o),
(142,193,cs),
(142,194,o),
(148,459,o),
(203,582,cs)
);
},
{
closed = 1;
nodes = (
(57,255,o),
(55,228,o),
(55,205,cs),
(55,176,o),
(59,154,o),
(65,154,cs),
(69,154,o),
(74,163,o),
(79,184,cs),
(96,257,o),
(185,302,o),
(262,302,cs),
(326,302,o),
(381,272,o),
(381,202,cs),
(381,182,o),
(376,159,o),
(367,133,cs),
(365,128,o),
(364,124,o),
(364,122,cs),
(364,119,o),
(365,118,o),
(367,118,cs),
(383,118,o),
(459,205,o),
(475,249,cs),
(485,275,o),
(490,299,o),
(490,320,cs),
(490,413,o),
(405,462,o),
(311,462,cs),
(208,462,o),
(93,403,o),
(63,278,cs)
);
},
{
closed = 1;
nodes = (
(195,403,o),
(174,365,o),
(174,343,cs),
(174,333,o),
(179,326,o),
(189,326,cs),
(198,326,o),
(212,331,o),
(231,345,cs),
(382,456,o),
(437,552,o),
(437,618,cs),
(437,680,o),
(389,716,o),
(326,716,cs),
(238,716,o),
(121,645,o),
(66,473,cs),
(60,454,o),
(57,438,o),
(57,424,cs),
(57,396,o),
(69,380,o),
(85,380,cs),
(104,380,o),
(129,403,o),
(146,455,cs),
(167,524,o),
(233,556,o),
(276,556,cs),
(299,556,o),
(315,547,o),
(315,529,cs),
(315,508,o),
(293,475,o),
(233,431,cs)
);
},
{
closed = 1;
nodes = (
(479,270,o),
(484,294,o),
(484,308,cs),
(484,316,o),
(482,321,o),
(479,321,cs),
(472,321,o),
(458,301,o),
(443,257,cs),
(416,184,o),
(337,150,o),
(265,150,cs),
(196,150,o),
(134,182,o),
(134,240,cs),
(134,256,o),
(139,274,o),
(150,295,cs),
(156,307,o),
(159,314,o),
(159,318,cs),
(159,321,o),
(158,322,o),
(156,322,cs),
(142,322,o),
(81,258,o),
(52,203,cs),
(38,177,o),
(32,151,o),
(32,127,cs),
(32,46,o),
(104,-14,o),
(193,-14,cs),
(288,-14,o),
(402,54,o),
(467,237,cs)
);
}
);
width = 520;
}
);
unicode = 98;
},
{
glyphname = c;
lastChange = "2024-02-02 07:26:09 +0000";
layers = (
{
anchors = (
{
name = bottom;
pos = (242,0);
},
{
name = top;
pos = (343,715);
}
);
guides = (
{
pos = (324,715);
}
);
layerId = m01;
shapes = (
{
closed = 1;
nodes = (
(239,577,o),
(247,595,o),
(247,606,cs),
(247,613,o),
(243,616,o),
(237,616,cs),
(220,616,o),
(185,592,o),
(151,545,cs),
(65,430,o),
(30,311,o),
(30,213,cs),
(30,80,o),
(95,-16,o),
(187,-16,cs),
(240,-16,o),
(302,16,o),
(366,91,cs),
(405,137,o),
(426,186,o),
(426,210,cs),
(426,219,o),
(423,224,o),
(417,224,cs),
(408,224,o),
(392,213,o),
(368,185,cs),
(343,156,o),
(316,144,o),
(291,144,cs),
(220,144,o),
(157,243,o),
(157,360,cs),
(157,423,o),
(175,491,o),
(219,551,cs)
);
},
{
closed = 1;
nodes = (
(343,483,o),
(470,610,o),
(461,628,cs),
(442,665,o),
(384,789,o),
(249,652,cs),
(179,582,o),
(141,482,o),
(217,560,cs),
(246,589,o),
(304,557,o),
(333,502,cs)
);
}
);
width = 471;
}
);
unicode = 99;
},
{
glyphname = d;
lastChange = "2024-02-02 07:26:09 +0000";
layers = (
{
guides = (
{
pos = (295,715);
}
);
layerId = m01;
shapes = (
{
closed = 1;
nodes = (
(124,725,o),
(47,562,o),
(65,553,cs),
(319,413,o),
(357,262,o),
(357,222,cs),
(357,217,o),
(357,214,o),
(356,213,cs),
(344,188,o),
(339,170,o),
(339,159,cs),
(339,147,o),
(344,141,o),
(352,141,cs),
(369,141,o),
(402,170,o),
(428,223,cs),
(451,271,o),
(462,315,o),
(462,356,cs),
(462,495,o),
(339,607,o),
(141,715,cs)
);
},
{
closed = 1;
nodes = (
(171,592,o),
(89,567,o),
(87,546,cs),
(73,394,o),
(60,242,o),
(47,90,cs),
(45,68,o),
(127,94,o),
(129,114,cs),
(143,266,o),
(156,418,o),
(169,570,cs)
);
},
{
closed = 1;
nodes = (
(50,232,o),
(0,90,o),
(0,48,cs),
(0,42,o),
(1,38,o),
(3,37,cs),
(45,7,o),
(93,-15,o),
(146,-15,cs),
(218,-15,o),
(300,27,o),
(385,152,cs),
(405,180,o),
(413,204,o),
(413,220,cs),
(413,233,o),
(407,241,o),
(398,241,cs),
(386,241,o),
(367,229,o),
(347,198,cs),
(329,172,o),
(293,153,o),
(245,153,cs),
(196,153,o),
(135,172,o),
(65,221,cs)
);
}
);
width = 512;
}
);
unicode = 100;
},
{
glyphname = e;
lastChange = "2024-02-02 07:30:42 +0000";
layers = (
{
anchors = (
{
name = bottom;
pos = (221,0);
},
{
name = ogonek;
pos = (401,10);
},
{
name = top;
pos = (302,715);
}
);
guides = (
{
pos = (301,715);
}
);
layerId = m01;
shapes = (
{
closed = 1;
nodes = (
(306,455,o),
(433,583,o),
(426,602,cs),
(388,705,o),
(313,730,o),
(262,706,cs),
(50,606,o),
(47,140,o),
(28,41,cs),
(17,-16,o),
(37,-1,o),
(39,0,cs),
(84,15,o),
(116,23,o),
(166,14,cs),
(226,4,o),
(307,-27,o),
(372,26,cs),
(414,61,o),
(455,227,o),
(404,186,cs),
(381,167,o),
(282,174,o),
(226,184,cs),
(182,191,o),
(146,193,o),
(101,176,c),
(104,163,o),
(108,149,o),
(112,135,c),
(161,387,o),
(178,538,o),
(212,554,cs),
(238,566,o),
(262,572,o),
(298,476,cs)
);
},
{
closed = 1;
nodes = (
(58,438,o),
(-2,268,o),
(19,268,cs),
(127,269,o),
(235,269,o),
(342,269,cs),
(362,269,o),
(424,439,o),
(402,439,cs),
(294,438,o),
(186,438,o),
(79,438,cs)
);
}
);
width = 478;
}
);
unicode = 101;
},
{
glyphname = f;
lastChange = "2024-02-02 07:26:09 +0000";
layers = (
{
layerId = m01;
shapes = (
{
closed = 1;
nodes = (
(443,604,o),
(479,759,o),
(435,701,cs),
(414,674,o),
(351,659,o),
(309,659,cs),
(254,659,o),
(192,681,o),
(159,710,cs),
(129,738,o),
(80,578,o),
(80,574,cs),
(61,383,o),
(37,200,o),
(20,17,cs),
(15,-31,o),
(108,31,o),
(112,77,cs),
(132,282,o),
(145,487,o),
(164,684,c),
(138,638,o),
(111,593,o),
(85,548,c),
(124,511,o),
(192,489,o),
(249,489,cs),
(303,489,o),
(352,486,o),
(403,553,cs)
);
},
{
closed = 1;
nodes = (
(343,226,o),
(393,399,o),
(372,400,cs),
(274,400,o),
(175,401,o),
(77,402,cs),
(58,402,o),
(8,229,o),
(29,228,cs),
(127,228,o),
(226,227,o),
(324,226,cs)
);
}
);
width = 431;
}
);
unicode = 102;
},
{
glyphname = g;
lastChange = "2024-02-02 07:26:09 +0000";
layers = (
{
layerId = m01;
shapes = (
{
closed = 1;
nodes = (
(223,578,o),
(232,596,o),
(232,606,cs),
(232,611,o),
(229,614,o),
(224,614,cs),
(209,614,o),
(175,589,o),
(139,541,cs),
(47,419,o),
(10,295,o),
(10,195,cs),
(10,72,o),
(66,-15,o),
(144,-15,cs),
(192,-15,o),
(249,18,o),
(306,95,cs),
(347,151,o),
(370,200,o),
(370,219,cs),
(370,223,o),
(368,226,o),
(365,226,cs),
(358,226,o),
(341,211,o),
(314,175,cs),
(299,154,o),
(281,145,o),
(263,145,cs),
(203,145,o),
(139,242,o),
(139,359,cs),
(139,421,o),
(157,489,o),
(203,551,cs)
);
},
{
closed = 1;
nodes = (
(269,350,o),
(181,218,o),
(242,266,cs),
(264,284,o),
(340,296,o),
(334,209,cs),
(332,168,o),
(324,126,o),
(319,85,cs),
(311,14,o),
(335,-5,o),
(343,-14,cs),
(356,-29,o),
(484,98,o),
(471,112,cs),
(465,119,o),
(453,128,o),
(461,193,cs),
(465,234,o),
(473,275,o),
(476,317,cs),
(480,397,o),
(392,448,o),
(318,390,cs)
);
},
{
closed = 1;
nodes = (
(354,482,o),
(481,609,o),
(471,626,cs),
(448,666,o),
(380,779,o),
(249,659,cs),
(185,601,o),
(126,482,o),
(199,549,cs),
(251,596,o),
(313,551,o),
(343,500,cs)
);
}
);
width = 526;
}
);
unicode = 103;
},
{
glyphname = h;
lastChange = "2024-02-02 07:26:09 +0000";
layers = (
{
layerId = m01;
shapes = (
{
closed = 1;
nodes = (
(74,437,o),
(13,267,o),
(34,267,cs),
(178,268,o),
(323,268,o),
(467,268,cs),
(486,268,o),
(548,438,o),
(527,438,cs),
(383,437,o),
(238,437,o),
(94,437,cs)
);
},
{
closed = 1;
nodes = (
(195,726,o),
(65,603,o),
(75,584,cs),
(92,552,o),
(93,548,o),
(88,500,cs),
(77,369,o),
(69,237,o),
(59,106,cs),
(54,39,o),
(68,20,o),
(97,0,cs),
(113,-11,o),
(240,116,o),
(223,128,cs),
(200,144,o),
(196,153,o),
(201,214,cs),
(211,345,o),
(218,477,o),
(230,608,cs),
(234,662,o),
(224,674,o),
(205,708,cs)
);
},
{
closed = 1;
nodes = (
(463,726,o),
(333,603,o),
(343,584,cs),
(360,553,o),
(360,548,o),
(356,500,cs),
(346,369,o),
(337,237,o),
(327,106,cs),
(322,39,o),
(336,20,o),
(365,0,cs),
(381,-11,o),
(508,116,o),
(491,128,cs),
(468,144,o),
(464,153,o),
(469,214,cs),
(479,345,o),
(488,477,o),
(498,608,cs),
(502,662,o),
(492,673,o),
(473,708,cs)
);
}
);
width = 571;
}
);
unicode = 104;
},
{
glyphname = i;
lastChange = "2024-02-02 07:26:09 +0000";
layers = (
{
anchors = (
{
name = bottom;
pos = (137,0);
}
);
layerId = m01;
shapes = (
{
closed = 1;
nodes = (
(187,726,o),
(57,603,o),
(67,584,cs),
(84,553,o),
(85,548,o),
(80,490,cs),
(70,362,o),
(61,234,o),
(51,106,cs),
(46,39,o),
(60,20,o),
(89,0,cs),
(105,-11,o),
(232,116,o),
(215,128,cs),
(192,144,o),
(188,153,o),
(193,214,cs),
(202,342,o),
(211,470,o),
(222,598,cs),
(227,662,o),
(216,673,o),
(197,708,cs)
);
}
);
width = 273;
}
);
unicode = 105;
},
{
glyphname = j;
lastChange = "2024-02-02 07:26:09 +0000";
layers = (
{
layerId = m01;
shapes = (
{
closed = 1;
nodes = (
(126,262,o),
(127,265,o),
(127,267,cs),
(127,269,o),
(126,270,o),
(124,270,cs),
(106,270,o),
(16,190,o),
(-2,153,cs),
(-11,135,o),
(-15,117,o),
(-15,99,cs),
(-15,38,o),
(34,-16,o),
(100,-16,cs),
(146,-16,o),
(201,10,o),
(254,77,cs),
(279,109,o),
(293,148,o),
(293,170,cs),
(293,180,o),
(290,186,o),
(284,186,cs),
(278,186,o),
(268,179,o),
(254,161,cs),
(235,136,o),
(208,125,o),
(182,125,cs),
(144,125,o),
(108,151,o),
(108,198,cs),
(108,215,o),
(113,235,o),
(124,257,cs)
);
},
{
closed = 1;
nodes = (
(435,741,o),
(299,652,o),
(274,597,cs),
(263,572,o),
(263,566,o),
(257,506,cs),
(247,379,o),
(239,253,o),
(229,126,cs),
(221,13,o),
(279,132,o),
(278,131,cs),
(226,99,o),
(123,-24,o),
(186,15,cs),
(271,67,o),
(368,203,o),
(371,234,cs),
(380,361,o),
(388,488,o),
(399,614,cs),
(404,676,o),
(405,674,o),
(410,685,cs)
);
},
{
closed = 1;
nodes = (
(354,618,o),
(419,727,o),
(366,685,cs),
(302,634,o),
(202,678,o),
(187,713,cs),
(178,735,o),
(75,590,o),
(85,567,cs),
(98,535,o),
(202,497,o),
(308,581,cs)
);
}
);
width = 443;
}
);
unicode = 106;
},
{
glyphname = jdotless;
lastChange = "2024-02-02 07:56:19 +0000";
layers = (
{
anchors = (
{
name = bottom;
pos = (104,-15);
},
{
name = top;
pos = (310,679);
}
);
layerId = m01;
shapes = (
{
closed = 1;
nodes = (
(126,262,o),
(127,265,o),
(127,267,cs),
(127,269,o),
(126,270,o),
(124,270,cs),
(106,270,o),
(16,190,o),
(-2,153,cs),
(-11,135,o),
(-15,117,o),
(-15,99,cs),
(-15,38,o),
(34,-16,o),
(100,-16,cs),
(146,-16,o),
(201,10,o),
(254,77,cs),
(279,109,o),
(293,148,o),
(293,170,cs),
(293,180,o),
(290,186,o),
(284,186,cs),
(278,186,o),
(268,179,o),
(254,161,cs),
(235,136,o),
(208,125,o),
(182,125,cs),
(144,125,o),
(108,151,o),
(108,198,cs),
(108,215,o),
(113,235,o),
(124,257,cs)
);
},
{
closed = 1;
nodes = (
(435,741,o),
(299,652,o),
(274,597,cs),
(263,572,o),
(263,566,o),
(257,506,cs),
(247,379,o),
(239,253,o),
(229,126,cs),
(221,13,o),
(279,132,o),
(278,131,c),
(226,99,o),
(123,-24,o),
(186,15,cs),
(271,67,o),
(368,203,o),
(371,234,cs),
(380,361,o),
(388,488,o),
(399,614,cs),
(404,676,o),
(405,674,o),
(410,685,cs)
);
},
{
closed = 1;
nodes = (
(354,618,o),
(419,727,o),
(366,685,cs),
(302,634,o),
(202,678,o),
(187,713,cs),
(178,735,o),
(75,590,o),
(85,567,cs),
(98,535,o),
(202,497,o),
(308,581,cs)
);
}
);
width = 443;
}
);
metricLeft = j;
metricRight = j;
unicode = 567;
},
{
glyphname = k;
lastChange = "2024-02-02 07:26:09 +0000";
layers = (
{
guides = (
{
pos = (169,711);
}
);
layerId = m01;
shapes = (
{
closed = 1;
nodes = (
(157,721,o),
(26,591,o),
(42,578,c),
(47,575,o),
(65,551,o),
(61,496,cs),
(32,118,ls),
(26,48,o),
(33,20,o),
(69,0,cs),
(89,-11,o),
(220,140,o),
(199,152,cs),
(185,160,o),
(172,170,o),
(176,230,cs),
(205,608,ls),
(211,677,o),
(183,701,o),
(172,710,cs)
);
},
{
closed = 1;
nodes = (
(564,734,o),
(432,709,o),
(389,659,cs),
(368,636,o),
(105,291,o),
(102,288,cs),
(66,242,o),
(202,287,o),
(236,330,cs),
(248,345,o),
(495,655,o),
(517,681,cs)
);
},
{
closed = 1;
nodes = (
(104,309,o),
(82,249,o),
(82,222,cs),
(82,213,o),
(85,207,o),
(90,207,cs),
(95,207,o),
(101,212,o),
(111,222,cs),
(154,268,o),
(200,289,o),
(241,289,cs),
(304,289,o),
(354,238,o),
(354,154,cs),
(354,121,o),
(347,82,o),
(329,40,cs),
(324,29,o),
(322,20,o),
(322,14,cs),
(322,4,o),
(328,-1,o),
(337,-1,cs),
(371,-1,o),
(451,59,o),
(475,116,cs),
(497,170,o),
(507,217,o),
(507,258,cs),
(507,373,o),
(429,435,o),
(334,435,cs),
(267,435,o),
(192,404,o),
(131,338,cs)
);
}
);
width = 562;
}
);
unicode = 107;
},
{
glyphname = l;
lastChange = "2024-02-02 07:28:41 +0000";
layers = (
{
layerId = m01;
shapes = (
{
closed = 1;
nodes = (
(186,721,o),
(55,591,o),
(71,578,cs),
(75,575,o),
(92,551,o),
(86,496,cs),
(72,370,o),
(58,244,o),
(44,118,cs),
(37,54,o),
(36,0,o),
(81,0,cs),
(108,0,o),
(238,152,o),
(206,152,cs),
(183,152,o),
(182,164,o),
(189,230,cs),
(203,356,o),
(217,482,o),
(231,608,cs),
(239,677,o),
(212,701,o),
(201,710,cs)
);
},
{
closed = 1;
nodes = (
(160,125,o),
(84,-7,o),
(131,30,cs),
(201,86,o),
(293,35,o),
(308,1,cs),
(317,-22,o),
(419,127,o),
(410,147,cs),
(397,180,o),
(296,235,o),
(197,156,cs)
);
}
);
width = 461;
}
);
unicode = 108;
},
{
glyphname = m;
lastChange = "2024-02-02 07:26:09 +0000";
layers = (
{
layerId = m01;
shapes = (
{
closed = 1;
nodes = (
(233,720,o),
(102,591,o),
(118,579,cs),
(172,540,o),
(226,181,o),
(233,3,cs),
(234,-26,o),
(366,103,o),
(365,129,cs),
(358,309,o),
(307,666,o),
(248,709,cs)
);
},
{
closed = 1;
nodes = (
(-18,-34,o),
(80,30,o),
(93,78,cs),
(167,355,o),
(189,631,o),
(189,634,cs),
(193,668,o),
(100,588,o),
(97,556,cs),
(96,545,o),
(69,293,o),
(-3,22,cs)
);
},
{
closed = 1;
nodes = (
(208,54,o),
(325,126,o),
(349,173,cs),
(465,397,o),
(521,636,o),
(521,639,cs),
(534,686,o),
(423,597,o),
(411,551,cs),
(409,542,o),
(348,327,o),
(235,107,cs)
);
},
{
closed = 1;
nodes = (
(542,707,o),
(410,575,o),
(439,575,cs),
(472,575,o),
(429,113,o),
(479,1,cs),
(489,-19,o),
(619,111,o),
(611,129,cs),
(559,243,o),
(609,707,o),
(564,707,cs)
);
}
);
width = 655;
}
);
unicode = 109;
},
{
glyphname = n;
lastChange = "2024-02-02 07:46:12 +0000";
layers = (
{
layerId = m01;
shapes = (
{
closed = 1;
nodes = (
(170,725,o),
(49,606,o),
(59,588,cs),
(150,423,o),
(271,94,o),
(377,0,cs),
(391,-13,o),
(512,107,o),
(497,120,cs),
(464,149,o),
(473,149,o),
(509,598,cs),
(514,661,o),
(503,673,o),
(485,707,cs),
(475,726,o),
(351,609,o),
(361,591,cs),
(379,559,o),
(380,555,o),
(375,496,cs),
(339,39,o),
(336,37,o),
(377,0,cs),
(391,-13,o),
(512,107,o),
(497,120,cs),
(394,212,o),
(272,541,o),
(181,706,cs)
);
},
{
closed = 1;
nodes = (
(20,-30,o),
(111,27,o),
(121,72,cs),
(132,126,o),
(172,594,o),
(172,595,cs),
(176,642,o),
(86,580,o),
(82,537,cs),
(80,521,o),
(43,75,o),
(31,22,cs)
);
}
);
width = 540;
}
);
unicode = 110;
},
{
glyphname = o;
lastChange = "2024-02-01 23:14:58 +0000";
layers = (
{
anchors = (
{
name = bottom;
pos = (156,-18);
},
{
name = center;
pos = (247,250);
},
{
name = ogonek;
pos = (404,0);
},
{
name = top;
pos = (315,716);
},
{
name = topright;
pos = (474,700);
}
);
layerId = m01;
shapes = (
{
closed = 1;
nodes = (
(223,591,o),
(228,603,o),
(228,611,cs),
(228,639,o),
(162,600,o),
(118.74,529.794,cs),
(41,404,o),
(10,289,o),
(10,196,cs),
(10,67,o),
(71,-17,o),
(153,-17,cs),
(186,-17,o),
(223,-3,o),
(260.379,26.807,cs),
(305,63,o),
(361,164,o),
(361,195,cs),
(361,200,o),
(359,203,o),
(355,203,cs),
(350,203,o),
(343,199,o),
(333.621,191.193,cs),
(304,167,o),
(276,157,o),
(251,157,cs),
(185,157,o),
(138,230,o),
(138,334,cs),
(138,404,o),
(159,488,o),
(211.26,572.206,cs)
);
},
{
closed = 1;
nodes = (
(261,125,o),
(252,105,o),
(252,94,cs),
(252,86,o),
(256,82,o),
(263,82,cs),
(280,82,o),
(317,108,o),
(354.199,159.567,cs),
(441,280,o),
(473,392,o),
(473,484,cs),
(473,623,o),
(398,715,o),
(319,715,cs),
(297,715,o),
(275,708,o),
(254.263,693.894,cs),
(201,657,o),
(109,528,o),
(135,528,cs),
(139,528,o),
(145,531,o),
(155.737,538.106,cs),
(171,549,o),
(186,553,o),
(200,553,cs),
(271,553,o),
(328,435,o),
(328,317,cs),
(328,258,o),
(314,199,o),
(281.801,154.433,cs)
);
}
);
width = 494;
}
);
unicode = 111;
},
{
glyphname = oe;
lastChange = "2024-02-02 07:57:31 +0000";
layers = (
{
background = {
anchors = (
{
name = bottom;
pos = (325,-18);
},
{
name = center;
pos = (416,250);
},
{
name = ogonek;
pos = (573,0);
},
{
name = top;
pos = (484,716);
},
{
name = topright;
pos = (643,700);
}
);
};
layerId = m01;
shapes = (
{
closed = 1;
nodes = (
(224,591,o),
(229,604,o),
(229,611,cs),
(229,640,o),
(163,598,o),
(119,530,cs),
(42,405,o),
(10,289,o),
(10,196,cs),
(10,67,o),
(72,-17,o),
(154,-17,cs),
(187,-17,o),
(224,-3,o),
(261,27,cs),
(305,63,o),
(361,163,o),
(361,193,cs),
(361,199,o),
(359,202,o),
(355,202,cs),
(351,202,o),
(344,199,o),
(334,191,cs),
(305,167,o),
(277,157,o),
(252,157,cs),
(185,157,o),
(138,230,o),
(138,334,cs),
(138,404,o),
(160,488,o),
(212,572,cs)
);
},
{
closed = 1;
nodes = (
(262,125,o),
(253,105,o),
(253,94,cs),
(253,86,o),
(257,82,o),
(264,82,cs),
(281,82,o),
(318,109,o),
(355,160,cs),
(441,280,o),
(449,418,o),
(465,500,cs),
(488,621,o),
(399,715,o),
(320,715,cs),
(298,715,o),
(276,708,o),
(255,694,cs),
(201,657,o),
(110,528,o),
(135,528,cs),
(139,528,o),
(146,531,o),
(156,538,cs),
(171,549,o),
(186,553,o),
(201,553,cs),
(272,553,o),
(329,435,o),
(329,316,cs),
(329,257,o),
(315,199,o),
(283,154,cs)
);
},
{
closed = 1;
nodes = (
(589,455,o),
(716,583,o),
(709,602,cs),
(671,705,o),
(596,730,o),
(545,706,cs),
(333,606,o),
(330,140,o),
(311,41,cs),
(300,-16,o),
(320,-1,o),
(322,0,cs),
(367,15,o),
(399,23,o),
(449,14,cs),
(509,4,o),
(590,-27,o),
(655,26,cs),
(697,61,o),
(738,227,o),
(687,186,cs),
(664,167,o),
(565,174,o),
(509,184,cs),
(465,191,o),
(429,193,o),
(384,176,c),
(387,163,o),
(391,149,o),
(395,135,c),
(444,387,o),
(461,538,o),
(495,554,cs),
(521,566,o),
(545,572,o),
(581,476,cs)
);
},
{
closed = 1;
nodes = (
(391,438,o),
(331,268,o),
(352,268,cs),
(460,269,o),
(518,269,o),
(625,269,cs),
(645,269,o),
(707,439,o),
(685,439,cs),
(577,438,o),
(519,438,o),
(412,438,cs)
);
}
);
width = 761;
}
);
metricLeft = o;
metricRight = e;
unicode = 339;
},
{
glyphname = p;
lastChange = "2024-02-02 07:26:09 +0000";
layers = (
{
guides = (
{
pos = (712,374);
},
{
pos = (624,569);
}
);
layerId = m01;
shapes = (
{
closed = 1;
nodes = (
(211,577,o),
(93,517,o),
(61,458,cs),
(12,371,o),
(15,16,o),
(15,11,cs),
(14,-33,o),
(140,59,o),
(141,99,cs),
(141,113,o),
(147,463,o),
(175,514,cs)
);
},
{
closed = 1;
nodes = (
(113,273,o),
(192,259,o),
(264,326,cs),
(361,417,o),
(440,532,o),
(432,622,cs),
(420,758,o),
(160,781,o),
(56,453,cs),
(22,344,o),
(100,321,o),
(136,435,cs),
(176,563,o),
(276,590,o),
(284,502,cs),
(285,482,o),
(247,399,o),
(184,340,cs)
);
},
{
closed = 1;
nodes = (
(277,325,o),
(345,430,o),
(273,383,cs),
(236,359,o),
(123,383,o),
(111,433,cs),
(102,469,o),
(34,329,o),
(43,295,cs),
(57,241,o),
(106,213,o),
(213,283,cs)
);
}
);
width = 428;
}
);
unicode = 112;
},
{
glyphname = q;
lastChange = "2024-02-02 07:26:09 +0000";
layers = (
{
background = {
shapes = (
{
closed = 1;
nodes = (
);
},
{
closed = 1;
nodes = (
);
}
);
};
guides = (
{
pos = (298,713);
}
);
layerId = m01;
shapes = (
{
closed = 1;
nodes = (
(241,345,o),
(186,285,o),
(198,260,cs),
(211,234,o),
(352,-9,o),
(352,-9,c),
(366,-33,o),
(421,27,o),
(408,51,cs),
(400,65,o),
(273,281,o),
(254,320,cs)
);
},
{
closed = 1;
nodes = (
(224,591,o),
(229,603,o),
(229,611,cs),
(229,639,o),
(163,600,o),
(120,530,cs),
(41,403,o),
(10,288,o),
(10,196,cs),
(10,66,o),
(72,-17,o),
(153,-17,cs),
(185,-17,o),
(220,-4,o),
(254,24,cs),
(300,61,o),
(380,202,o),
(357,202,cs),
(354,202,o),
(349,200,o),
(342,194,cs),
(310,168,o),
(280,157,o),
(253,157,cs),
(185,157,o),
(139,231,o),
(139,334,cs),
(139,405,o),
(161,489,o),
(212,572,cs)
);
},
{
closed = 1;
nodes = (
(263,111,o),
(255,95,o),
(255,88,cs),
(255,68,o),
(308,108,o),
(356,176,cs),
(438,290,o),
(469,397,o),
(469,485,cs),
(469,622,o),
(394,713,o),
(316,713,cs),
(296,713,o),
(276,708,o),
(257,695,cs),
(204,660,o),
(109,528,o),
(136,528,cs),
(139,528,o),
(146,531,o),
(155,537,cs),
(169,546,o),
(183,550,o),
(196,550,cs),
(269,550,o),
(332,431,o),
(332,307,cs),
(332,248,o),
(317,187,o),
(282,138,cs)
);
}
);
width = 489;
}
);
unicode = 113;
},
{
glyphname = r;
lastChange = "2024-02-02 07:26:09 +0000";
layers = (
{
guides = (
{
pos = (287,713);
}
);
layerId = m01;
shapes = (
{
closed = 1;
nodes = (
(215,631,o),
(96,569,o),
(65,511,cs),
(-8,374,o),
(13,16,o),
(13,11,cs),
(15,-32,o),
(140,61,o),
(139,101,cs),
(138,116,o),
(123,459,o),
(181,567,cs)
);
},
{
closed = 1;
nodes = (
(169,376,o),
(151,341,o),
(151,321,cs),
(151,310,o),
(156,303,o),
(166,303,cs),
(176,303,o),
(191,309,o),
(211,325,cs),
(358,440,o),
(412,539,o),
(412,608,cs),
(412,673,o),
(365,712,o),
(302,712,cs),
(214,712,o),
(97,636,o),
(42,452,cs),
(37,434,o),
(35,419,o),
(35,406,cs),
(35,378,o),
(47,362,o),
(62,362,cs),
(82,362,o),
(108,387,o),
(124,440,cs),
(145,511,o),
(211,546,o),
(254,546,cs),
(277,546,o),
(294,536,o),
(294,516,cs),
(294,492,o),
(270,455,o),
(207,405,cs)
);
},
{
closed = 1;
nodes = (
(38,305,o),
(16,245,o),
(16,217,cs),
(16,208,o),
(19,202,o),
(24,202,cs),
(29,202,o),
(36,206,o),
(45,216,cs),
(87,261,o),
(134,281,o),
(176,281,cs),
(239,281,o),
(289,234,o),
(289,152,cs),
(289,120,o),
(281,83,o),
(263,41,cs),
(259,29,o),
(256,21,o),
(256,14,cs),
(256,4,o),
(262,-1,o),
(272,-1,cs),
(305,-1,o),
(384,58,o),
(409,115,cs),
(432,170,o),
(442,217,o),
(442,257,cs),
(442,370,o),
(363,428,o),
(269,428,cs),
(201,428,o),
(124,397,o),
(65,334,cs)
);
}
);
width = 485;
}
);
unicode = 114;
},
{
glyphname = s;
lastChange = "2024-02-02 07:26:09 +0000";
layers = (
{
guides = (
{
pos = (271,713);
}
);
layerId = m01;
shapes = (
{
closed = 1;
nodes = (
(50,270,o),
(-16,106,o),
(-3,80,cs),
(24,26,o),
(168,-108,o),
(305,86,cs),
(478,333,o),
(380,352,o),
(275,420,cs),
(116,524,o),
(147,553,o),
(151,558,cs),
(167,581,o),
(304,560,o),
(355,447,cs),
(366,422,o),
(429,592,o),
(419,613,cs),
(398,660,o),
(258,805,o),
(131,626,cs),
(-26,405,o),
(47,358,o),
(151,290,cs),
(311,185,o),
(298,174,o),
(283,152,cs),
(262,121,o),
(112,147,o),
(63,246,cs)
);
}
);
width = 445;
}
);
unicode = 115;
},
{
glyphname = germandbls;
lastChange = "2024-02-01 23:15:46 +0000";
layers = (
{
background = {
shapes = (
{
closed = 0;
nodes = (
(537,638,l,{
"Letterink-NibData" = {
AngleInDegrees = "14";
MainAxisWidth = "150";
MinorAxisWidth = "23";
ValidForParentMainAxisWidth = "30";
ValidForParentMinorAxisWidth = "15";
};
}),
(477,615,o),
(141,643,o),
(112,630,c,{
"Letterink-NibData" = {
AngleInDegrees = "22";
MainAxisWidth = "150";
MinorAxisWidth = "37";
ValidForParentMainAxisWidth = "30";
ValidForParentMinorAxisWidth = "15";
};
})
);
},
{
closed = 0;
nodes = (
(297,355,l,{
"Letterink-NibData" = {
MainAxisWidth = "91";
MinorAxisWidth = "35";
ValidForParentMainAxisWidth = "30";
ValidForParentMinorAxisWidth = "15";
};
}),
(443,484,o),
(588,394,o),
(509,230,c,{
"Letterink-NibData" = {
AngleInDegrees = "7";
MainAxisWidth = "150";
MinorAxisWidth = "15";
ValidForParentMainAxisWidth = "30";
ValidForParentMinorAxisWidth = "15";
};
})
);
},
{
closed = 0;
nodes = (
(550,271,l,{
"Letterink-NibData" = {
AngleInDegrees = "26";
MainAxisWidth = "130";
MinorAxisWidth = "15";
ValidForParentMainAxisWidth = "30";
ValidForParentMinorAxisWidth = "15";
};
}),
(448,56,o),
(231,-4,o),
(262,177,c,{
"Letterink-NibData" = {
MainAxisWidth = "150";
MinorAxisWidth = "15";
ValidForParentMainAxisWidth = "30";
ValidForParentMinorAxisWidth = "15";
};
})
);
},
{
closed = 0;
nodes = (
(466,584,l,{
"Letterink-NibData" = {
AngleInDegrees = "-21";
MainAxisWidth = "117";
MinorAxisWidth = "47";
ValidForParentMainAxisWidth = "30";
ValidForParentMinorAxisWidth = "15";
};
}),
(455,574,o),
(331,383,o),
(331,383,cs,{
"Letterink-NibData" = {
AngleInDegrees = "-12.4532512778801";
MainAxisWidth = "129";
MinorAxisWidth = 39.88939837145151;
ValidForParentMainAxisWidth = "30";
ValidForParentMinorAxisWidth = "15";
};
})
);
},
{
closed = 0;
nodes = (
(85,649,l,{
"Letterink-NibData" = {
AngleInDegrees = "-1";
MainAxisWidth = "155";
MinorAxisWidth = "15";
ValidForParentMainAxisWidth = "30";
ValidForParentMinorAxisWidth = "15";
};
}),
(109,649,o),
(118,619,o),
(113,550,cs,{
"Letterink-NibData" = {
AngleInDegrees = "-6";
MainAxisWidth = "155";
MinorAxisWidth = "15";
ValidForParentMainAxisWidth = "30";
ValidForParentMinorAxisWidth = "15";
};
}),
(84,168,ls,{
"Letterink-NibData" = {
AngleInDegrees = "-6";
MainAxisWidth = "155";
MinorAxisWidth = "15";
ValidForParentMainAxisWidth = "30";
ValidForParentMinorAxisWidth = "15";
};
}),
(79,103,o),
(82,78,o),
(97,67,c,{
"Letterink-NibData" = {
MainAxisWidth = "155";
MinorAxisWidth = "15";
ValidForParentMainAxisWidth = "30";
ValidForParentMinorAxisWidth = "15";
};
})
);
}
);
};
layerId = m01;
shapes = (
{
closed = 1;
nodes = (
(263,399,o),
(240,349,o),
(240,325,cs),
(240,316,o),
(243,311,o),
(249,311,cs),
(253,311,o),
(258,313,o),
(264.638,317.268,cs),
(286,332,o),
(327,344,o),
(367,344,cs),
(422,344,o),
(475,322,o),
(475,261,cs),
(475,234,o),
(465,198,o),
(438.329,152.487,cs),
(425,129,o),
(423,119,o),
(428,119,cs),
(442,119,o),
(496,175,o),
(527.671,229.513,cs),
(564,292,o),
(578,340,o),
(578,375,cs),
(578,443,o),
(525,467,o),
(462,467,cs),
(400,467,o),
(330,445,o),
(289.362,416.732,cs)
);
},
{
closed = 1;
nodes = (
(267,405,o),
(245,364,o),
(245,342,cs),
(245,332,o),
(249,325,o),
(259,325,cs),
(268,325,o),
(281,331,o),
(299.005,343.106,cs),
(455,453,o),
(513,548,o),
(513,615,cs),
(513,682,o),
(455,721,o),
(381,721,cs),
(281,721,o),
(150,650,o),
(86.879,478.879,cs),
(38,347,o),
(32,130,o),
(32,45,cs),
(32,18,o),
(33,5,o),
(33,11,cs),
(33,3,o),
(38,0,o),
(45,0,cs),
(73,0,o),
(142,54,o),
(143.236,85.264,cs),
(143.914,100.517,o),
(173.093,405.963,o),
(189.121,449.121,cs),
(218,526,o),
(291,560,o),
(340,560,cs),
(368,560,o),
(388,550,o),
(388,529,cs),
(388,507,o),
(366,474,o),
(306.995,432.894,cs)
);
},
{
closed = 1;
nodes = (
(554,300,o),
(553,308,o),
(549,308,cs),
(536,308,o),
(488,244,o),
(469.179,191.703,cs),
(468,188,o),
(416,150,o),
(371,150,cs),
(345,150,o),
(320,163,o),
(309.358,204.404,cs),
(303,229,o),
(196,97,o),
(196,68,cs),
(196,43,o),
(392,-158,o),
(547.625,283.284,cs)
);
}
);
width = 526;
}
);
unicode = 223;
},
{
glyphname = t;
lastChange = "2024-02-02 07:26:09 +0000";
layers = (
{
layerId = m01;
shapes = (
{
closed = 1;
nodes = (
(430,541,o),
(498,708,o),
(456,701,cs),
(357,684,o),
(144,717,o),
(81,684,cs),
(59,672,o),
(13,500,o),
(37,512,cs),
(90,539,o),
(295,518,o),
(396,535,cs)
);
},
{
closed = 1;
nodes = (
(285,570,o),
(151,443,o),
(160,423,cs),
(173,393,o),
(112,82,o),
(145,2,cs),
(154,-18,o),
(285,113,o),
(277,132,cs),
(246,206,o),
(309,513,o),
(294,549,cs)
);
}
);
width = 439;
}
);
unicode = 116;
},
{
glyphname = u;
lastChange = "2024-02-02 07:26:09 +0000";
layers = (
{
anchors = (
{
name = bottom;
pos = (149,-12);
},
{
name = ogonek;
pos = (406,0);
},
{
name = top;
pos = (297,713);
},
{
name = topright;
pos = (459,713);
}
);
guides = (
{
pos = (274,713);
}
);
layerId = m01;
shapes = (
{
closed = 1;
nodes = (
(162,721,o),
(26,584,o),
(48,573,cs),
(77,560,o),
(68,400,o),
(46,131,cs),
(36,13,o),
(129,-112,o),
(300,93,cs),
(356,161,o),
(379,244,o),
(318,171,cs),
(237,74,o),
(172,128,o),
(182,255,cs),
(206,531,o),
(219,694,o),
(180,713,cs)
);
},
{
closed = 1;
nodes = (
(244,75,o),
(297,85,o),
(349,157,cs),
(379,199,o),
(406,260,o),
(413,301,cs),
(436,436,o),
(440,564,o),
(445,698,cs),
(446,745,o),
(355,673,o),
(353,630,cs),
(348,490,o),
(343,360,o),
(319,221,cs),
(308,154,o),
(298,150,o),
(297,149,cs)
);
}
);
width = 465;
}
);
unicode = 117;
},
{
glyphname = v;
lastChange = "2024-02-02 07:26:09 +0000";
layers = (
{
guides = (
{
pos = (278,713);
}
);
layerId = m01;
shapes = (
{
closed = 1;
nodes = (
(517,752,o),
(403,675,o),
(385,618,cs),
(327,435,o),
(221,86,o),
(208,30,cs),
(199,-7,o),
(329,116,o),
(336,148,cs),
(345,186,o),
(445,525,o),
(497,690,cs)
);
},
{
closed = 1;
nodes = (
(190,-27,o),
(323,106,o),
(308,119,cs),
(290,133,o),
(271,144,o),
(257,229,cs),
(245,304,o),
(241,428,o),
(216,599,cs),
(206,666,o),
(191,708,o),
(162,713,cs),
(143,717,o),
(14,589,o),
(38,585,cs),
(49,582,o),
(71,546,o),
(80,481,cs),
(105,316,o),
(101,194,o),
(113,123,cs),
(128,28,o),
(150,5,o),
(174,-15,cs)
);
}
);
width = 475;
}
);
unicode = 118;
},
{
glyphname = w;
lastChange = "2024-02-02 07:26:09 +0000";
layers = (
{
anchors = (
{
name = bottom;
pos = (334,0);
},
{
name = top;
pos = (381,713);
}
);
guides = (
{
pos = (288,713);
}
);
layerId = m01;
shapes = (
{
closed = 1;
nodes = (
(365.713,-16.955,o),
(486.251,103.084,o),
(476.577,120.467,cs),
(413.731,233.393,o),
(448.18,660.149,o),
(394.104,712.104,cs),
(380.591,725.087,o),
(259.186,606.029,o),
(273.896,591.896,cs),
(321.82,545.851,o),
(290.269,118.607,o),
(355.423,1.533,cs)
);
},
{
closed = 1;
nodes = (
(718.226,749.698,o),
(600.134,678.837,o),
(578.33,625.909,cs),
(450.233,314.965,o),
(399.985,45.67,o),
(398.742,40.167,cs),
(391.506,8.137,o),
(501.727,124.493,o),
(509.258,157.833,cs),
(511.533,167.902,o),
(568.894,387.206,o),
(693.67,690.091,cs)
);
},
{
closed = 1;
nodes = (
(128.713,-16.955,o),
(249.251,103.084,o),
(239.577,120.467,cs),
(176.731,233.393,o),
(209.141,660.128,o),
(156.104,712.104,cs),
(142.681,725.259,o),
(21.324,606.176,o),
(35.896,591.896,cs),
(82.859,545.872,o),
(53.269,118.607,o),
(118.423,1.533,cs)
);
},
{
closed = 1;
nodes = (
(421.728,640.114,o),
(326.43,611.512,o),
(317.714,588.651,cs),
(251.983,416.243,o),
(164.026,51.965,o),
(160.737,39.298,cs),
(151.492,3.692,o),
(259.028,118.986,o),
(267.263,150.702,cs),
(269.969,161.122,o),
(350.299,452.76,o),
(412.286,615.349,cs)
);
}
);
width = 656;
}
);
unicode = 119;
},
{
glyphname = x;
lastChange = "2024-02-02 07:26:09 +0000";
layers = (
{
guides = (
{
pos = (246,713);
}
);
layerId = m01;
shapes = (
{
closed = 1;
nodes = (
(582,742,o),
(459,711,o),
(417,649,cs),
(391,611,o),
(0,36,o),
(0,36,cs),
(-45,-30,o),
(80,4,o),
(120,64,cs),
(120,64,o),
(511,639,o),
(537,677,cs)
);
},
{
closed = 1;
nodes = (
(405,4,o),
(513,148,o),
(484,142,cs),
(418,131,o),
(236,733,o),
(159,712,cs),
(133,705,o),
(24,561,o),
(55,570,cs),
(120,587,o),
(304,-13,o),
(378,0,cs)
);
}
);
width = 527;
}
);
unicode = 120;
},
{
glyphname = y;
lastChange = "2024-02-02 07:26:09 +0000";
layers = (
{
anchors = (
{
name = bottom;
pos = (283,0);
},
{
name = top;
pos = (345,713);
}
);
guides = (
{
pos = (271,713);
}
);
layerId = m01;
shapes = (
{
closed = 1;
nodes = (
(581,751,o),
(466,708,o),
(422,628,cs),
(404,594,o),
(138,44,o),
(137,42,cs),
(96,-42,o),
(218,13,o),
(255,90,cs),
(267,114,o),
(515,627,o),
(536,666,cs)
);
},
{
closed = 1;
nodes = (
(277,330,o),
(391,458,o),
(341,434,cs),
(275,402,o),
(223,738,o),
(143,711,cs),
(109,699,o),
(-13,569,o),
(29,583,cs),
(93,606,o),
(139,264,o),
(235,310,cs)
);
}
);
width = 495;
}
);
unicode = 121;
},
{
glyphname = z;
lastChange = "2024-02-02 07:26:09 +0000";
layers = (
{
guides = (
{
pos = (199,713);
}
);
layerId = m01;
shapes = (
{
closed = 1;
nodes = (
(8,134,o),
(-20,50,o),
(-20,11,cs),
(-20,-1,o),
(-17,-9,o),
(-11,-9,cs),
(-8,-9,o),
(-3,-6,o),
(3,-1,c),
(40,31,o),
(91,45,o),
(144,45,cs),
(207,45,o),
(271,24,o),
(313,-8,c),
(328,-20,o),
(378,112,o),
(378,151,cs),
(378,155,o),
(377,159,o),
(375,160,cs),
(337,190,o),
(270,215,o),
(199,215,cs),
(142,215,o),
(83,199,o),
(35,157,cs)
);
},
{
closed = 1;
nodes = (
(108,734,o),
(55,601,o),
(55,560,cs),
(55,556,o),
(55,552,o),
(57,550,cs),
(82,518,o),
(145,499,o),
(213,499,cs),
(273,499,o),
(337,515,o),
(379,552,cs),
(400,570,o),
(438,680,o),
(438,711,cs),
(438,719,o),
(436,722,o),
(429,716,c),
(394,685,o),
(332,670,o),
(272,670,cs),
(207,670,o),
(145,687,o),
(121,718,c)
);
},
{
closed = 1;
nodes = (
(429,653,o),
(318,622,o),
(295,569,cs),
(239,436,o),
(37,213,o),
(-7,82,cs),
(-25,26,o),
(88,66,o),
(105,116,cs),
(135,207,o),
(333,430,o),
(405,597,cs)
);
}
);
width = 438;
}
);
unicode = 122;
},
{
glyphname = zero;
lastChange = "2024-02-02 07:26:09 +0000";
layers = (
{
layerId = m01;
shapes = (
{
closed = 1;
nodes = (
(459,578,o),
(403,729,o),
(285,715,cs),
(148,699,o),
(34,484,o),
(14,301,cs),
(-5,127,o),
(45,-33,o),
(168,-19,cs),
(307,-3,o),
(421,218,o),
(440,400,cs)
);
},
{
closed = 1;
nodes = (
(324,218,o),
(266,175,o),
(226,171,cs),
(158,163,o),
(105,242,o),
(118,363,cs),
(131,478,o),
(191,521,o),
(227,525,cs),
(294,533,o),
(348,456,o),
(336,336,cs)
);
}
);
width = 477;
}
);
unicode = 48;
},
{
glyphname = one;
lastChange = "2024-02-02 07:26:09 +0000";
layers = (
{
layerId = m01;
shapes = (
{
closed = 1;
nodes = (
(279,727,o),
(149,604,o),
(159,585,cs),
(176,554,o),
(177,549,o),
(172,491,cs),
(162,363,o),
(153,235,o),
(143,107,cs),
(138,40,o),
(152,21,o),
(181,1,cs),
(197,-10,o),
(324,117,o),
(307,129,cs),
(284,145,o),
(280,154,o),
(285,215,cs),
(294,343,o),
(303,471,o),
(314,599,cs),
(319,663,o),
(308,674,o),
(289,709,cs)
);
},
{
closed = 1;
nodes = (
(250,710,o),
(155,603,o),
(148,565,cs),
(134,493,o),
(92,414,o),
(42,374,cs),
(-2,338,o),
(84,344,o),
(124,376,cs),
(230,462,o),
(224,575,o),
(242,669,cs)
);
}
);
width = 375;
}
);
unicode = 49;
},
{
glyphname = two;
lastChange = "2024-02-02 07:26:09 +0000";
layers = (
{
layerId = m01;
shapes = (
{
closed = 1;
nodes = (
(15,150,o),
(10,133,o),
(10,121,cs),
(10,107,o),
(17,98,o),
(29,98,cs),
(43,98,o),
(63,111,o),
(81,141,cs),
(164,276,o),
(205,297,o),
(335,436,cs),
(389,493,o),
(411,548,o),
(411,594,cs),
(411,668,o),
(355,719,o),
(286,719,cs),
(214,719,o),
(128,666,o),
(71,531,cs),
(57,499,o),
(51,471,o),
(51,450,cs),
(51,428,o),
(57,415,o),
(67,415,cs),
(78,415,o),
(93,431,o),
(109,469,cs),
(132,521,o),
(172,543,o),
(206,543,cs),
(238,543,o),
(265,523,o),
(265,491,cs),
(265,471,o),
(254,446,o),
(229,418,cs),
(181,367,o),
(112,306,o),
(27,169,cs)
);
},
{
closed = 1;
nodes = (
(3,138,o),
(-30,40,o),
(-30,8,cs),
(-30,2,o),
(-29,-2,o),
(-26,-2,cs),
(-24,-2,o),
(-20,0,o),
(-16,5,cs),
(7,29,o),
(88,76,o),
(173,76,cs),
(226,76,o),
(281,57,o),
(324,2,cs),
(326,-1,o),
(328,-2,o),
(331,-2,cs),
(356,-2,o),
(405,100,o),
(405,145,cs),
(405,153,o),
(403,159,o),
(400,162,c),
(354,224,o),
(293,245,o),
(233,245,cs),
(144,245,o),
(57,197,o),
(26,163,cs)
);
}
);
width = 461;
}
);
unicode = 50;
},
{
glyphname = three;
lastChange = "2024-02-02 07:26:09 +0000";
layers = (
{
layerId = m01;
shapes = (
{
closed = 1;
nodes = (
(412,565,o),
(469,736,o),
(432,711,cs),
(401,691,o),
(322,686,o),
(276,686,cs),
(221,686,o),
(173,697,o),
(140,713,cs),
(109,727,o),
(37,562,o),
(68,547,cs),
(107,529,o),
(159,516,o),
(216,516,cs),
(266,516,o),
(341,517,o),
(382,545,cs)
);
},
{
closed = 1;
nodes = (
(75,294,o),
(70,282,o),
(70,273,cs),
(70,264,o),
(75,260,o),
(84,260,cs),
(100,260,o),
(124,273,o),
(145,301,cs),
(161,320,o),
(200,334,o),
(239,334,cs),
(293,334,o),
(348,308,o),
(348,235,cs),
(348,210,o),
(342,179,o),
(327,142,cs),
(325,137,o),
(324,132,o),
(324,130,cs),
(324,127,o),
(325,126,o),
(326,126,cs),
(342,126,o),
(418,214,o),
(435,256,cs),
(446,283,o),
(451,310,o),
(451,334,cs),
(451,410,o),
(400,464,o),
(326,464,cs),
(259,464,o),
(172,420,o),
(87,309,cs)
);
},
{
closed = 1;
nodes = (
(430,238,o),
(443,291,o),
(443,313,cs),
(443,320,o),
(442,324,o),
(439,324,cs),
(435,324,o),
(428,316,o),
(418,296,cs),
(371,204,o),
(296,125,o),
(238,125,cs),
(201,125,o),
(171,155,o),
(158,231,cs),
(154,257,o),
(26,131,o),
(30,107,cs),
(44,24,o),
(92,-15,o),
(151,-15,cs),
(234,-15,o),
(339,60,o),
(410,198,cs)
);
},
{
closed = 1;
nodes = (
(446,601,o),
(364,616,o),
(291,550,cs),
(259,520,o),
(125,352,o),
(124,351,cs),
(69,283,o),
(183,302,o),
(234,365,cs),
(240,372,o),
(374,536,o),
(375,536,cs)
);
}
);
width = 481;
}
);
unicode = 51;
},
{
glyphname = four;
lastChange = "2024-02-02 07:26:09 +0000";
layers = (
{
layerId = m01;
shapes = (
{
closed = 1;
nodes = (
(48.022,381.589,o),
(-9.466,212.353,o),
(0.516,212.378,cs),
(134.874,212.711,o),
(269.207,213.044,o),
(403.516,213.378,cs),
(416.439,213.41,o),
(475.544,382.65,o),
(464.484,382.622,cs),
(330.126,382.289,o),
(195.793,381.956,o),
(61.484,381.622,cs)
);
},
{
closed = 1;
nodes = (
(51.062,373.026,o),
(47.144,281.315,o),
(57.244,292.366,cs),
(138.577,381.366,o),
(219.91,470.366,o),
(301.244,559.366,cs),
(310.539,569.537,o),
(315.653,662.558,o),
(304.756,650.634,cs),
(223.423,561.634,o),
(142.09,472.634,o),
(60.756,383.634,cs)
);
},
{
closed = 1;
nodes = (
(371.056,726.462,o),
(240.699,602.655,o),
(250.803,584.131,cs),
(267.737,553.085,o),
(268.99,547.65,o),
(264.441,489.882,cs),
(254.365,361.914,o),
(245.274,233.869,o),
(235.441,105.882,cs),
(230.307,39.055,o),
(243.838,20.059,o),
(272.769,0.029,cs),
(289.027,-11.226,o),
(416.069,116.314,o),
(399.231,127.971,cs),
(376.162,143.941,o),
(371.858,152.932,o),
(376.559,214.118,cs),
(386.391,342.105,o),
(395.482,470.15,o),
(405.559,598.118,cs),
(410.619,662.381,o),
(400.263,672.915,o),
(381.197,707.869,cs)
);
}
);
width = 496;
}
);
unicode = 52;
},
{
glyphname = five;
lastChange = "2024-02-02 07:26:09 +0000";
layers = (
{
layerId = m01;
shapes = (
{
closed = 1;
nodes = (
(441,604,o),
(477,759,o),
(433,701,cs),
(412,674,o),
(349,659,o),
(307,659,cs),
(252,659,o),
(190,681,o),
(157,710,cs),
(127,738,o),
(78,576,o),
(78,572,cs),
(69,455,o),
(56,350,o),
(48,240,cs),
(44,194,o),
(137,257,o),
(140,302,cs),
(150,431,o),
(153,564,o),
(162,686,c),
(136,640,o),
(109,594,o),
(83,548,c),
(122,511,o),
(190,489,o),
(247,489,cs),
(301,489,o),
(350,486,o),
(401,553,cs)
);
},
{
closed = 1;
nodes = (
(53,251,o),
(48,240,o),
(48,232,cs),
(48,224,o),
(54,219,o),
(63,219,cs),
(79,219,o),
(105,233,o),
(127,263,cs),
(148,292,o),
(209,318,o),
(263,318,cs),
(315,318,o),
(361,294,o),
(361,227,cs),
(361,202,o),
(354,171,o),
(340,133,cs),
(338,128,o),
(337,124,o),
(337,122,cs),
(337,119,o),
(338,118,o),
(340,118,cs),
(355,118,o),
(431,204,o),
(448,249,cs),
(459,277,o),
(464,303,o),
(464,326,cs),
(464,401,o),
(413,449,o),
(339,449,cs),
(262,449,o),
(158,396,o),
(63,265,cs)
);
},
{
closed = 1;
nodes = (
(440,238,o),
(453,291,o),
(453,313,cs),
(453,320,o),
(452,324,o),
(449,324,cs),
(445,324,o),
(438,316,o),
(428,296,cs),
(381,204,o),
(306,125,o),
(248,125,cs),
(211,125,o),
(181,155,o),
(168,231,cs),
(164,257,o),
(36,131,o),
(40,107,cs),
(54,24,o),
(102,-15,o),
(161,-15,cs),
(244,-15,o),
(349,60,o),
(420,198,cs)
);
}
);
width = 504;
}
);
unicode = 53;
},
{
glyphname = six;
lastChange = "2024-02-02 07:26:09 +0000";
layers = (
{
layerId = m01;
shapes = (
{
closed = 1;
nodes = (
(64,128,o),
(66,123,o),
(70,123,cs),
(83,123,o),
(119,184,o),
(122.746,221.278,cs),
(127,259,o),
(177,291,o),
(225,291,cs),
(269,291,o),
(311,264,o),
(311,189,cs),
(311,169,o),
(308,145,o),
(300.526,117.61,cs),
(299,111,o),
(300,108,o),
(302,108,cs),
(317,108,o),
(395,213,o),
(403.474,248.39,cs),
(408,266,o),
(410,282,o),
(410,297,cs),
(410,382,o),
(348,438,o),
(276,438,cs),
(188,438,o),
(86,355,o),
(65.254,138.722,cs)
);
},
{
closed = 1;
nodes = (
(402,240,o),
(403,247,o),
(403,252,cs),
(403,260,o),
(400,263,o),
(395,263,cs),
(376,263,o),
(332,222,o),
(315.578,176.519,cs),
(302,139,o),
(269,108,o),
(231,108,cs),
(212,108,o),
(192,116,o),
(173.104,134.271,cs),
(146,160,o),
(135,194,o),
(135,233,cs),
(135,375,o),
(288,576,o),
(320.844,634.187,cs),
(326,642,o),
(328,649,o),
(328,653,cs),
(328,661,o),
(323,664,o),
(314,664,cs),
(292,664,o),
(247,639,o),
(227.156,603.813,cs),
(192,543,o),
(10,288,o),
(10,121,cs),
(10,80,o),
(21,44,o),
(48.896,17.729,cs),
(69,-1,o),
(103,-16,o),
(144,-16,cs),
(224,-16,o),
(329,40,o),
(398.422,231.481,cs)
);
},
{
closed = 1;
nodes = (
(360.806,605.289,o),
(397.09,759.549,o),
(352.535,701.747,cs),
(330.859,673.627,o),
(239.087,672.683,o),
(200.475,710.33,cs),
(174.103,736.042,o),
(100,572.557,o),
(125.525,547.67,cs),
(167.228,507.01,o),
(270.357,487.951,o),
(321.465,554.253,cs)
);
}
);
width = 435;
}
);
unicode = 54;
},
{
glyphname = seven;
lastChange = "2024-02-02 07:26:09 +0000";
layers = (
{
layerId = m01;
shapes = (
{
closed = 1;
nodes = (
(473,754,o),
(357,707,o),
(316,625,cs),
(297,588,o),
(67,40,o),
(66,38,cs),
(31,-45,o),
(154,18,o),
(186,94,cs),
(193,111,o),
(415,639,o),
(430,669,cs)
);
},
{
closed = 1;
nodes = (
(362,608,o),
(415,704,o),
(395,704,cs),
(391,704,o),
(384,700,o),
(373,691,cs),
(355,675,o),
(302,662,o),
(245,662,cs),
(190,662,o),
(132,674,o),
(101,710,cs),
(79,734,o),
(20,618,o),
(20,567,cs),
(20,559,o),
(21,552,o),
(25,548,cs),
(55,514,o),
(97,499,o),
(143,499,cs),
(201,499,o),
(265,524,o),
(315,567,cs)
);
}
);
width = 399;
}
);
unicode = 55;
},
{
glyphname = eight;
lastChange = "2024-02-02 07:26:09 +0000";
layers = (
{
layerId = m01;
shapes = (
{
closed = 1;
nodes = (
(238,425,o),
(230,407,o),
(230,397,cs),
(230,390,o),
(234,387,o),
(240,387,cs),
(258,387,o),
(298,416,o),
(335,466,c),
(388,540,o),
(410,598,o),
(410,639,cs),
(410,689,o),
(377,714,o),
(332,714,cs),
(292,714,o),
(241,694,o),
(195,654,c),
(145,612,o),
(113,562,o),
(127,562,cs),
(133,562,o),
(146,570,o),
(167,588,c),
(174,594,o),
(182,596,o),
(191,596,cs),
(227,596,o),
(275,555,o),
(275,504,cs),
(275,487,o),
(270,469,o),
(257,452,c)
);
},
{
closed = 1;
nodes = (
(191,630,o),
(190,632,o),
(187,632,cs),
(170,632,o),
(77,546,o),
(62,510,cs),
(54,491,o),
(50,474,o),
(50,458,cs),
(50,398,o),
(105,360,o),
(154,311,c),
(156,310,o),
(161,313,o),
(169,319,c),
(164,313,o),
(162,309,o),
(163,308,cs),
(222,255,o),
(286,209,o),
(286,144,cs),
(286,126,o),
(282,108,o),
(271,87,cs),
(269,83,o),
(268,80,o),
(268,78,cs),
(268,77,o),
(269,76,o),
(270,76,cs),
(286,76,o),
(377,160,o),
(395,195,cs),
(409,223,o),
(415,247,o),
(415,268,cs),
(415,338,o),
(347,374,o),
(285,430,c),
(283,431,o),
(278,428,o),
(270,422,c),
(275,428,o),
(277,432,o),
(276,433,cs),
(226,480,o),
(179,525,o),
(179,581,cs),
(179,595,o),
(182,609,o),
(188,624,cs)
);
},
{
closed = 1;
nodes = (
(199,319,o),
(206,333,o),
(206,340,cs),
(206,363,o),
(135,331,o),
(82,271,cs),
(31,214,o),
(10,156,o),
(10,107,cs),
(10,38,o),
(53,-12,o),
(118,-12,cs),
(154,-12,o),
(197,3,o),
(243,39,cs),
(294,79,o),
(337,139,o),
(321,139,cs),
(316,139,o),
(306,134,o),
(289,121,cs),
(272,107,o),
(255,101,o),
(240,101,cs),
(190,101,o),
(156,166,o),
(156,225,cs),
(156,253,o),
(163,280,o),
(180,299,cs)
);
}
);
width = 446;
}
);
unicode = 56;
},
{
glyphname = nine;
lastChange = "2024-02-02 07:26:09 +0000";
layers = (
{
layerId = m01;
shapes = (
{
closed = 1;
nodes = (
(372,571,o),
(370,575,o),
(366,575,cs),
(353,575,o),
(316,513,o),
(313,478,cs),
(309,433,o),
(265,402,o),
(222,402,cs),
(180,402,o),
(139,432,o),
(139,511,cs),
(139,532,o),
(142,556,o),
(149,585,cs),
(150,591,o),
(149,593,o),
(147,593,cs),
(132,593,o),
(54,491,o),
(45,453,cs),
(42,437,o),
(40,421,o),
(40,406,cs),
(40,318,o),
(102,257,o),
(173,257,cs),
(256,257,o),
(351,340,o),
(371,560,cs)
);
},
{
closed = 1;
nodes = (
(46,458,o),
(44,451,o),
(44,446,cs),
(44,439,o),
(48,436,o),
(53,436,cs),
(72,436,o),
(116,478,o),
(132,522,cs),
(146,560,o),
(180,591,o),
(218,591,cs),
(237,591,o),
(256,584,o),
(275,565,cs),
(300,540,o),
(310,507,o),
(310,469,cs),
(310,326,o),
(160,122,o),
(127,65,cs),
(122,57,o),
(120,50,o),
(120,45,cs),
(120,38,o),
(125,35,o),
(133,35,cs),
(155,35,o),
(202,62,o),
(221,95,cs),
(257,158,o),
(435,415,o),
(435,581,cs),
(435,621,o),
(424,656,o),
(399,681,cs),
(380,701,o),
(346,716,o),
(304,716,cs),
(225,716,o),
(119,659,o),
(50,468,cs)
);
},
{
closed = 1;
nodes = (
(86,111,o),
(39,-54,o),
(82,-7,cs),
(111,25,o),
(200,21,o),
(238,-12,cs),
(266,-35,o),
(338,130,o),
(312,152,cs),
(270,187,o),
(167,201,o),
(120,149,cs)
);
}
);
width = 445;
}
);
unicode = 57;
},
{
glyphname = "period-han";
lastChange = "2024-02-02 07:26:09 +0000";
layers = (
{
layerId = m01;
shapes = (
{
closed = 1;
nodes = (
(160,151,o),
(170,172,o),
(170,184,cs),
(170,191,o),
(166,195,o),
(159,195,cs),
(144,195,o),
(113,174,o),
(80,133,cs),
(22,60,o),
(0,-1,o),
(0,-47,cs),
(0,-112,o),
(43,-148,o),
(93,-148,cs),
(112,-148,o),
(133,-142,o),
(153,-131,cs),
(190,-110,o),
(240,-22,o),
(240,9,cs),
(240,16,o),
(238,20,o),
(232,20,cs),
(229,20,o),
(224,18,o),
(219,15,cs),
(202,5,o),
(188,1,o),
(177,1,cs),
(139,1,o),
(127,44,o),
(127,79,cs),
(127,98,o),
(131,115,o),
(136,121,cs)
);
},
{
closed = 1;
nodes = (
(166,-28,o),
(149,-72,o),
(149,-95,cs),
(149,-105,o),
(152,-111,o),
(159,-111,cs),
(167,-111,o),
(179,-103,o),
(197,-83,cs),
(297,26,o),
(332,105,o),
(332,157,cs),
(332,214,o),
(290,240,o),
(244,240,cs),
(216,240,o),
(187,231,o),
(164,214,cs),
(122,185,o),
(71,111,o),
(71,89,cs),
(71,84,o),
(73,82,o),
(77,82,cs),
(81,82,o),
(89,86,o),
(100,94,cs),
(119,107,o),
(134,113,o),
(147,113,cs),
(191,113,o),
(200,46,o),
(200,18,cs),
(200,12,o),
(199,8,o),
(199,7,cs)
);
}
);
width = 332;
}
);
unicode = 12290;
},
{
glyphname = period;
lastChange = "2024-02-02 07:26:09 +0000";
layers = (
{
layerId = m01;
shapes = (
{
closed = 1;
nodes = (
(140,257,o),
(6,134,o),
(6,93,cs),
(6,92,o),
(0,12,o),
(0,11,cs),
(-4,-37,o),
(131,87,o),
(134,127,cs),
(134,128,o),
(140,210,o),
(140,213,cs)
);
}
);
width = 170;
}
);
unicode = 46;
},
{
glyphname = comma;
lastChange = "2024-02-02 07:26:09 +0000";
layers = (
{
layerId = m01;
shapes = (
{
closed = 1;
nodes = (
(108,163,o),
(-21,37,o),
(3,17,cs),
(19,4,o),
(68,-47,o),
(54,-94,cs),
(39,-142,o),
(137,-69,o),
(150,-24,cs),
(172,48,o),
(147,130,o),
(129,145,cs)
);
}
);
width = 142;
}
);
unicode = 44;
},
{
glyphname = colon;
lastChange = "2024-02-02 07:36:56 +0000";
layers = (
{
layerId = m01;
shapes = (
{
closed = 1;
nodes = (
(190,511,o),
(56,388,o),
(56,347,cs),
(56,346,o),
(50,266,o),
(50,265,cs),
(46,217,o),
(181,341,o),
(184,381,cs),
(184,382,o),
(190,464,o),
(190,467,cs)
);
},
{
closed = 1;
nodes = (
(190,257,o),
(56,134,o),
(56,93,cs),
(56,92,o),
(50,12,o),
(50,11,cs),
(46,-37,o),
(181,87,o),
(184,128,cs),
(184,128,o),
(190,210,o),
(190,213,cs)
);
}
);
width = 260;
}
);
unicode = 58;
},
{
glyphname = semicolon;
lastChange = "2024-02-02 07:36:21 +0000";
layers = (
{
layerId = m01;
shapes = (
{
closed = 1;
nodes = (
(190,511,o),
(56,388,o),
(56,347,cs),
(56,346,o),
(50,266,o),
(50,265,cs),
(46,217,o),
(181,341,o),
(184,381,cs),
(184,382,o),
(190,464,o),
(190,467,cs)
);
},
{
closed = 1;
nodes = (
(128,163,o),
(-1,37,o),
(23,17,cs),
(39,4,o),
(88,-47,o),
(74,-94,cs),
(59,-142,o),
(157,-69,o),
(170,-24,cs),
(192,48,o),
(167,130,o),
(149,145,cs)
);
}
);
width = 240;
}
);
unicode = 59;
},
{
glyphname = ellipsis;
lastChange = "2024-02-02 07:26:09 +0000";
layers = (
{
layerId = m01;
shapes = (
{
closed = 1;
nodes = (
(145,242,o),
(11,119,o),
(11,78,cs),
(11,77,o),
(5,-3,o),
(5,-4,cs),
(1,-52,o),
(136,72,o),
(139,112,cs),
(139,113,o),
(145,195,o),
(145,198,cs)
);
},
{
closed = 1;
nodes = (
(323,242,o),
(189,119,o),
(189,78,cs),
(189,77,o),
(183,-3,o),
(183,-4,cs),
(179,-52,o),
(314,72,o),
(317,112,cs),
(317,113,o),
(323,195,o),
(323,198,cs)
);
},
{
closed = 1;
nodes = (
(502,242,o),
(368,119,o),
(368,78,cs),
(368,77,o),
(362,-3,o),
(362,-4,cs),
(358,-52,o),
(493,72,o),
(496,112,cs),
(496,113,o),
(502,195,o),
(502,198,cs)
);
}
);
width = 608;
}
);
unicode = 8230;
},
{
glyphname = exclam;
lastChange = "2024-02-02 07:38:30 +0000";
layers = (
{
layerId = m01;
shapes = (
{
closed = 1;
nodes = (
(196,741,o),
(64,613,o),
(64,585,cs),
(64,576,o),
(36,223,o),
(36,218,cs),
(33,186,o),
(166,314,o),
(168,342,cs),
(168,342,o),
(196,705,o),
(196,711,cs)
);
},
{
closed = 1;
nodes = (
(170,258,o),
(36,135,o),
(36,94,cs),
(36,93,o),
(30,13,o),
(30,12,cs),
(26,-36,o),
(161,88,o),
(164,128,cs),
(164,129,o),
(170,211,o),
(170,214,cs)
);
}
);
width = 246;
}
);
unicode = 33;
},
{
glyphname = question;
lastChange = "2024-02-02 07:26:09 +0000";
layers = (
{
layerId = m01;
shapes = (
{
closed = 1;
nodes = (
(247,419,o),
(237,397,o),
(237,386,cs),
(237,379,o),
(241,375,o),
(247,375,cs),
(263,375,o),
(297,398,o),
(334,445,cs),
(401,533,o),
(429,600,o),
(429,646,cs),
(429,692,o),
(401,716,o),
(358,716,cs),
(313,716,o),
(253,689,o),
(192,634,cs),
(143,590,o),
(120,551,o),
(134,551,cs),
(141,551,o),
(156,560,o),
(182,584,cs),
(191,592,o),
(202,595,o),
(214,595,cs),
(250,595,o),
(294,559,o),
(294,510,cs),
(294,491,o),
(287,470,o),
(270,449,cs)
);
},
{
closed = 1;
nodes = (
(190,643,o),
(62,521,o),
(53,490,cs),
(40,442,o),
(69,404,o),
(85,387,cs),
(92,380,o),
(214,502,o),
(207,509,cs),
(189,526,o),
(170,568,o),
(181,609,cs)
);
},
{
closed = 1;
nodes = (
(304,492,o),
(172,364,o),
(172,336,cs),
(172,334,o),
(162,209,o),
(162,207,cs),
(159,175,o),
(292,303,o),
(294,331,cs),
(294,331,o),
(304,460,o),
(304,462,cs)
);
},
{
closed = 1;
nodes = (
(300,243,o),
(166,120,o),
(166,79,cs),
(166,77,o),
(166,-3,o),
(166,-5,cs),
(166,-49,o),
(300,77,o),
(300,115,c),
(300,115,o),
(300,198,o),
(300,199,cs)
);
}
);
width = 476;
}
);
unicode = 63;
},
{
glyphname = periodcentered;
lastChange = "2024-02-02 07:26:09 +0000";
layers = (
{
layerId = m01;
shapes = (
{
closed = 1;
nodes = (
(140,452,o),
(6,329,o),
(6,288,cs),
(6,287,o),
(0,207,o),
(0,206,cs),
(-4,158,o),
(131,282,o),
(134,322,cs),
(134,323,o),
(140,405,o),
(140,408,cs)
);
}
);
width = 170;
}
);
unicode = 183;
},
{
glyphname = bullet;
lastChange = "2024-02-02 07:26:09 +0000";
layers = (
{
layerId = m01;
shapes = (
{
closed = 1;
nodes = (
(185,387,o),
(125,394,o),
(56,307,cs),
(-61,159,o),
(34,115,o),
(86,145,cs),
(136,174,o),
(211,325,o),
(152,291,cs),
(144,287,o),
(111,294,o),
(112,295,cs)
);
},
{
closed = 1;
nodes = (
(61,201,o),
(55,107,o),
(124,183,cs),
(304,381,o),
(185,415,o),
(127,374,cs),
(68,333,o),
(-9,203,o),
(61,252,cs),
(63,253,o),
(126,273,o),
(124,271,cs)
);
}
);
width = 219;
}
);
unicode = 8226;
},
{
glyphname = asterisk;
lastChange = "2024-02-02 07:26:09 +0000";
layers = (
{
layerId = m01;
shapes = (
{
closed = 1;
nodes = (
(465,625,o),
(475,722,o),
(386,654,cs),
(352,628,o),
(70,379,o),
(68,377,cs),
(-12,307,o),
(3,229,o),
(90,305,cs),
(101,315,o),
(373,554,o),
(386,564,cs)
);
},
{
closed = 1;
nodes = (
(351,259,o),
(493,354,o),
(460,383,cs),
(354,477,o),
(249,571,o),
(143,665,cs),
(114,691,o),
(-28,596,o),
(5,567,cs),
(111,473,o),
(216,379,o),
(322,285,cs)
);
},
{
closed = 1;
nodes = (
(317,763,o),
(221,687,o),
(221,647,cs),
(221,640,o),
(157,246,o),
(156,240,cs),
(148,190,o),
(244,254,o),
(252,302,cs),
(252,304,o),
(317,706,o),
(317,719,cs)
);
}
);
width = 465;
}
);
unicode = 42;
},
{
glyphname = dblverticalbar;
lastChange = "2024-02-02 07:26:09 +0000";
layers = (
{
layerId = m01;
shapes = (
{
closed = 1;
nodes = (
(338,747,o),
(248,688,o),
(237,641,cs),
(230,612,o),
(187,-1,o),
(187,-2,cs),
(184,-46,o),
(274,23,o),
(277,65,cs),
(279,92,o),
(316,658,o),
(325,697,cs)
);
},
{
closed = 1;
nodes = (
(201,747,o),
(111,688,o),
(100,641,cs),
(93,612,o),
(50,-1,o),
(50,-2,cs),
(47,-46,o),
(137,23,o),
(140,65,cs),
(142,92,o),
(179,658,o),
(188,697,cs)
);
}
);
width = 411;
}
);
unicode = 8214;
},
{
glyphname = dittomark;
lastChange = "2024-02-02 07:26:09 +0000";
layers = (
{
layerId = m01;
shapes = (
{
closed = 1;
nodes = (
(227,554,o),
(111,507,o),
(70,425,cs),
(61,408,o),
(7,279,o),
(6,277,cs),
(-29,194,o),
(94,257,o),
(126,333,cs),
(129,339,o),
(184,468,o),
(184,469,cs)
);
},
{
closed = 1;
nodes = (
(382,554,o),
(266,507,o),
(225,425,cs),
(216,408,o),
(162,279,o),
(161,277,cs),
(126,194,o),
(249,257,o),
(281,333,cs),
(284,339,o),
(339,468,o),
(339,469,cs)
);
}
);
width = 348;
}
);
unicode = 12291;
},
{
glyphname = numbersign;
lastChange = "2024-02-01 21:10:28 +0000";
layers = (
{
layerId = m01;
shapes = (
{
closed = 1;
nodes = (
(421.564,665.695,o),
(305.585,618.603,o),
(265.021,537.474,cs),
(246.12,499.673,o),
(15.914,-47.837,o),
(14.98,-50.052,cs),
(-19.987,-132.983,o),
(102.913,-70.095,o),
(135.02,6.052,cs),
(141.972,22.54,o),
(364.256,551.078,o),
(378.979,580.526,cs)
);
},
{
closed = 1;
nodes = (
(710.564,665.695,o),
(594.585,618.603,o),
(554.021,537.474,cs),
(535.12,499.673,o),
(304.914,-47.837,o),
(303.98,-50.052,cs),
(269.013,-132.983,o),
(391.913,-70.095,o),
(424.02,6.052,cs),
(430.972,22.54,o),
(653.256,551.078,o),
(667.979,580.526,cs)
);
},
{
closed = 1;
nodes = (
(148.062,474.686,o),
(87.395,305.235,o),
(107.998,305.275,cs),
(280.665,305.608,o),
(453.331,305.942,o),
(625.998,306.275,cs),
(645.493,306.313,o),
(707.495,475.766,o),
(686.002,475.725,cs),
(513.335,475.392,o),
(340.669,475.058,o),
(168.002,474.725,cs)
);
},
{
closed = 1;
nodes = (
(44.062,219.686,o),
(-16.605,50.235,o),
(3.998,50.275,cs),
(176.665,50.608,o),
(349.331,50.942,o),
(521.998,51.275,cs),
(541.493,51.313,o),
(603.495,220.766,o),
(582.002,220.725,cs),
(409.335,220.392,o),
(236.669,220.058,o),
(64.002,219.725,cs)
);
}
);
width = 690;
}
);
unicode = 35;
},
{
glyphname = slash;
lastChange = "2024-02-01 21:10:28 +0000";
layers = (
{
layerId = m01;
shapes = (
{
closed = 1;
nodes = (
(444.564,784.695,o),
(328.585,737.603,o),
(288.021,656.474,cs),
(267.12,614.673,o),
(6.911,-6.835,o),
(5.98,-9.052,cs),
(-28.849,-92.033,o),
(94.034,-29.152,o),
(126.02,47.052,cs),
(137.706,74.895,o),
(379.478,654.523,o),
(401.979,699.526,cs)
);
}
);
width = 411;
}
);
unicode = 47;
},
{
glyphname = backslash;
lastChange = "2024-02-01 21:10:28 +0000";
layers = (
{
layerId = m01;
shapes = (
{
closed = 1;
nodes = (
(314.642,-24.643,o),
(439.715,-92.886,o),
(405.463,-10.111,cs),
(391.741,23.05,o),
(144.063,614.307,o),
(122.979,656.474,cs),
(83.981,734.471,o),
(-34.347,786.261,o),
(9.021,699.526,cs),
(17.937,681.693,o),
(274.259,72.95,o),
(284.537,48.111,cs)
);
}
);
width = 411;
}
);
unicode = 92;
},
{
glyphname = hyphen;
lastChange = "2024-02-02 07:33:13 +0000";
layers = (
{
layerId = m01;
shapes = (
{
closed = 1;
nodes = (
(63,349,o),
(3,179,o),
(24,179,cs),
(125,180,o),
(226,180,o),
(327,180,cs),
(347,180,o),
(409,350,o),
(387,350,cs),
(286,349,o),
(185,349,o),
(84,349,cs)
);
}
);
width = 442;
}
);
unicode = 45;
},
{
glyphname = endash;
lastChange = "2024-02-02 07:26:09 +0000";
layers = (
{
layerId = m01;
shapes = (
{
closed = 1;
nodes = (
(94,384,o),
(33,214,o),
(54,214,cs),
(233,214,o),
(411,213,o),
(590,212,cs),
(610,212,o),
(671,382,o),
(650,382,cs),
(471,382,o),
(293,383,o),
(114,384,cs)
);
}
);
width = 704;
}
);
unicode = 8211;
},
{
glyphname = emdash;
lastChange = "2024-02-02 07:26:09 +0000";
layers = (
{
layerId = m01;
shapes = (
{
closed = 1;
nodes = (
(94,384,o),
(33,214,o),
(54,214,cs),
(260,214,o),
(465,213,o),
(671,212,cs),
(691,212,o),
(752,382,o),
(731,382,cs),
(525,382,o),
(320,383,o),
(114,384,cs)
);
}
);
width = 785;
}
);
unicode = 8212;
},
{
glyphname = underscore;
lastChange = "2024-02-02 07:26:09 +0000";
layers = (
{
layerId = m01;
shapes = (
{
closed = 1;
nodes = (
(94,-21,o),
(33,-191,o),
(54,-191,cs),
(233,-191,o),
(411,-192,o),
(590,-193,cs),
(610,-193,o),
(671,-23,o),
(650,-23,cs),
(471,-23,o),
(293,-22,o),
(114,-21,cs)
);
}
);
width = 704;
}
);
unicode = 95;
},
{
glyphname = wavedash;
lastChange = "2024-02-02 07:26:09 +0000";
layers = (
{
layerId = m01;
shapes = (
{
closed = 1;
nodes = (
(695,189,o),
(753,359,o),
(721,346,cs),
(602,299,o),
(538,286,o),
(419,348,cs),
(330,395,o),
(224,397,o),
(111,327,cs),
(83,310,o),
(25,138,o),
(61,161,cs),
(166,225,o),
(271,225,o),
(357,180,cs),
(477,116,o),
(546,129,o),
(667,178,cs)
);
}
);
width = 780;
}
);
unicode = 12316;
},
{
glyphname = parenleft;
lastChange = "2024-02-02 07:34:36 +0000";
layers = (
{
layerId = m01;
shapes = (
{
closed = 1;
nodes = (
(354,865,o),
(355,868,o),
(355,871,cs),
(355,876,o),
(351,878,o),
(345,878,cs),
(315,878,o),
(224,828,o),
(203,790,cs),
(119,642,o),
(70,421,o),
(70,217,cs),
(70,49,o),
(103,-108,o),
(177,-205,cs),
(196,-230,o),
(323,-102,o),
(305,-79,cs),
(244,1,o),
(218,134,o),
(218,280,cs),
(218,485,o),
(270,716,o),
(351,860,cs)
);
}
);
width = 405;
}
);
unicode = 40;
},
{
glyphname = parenright;
lastChange = "2024-02-02 07:34:43 +0000";
layers = (
{
layerId = m01;
shapes = (
{
closed = 1;
nodes = (
(51,-182,o),
(50,-185,o),
(50,-188,cs),
(50,-193,o),
(53,-195,o),
(59,-195,cs),
(90,-195,o),
(182,-143,o),
(202,-107,cs),
(286,41,o),
(335,262,o),
(335,466,cs),
(335,634,o),
(302,791,o),
(228,888,cs),
(210,912,o),
(81,786,o),
(100,762,cs),
(161,682,o),
(187,549,o),
(187,403,cs),
(187,198,o),
(135,-33,o),
(54,-177,cs)
);
}
);
width = 405;
}
);
unicode = 41;
},
{
glyphname = braceleft;
lastChange = "2024-02-01 21:10:28 +0000";
layers = (
{
background = {
shapes = (
{
closed = 0;
nodes = (
(398,585,l,{
"Letterink-NibData" = {
AngleInDegrees = "-1.10492";
MainAxisWidth = "194.2661";
MinorAxisWidth = "35";
ValidForParentMainAxisWidth = "30";
ValidForParentMinorAxisWidth = "15";
};
}),
(411,738,o),
(279,675,o),
(226,595,cs,{
"Letterink-NibData" = {
AngleInDegrees = "-13";
MainAxisWidth = "114";
MinorAxisWidth = "35";
ValidForParentMainAxisWidth = "30";
ValidForParentMinorAxisWidth = "15";
};
}),
(186,535,o),
(219,460,o),
(169,398,cs,{
"Letterink-NibData" = {
AngleInDegrees = "-28";
MainAxisWidth = "100";
MinorAxisWidth = "35";
ValidForParentMainAxisWidth = "30";
ValidForParentMinorAxisWidth = "15";
};
}),
(145,368,o),
(65,327,o),
(21,326,c,{
"Letterink-NibData" = {
AngleInDegrees = "-7";
MainAxisWidth = "40";
MinorAxisWidth = "24";
ValidForParentMainAxisWidth = "30";
ValidForParentMinorAxisWidth = "15";
};
})
);
},
{
closed = 0;
nodes = (
(308,204,l,{
"Letterink-NibData" = {
AngleInDegrees = "-7";
MainAxisWidth = "194";
MinorAxisWidth = "35";
ValidForParentMainAxisWidth = "30";
ValidForParentMinorAxisWidth = "15";
};
}),
(332,102,o),
(160,-19,o),
(120,47,cs,{
"Letterink-NibData" = {
AngleInDegrees = "-13";
MainAxisWidth = "114";
MinorAxisWidth = "35";
ValidForParentMainAxisWidth = "30";
ValidForParentMinorAxisWidth = "15";
};
}),
(98,83,o),
(175,251,o),
(133,304,cs,{
"Letterink-NibData" = {
AngleInDegrees = "-9.18703";
MainAxisWidth = "81.46848";
MinorAxisWidth = "26.04304";
ValidForParentMainAxisWidth = "30";
ValidForParentMinorAxisWidth = "15";
};
}),
(117,324,o),
(73,327,o),
(50,328,c,{
"Letterink-NibData" = {
AngleInDegrees = "-28";
MainAxisWidth = "100";
MinorAxisWidth = "35";
ValidForParentMainAxisWidth = "30";
ValidForParentMinorAxisWidth = "15";
};
})
);
},
{
closed = 0;
nodes = (
(1377,585,l,{
"Letterink-NibData" = {
AngleInDegrees = "-1.10492";
MainAxisWidth = "194.2661";
MinorAxisWidth = "35";
ValidForParentMainAxisWidth = "30";
ValidForParentMinorAxisWidth = "15";
};
}),
(1390,738,o),
(1258,675,o),
(1205,595,cs,{
"Letterink-NibData" = {
AngleInDegrees = "-13";
MainAxisWidth = "114";
MinorAxisWidth = "35";
ValidForParentMainAxisWidth = "30";
ValidForParentMinorAxisWidth = "15";
};
}),
(1165,535,o),
(1198,460,o),
(1148,398,cs,{
"Letterink-NibData" = {
AngleInDegrees = "-28";
MainAxisWidth = "100";
MinorAxisWidth = "35";
ValidForParentMainAxisWidth = "30";
ValidForParentMinorAxisWidth = "15";
};
}),
(1124,368,o),
(1044,327,o),
(1000,326,c,{
"Letterink-NibData" = {
AngleInDegrees = "-7";
MainAxisWidth = "40";
MinorAxisWidth = "24";
ValidForParentMainAxisWidth = "30";
ValidForParentMinorAxisWidth = "15";
};
})
);
},
{
closed = 0;
nodes = (
(1317,260,l,{
"Letterink-NibData" = {
AngleInDegrees = "-28";
MainAxisWidth = "100";
MinorAxisWidth = "35";
ValidForParentMainAxisWidth = "30";
ValidForParentMinorAxisWidth = "15";
};
}),
(1316,216,o),
(1299,170,o),
(1273,131,cs,{
"Letterink-NibData" = {
AngleInDegrees = "-13";
MainAxisWidth = "114";
MinorAxisWidth = "35";
ValidForParentMainAxisWidth = "30";
ValidForParentMinorAxisWidth = "15";
};
}),
(1220,51,o),
(1029,-30,o),
(1112,157,cs,{
"Letterink-NibData" = {
MainAxisWidth = "150";
MinorAxisWidth = "35";
ValidForParentMainAxisWidth = "30";
ValidForParentMinorAxisWidth = "15";
};
}),
(1140,220,o),
(1136,286,o),
(1112,304,cs,{
"Letterink-NibData" = {
AngleInDegrees = "-9.18703";
MainAxisWidth = "81.46848";
MinorAxisWidth = "26.04304";
ValidForParentMainAxisWidth = "30";
ValidForParentMinorAxisWidth = "15";
};
}),
(1090,320,o),
(1052,327,o),
(1029,328,c,{
"Letterink-NibData" = {
AngleInDegrees = "-28";
MainAxisWidth = "100";
MinorAxisWidth = "35";
ValidForParentMainAxisWidth = "30";
ValidForParentMinorAxisWidth = "15";
};
})
);
}
);
};
layerId = m01;
width = 451;
}
);
unicode = 123;
},
{
glyphname = bracketleft;
lastChange = "2024-02-02 07:35:52 +0000";
layers = (
{
layerId = m01;
shapes = (
{
closed = 1;
nodes = (
(273,890,o),
(142,795,o),
(131,733,cs),
(128,717,o),
(70,-177,o),
(70,-178,cs),
(65,-242,o),
(196,-143,o),
(200,-82,cs),
(201,-68,o),
(258,805,o),
(261,821,cs)
);
},
{
closed = 1;
nodes = (
(176,890,o),
(115,720,o),
(137,720,cs),
(218,721,o),
(299,721,o),
(380,721,cs),
(400,721,o),
(462,891,o),
(440,891,cs),
(359,890,o),
(277,890,o),
(196,890,cs)
);
},
{
closed = 1;
nodes = (
(124,-29,o),
(64,-199,o),
(85,-199,cs),
(163,-198,o),
(240,-198,o),
(317,-198,cs),
(337,-198,o),
(399,-28,o),
(377,-28,cs),
(299,-29,o),
(222,-29,o),
(145,-29,cs)
);
}
);
width = 455;
}
);
unicode = 91;
},
{
glyphname = bracketright;
lastChange = "2024-02-02 07:35:06 +0000";
layers = (
{
layerId = m01;
shapes = (
{
closed = 1;
nodes = (
(176,-213,o),
(304,-132,o),
(322,-61,cs),
(328,-37,o),
(384,852,o),
(384,855,cs),
(389,919,o),
(258,817,o),
(254,759,cs),
(253,745,o),
(197,-127,o),
(194,-139,cs)
);
},
{
closed = 1;
nodes = (
(278,-213,o),
(340,-43,o),
(318,-43,cs),
(236,-44,o),
(155,-44,o),
(74,-44,cs),
(53,-44,o),
(-7,-214,o),
(14,-214,cs),
(96,-213,o),
(177,-213,o),
(258,-213,cs)
);
},
{
closed = 1;
nodes = (
(329,706,o),
(391,876,o),
(369,876,cs),
(291,875,o),
(214,875,o),
(137,875,cs),
(116,875,o),
(56,705,o),
(77,705,cs),
(155,706,o),
(232,706,o),
(309,706,cs)
);
}
);
width = 454;
}
);
unicode = 93;
},
{
glyphname = anglebracketleft;
lastChange = "2024-02-02 07:26:09 +0000";
layers = (
{
layerId = m01;
shapes = (
{
closed = 1;
nodes = (
(468,848,o),
(338,806,o),
(305,747,cs),
(230,616,o),
(156,486,o),
(82,355,cs),
(45,290,o),
(176,337,o),
(208,393,cs),
(283,524,o),
(357,654,o),
(431,785,cs)
);
},
{
closed = 1;
nodes = (
(201,456,o),
(57,365,o),
(77,329,cs),
(152,199,o),
(226,69,o),
(300,-62,cs),
(320,-96,o),
(464,-6,o),
(444,30,cs),
(369,160,o),
(295,291,o),
(221,421,cs)
);
}
);
width = 520;
}
);
unicode = 12296;
},
{
glyphname = anglebracketright;
lastChange = "2024-02-02 07:26:09 +0000";
layers = (
{
layerId = m01;
shapes = (
{
closed = 1;
nodes = (
(52,-103,o),
(183,-56,o),
(215,0,cs),
(290,131,o),
(364,261,o),
(438,392,cs),
(475,455,o),
(345,413,o),
(312,354,cs),
(237,223,o),
(163,93,o),
(89,-38,cs)
);
},
{
closed = 1;
nodes = (
(319,292,o),
(463,382,o),
(443,418,cs),
(368,548,o),
(294,679,o),
(220,809,cs),
(200,844,o),
(56,753,o),
(76,717,cs),
(151,587,o),
(225,457,o),
(299,326,cs)
);
}
);
width = 520;
}
);
unicode = 12297;
},
{
glyphname = cornerbracketleft;
lastChange = "2024-02-02 07:26:09 +0000";
layers = (
{
guides = (
{
pos = (369,889);
}
);
layerId = m01;
shapes = (
{
closed = 1;
nodes = (
(251,788,o),
(122,704,o),
(105,636,cs),
(99,612,o),
(74,196,o),
(74,193,cs),
(69,129,o),
(200,228,o),
(204,289,cs),
(205,302,o),
(231,708,o),
(233,714,cs)
);
},
{
closed = 1;
nodes = (
(148,788,o),
(88,618,o),
(109,618,cs),
(191,619,o),
(272,619,o),
(353,619,cs),
(373,619,o),
(435,789,o),
(413,789,cs),
(331,788,o),
(250,788,o),
(169,788,cs)
);
}
);
width = 523;
}
);
unicode = 12300;
},
{
glyphname = cornerbracketright;
lastChange = "2024-02-02 07:26:09 +0000";
layers = (
{
layerId = m01;
shapes = (
{
closed = 1;
nodes = (
(166,-117,o),
(294,-36,o),
(312,35,cs),
(318,59,o),
(343,475,o),
(343,478,cs),
(348,542,o),
(217,440,o),
(213,382,cs),
(212,369,o),
(186,-37,o),
(184,-43,cs)
);
},
{
closed = 1;
nodes = (
(268,-117,o),
(330,53,o),
(308,53,cs),
(226,52,o),
(145,52,o),
(64,52,cs),
(43,52,o),
(-17,-118,o),
(4,-118,cs),
(86,-117,o),
(167,-117,o),
(248,-117,cs)
);
}
);
width = 373;
}
);
unicode = 12301;
},
{
glyphname = quotesinglbase;
lastChange = "2024-02-02 07:26:09 +0000";
layers = (
{
layerId = m01;
shapes = (
{
closed = 1;
nodes = (
(-6,-160,o),
(117,-95,o),
(122,-65,cs),
(122,-64,o),
(171,120,o),
(173,130,cs),
(183,188,o),
(29,116,o),
(19,64,cs),
(19,64,o),
(12,-54,o),
(0,-125,cs)
);
}
);
width = 174;
}
);
unicode = 8218;
},
{
glyphname = quotedblbase;
lastChange = "2024-02-02 07:26:09 +0000";
layers = (
{
layerId = m01;
shapes = (
{
closed = 1;
nodes = (
(167,-160,o),
(291,-95,o),
(295,-65,cs),
(295,-64,o),
(344,121,o),
(346,130,cs),
(357,188,o),
(202,116,o),
(192,64,cs),
(192,64,o),
(191,-6,o),
(173,-125,cs)
);
},
{
closed = 1;
nodes = (
(-5,-160,o),
(118,-95,o),
(122,-65,cs),
(122,-64,o),
(171,121,o),
(173,130,cs),
(184,188,o),
(29,116,o),
(19,64,cs),
(19,64,o),
(15,-21,o),
(0,-125,cs)
);
}
);
width = 346;
}
);
unicode = 8222;
},
{
glyphname = quotedblleft;
lastChange = "2024-02-02 07:26:09 +0000";
layers = (
{
layerId = m01;
shapes = (
{
closed = 1;
nodes = (
(173,738,o),
(51,672,o),
(51,643,cs),
(51,642,o),
(3,459,o),
(1,450,cs),
(-13,393,o),
(141,460,o),
(153,516,cs),
(153,516,o),
(173,588,o),
(173,707,cs)
);
},
{
closed = 1;
nodes = (
(346,738,o),
(224,672,o),
(224,643,cs),
(224,642,o),
(176,459,o),
(174,450,cs),
(160,393,o),
(314,460,o),
(326,516,cs),
(326,516,o),
(346,588,o),
(346,707,cs)
);
}
);
width = 346;
}
);
unicode = 8220;
},
{
glyphname = quotedblright;
lastChange = "2024-02-02 07:26:09 +0000";
layers = (
{
layerId = m01;
shapes = (
{
closed = 1;
nodes = (
(173,420,o),
(295,486,o),
(295,515,cs),
(295,516,o),
(343,699,o),
(345,708,cs),
(359,766,o),
(205,695,o),
(193,642,cs),
(193,642,o),
(173,570,o),
(173,451,cs)
);
},
{
closed = 1;
nodes = (
(0,420,o),
(122,486,o),
(122,515,cs),
(122,516,o),
(170,699,o),
(172,708,cs),
(186,766,o),
(32,695,o),
(20,642,cs),
(20,642,o),
(0,570,o),
(0,451,cs)
);
}
);
width = 346;
}
);
unicode = 8221;
},
{
glyphname = quoteleft;
lastChange = "2024-02-02 07:26:09 +0000";
layers = (
{
layerId = m01;
shapes = (
{
closed = 1;
nodes = (
(173,738,o),
(51,672,o),
(51,643,cs),
(51,642,o),
(3,459,o),
(1,450,cs),
(-13,393,o),
(141,460,o),
(153,516,cs),
(153,516,o),
(173,588,o),
(173,707,cs)
);
}
);
width = 173;
}
);
unicode = 8216;
},
{
glyphname = quoteright;
lastChange = "2024-02-02 07:26:09 +0000";
layers = (
{
layerId = m01;
shapes = (
{
closed = 1;
nodes = (
(0,420,o),
(122,486,o),
(122,515,cs),
(122,516,o),
(170,699,o),
(172,708,cs),
(186,766,o),
(32,695,o),
(20,642,cs),
(20,642,o),
(0,570,o),
(0,451,cs)
);
}
);
width = 173;
}
);
unicode = 8217;
},
{
glyphname = guillemetleft;
lastChange = "2024-02-02 07:42:25 +0000";
layers = (
{
layerId = m01;
shapes = (
{
closed = 1;
nodes = (
(413,479,o),
(351,512,o),
(271,449,cs),
(203,396,o),
(136,343,o),
(69,291,cs),
(-11,228,o),
(52,198,o),
(131,259,cs),
(199,312,o),
(266,365,o),
(333,417,cs)
);
},
{
closed = 1;
nodes = (
(158,357,o),
(14,267,o),
(31,230,cs),
(63,161,o),
(94,92,o),
(126,23,cs),
(143,-14,o),
(287,75,o),
(270,113,cs),
(238,182,o),
(207,251,o),
(175,320,cs)
);
},
{
closed = 1;
nodes = (
(662,479,o),
(600,512,o),
(520,449,cs),
(452,396,o),
(385,343,o),
(318,291,cs),
(238,228,o),
(301,198,o),
(380,259,cs),
(448,312,o),
(515,365,o),
(582,417,cs)
);
},
{
closed = 1;
nodes = (
(407,357,o),
(263,267,o),
(280,230,cs),
(312,161,o),
(343,92,o),
(375,23,cs),
(392,-14,o),
(536,75,o),
(519,113,cs),
(487,182,o),
(456,251,o),
(424,320,cs)
);
}
);
width = 639;
}
);
unicode = 171;
},
{
glyphname = guillemetright;
lastChange = "2024-02-02 07:26:09 +0000";
layers = (
{
layerId = m01;
shapes = (
{
closed = 1;
nodes = (
(205.51,20.987,o),
(269.435,-9.396,o),
(348.45,52.408,cs),
(415.783,105.074,o),
(483.116,157.741,o),
(550.45,210.408,cs),
(629.535,272.266,o),
(568.474,304.889,o),
(487.55,241.592,cs),
(420.217,188.926,o),
(352.884,136.259,o),
(285.55,83.592,cs)
);
},
{
closed = 1;
nodes = (
(460.837,144.284,o),
(605.336,233.254,o),
(588.073,270.87,cs),
(556.406,339.87,o),
(524.74,408.87,o),
(493.073,477.87,cs),
(475.921,515.243,o),
(332.148,424.691,o),
(348.927,388.13,cs),
(380.594,319.13,o),
(412.26,250.13,o),
(443.927,181.13,cs)
);
},
{
closed = 1;
nodes = (
(-43.49,20.987,o),
(20.435,-9.396,o),
(99.45,52.408,cs),
(166.783,105.074,o),
(234.116,157.741,o),
(301.45,210.408,cs),
(380.535,272.266,o),
(319.474,304.889,o),
(238.55,241.592,cs),
(171.217,188.926,o),
(103.884,136.259,o),
(36.55,83.592,cs)
);
},
{
closed = 1;
nodes = (
(211.837,144.284,o),
(356.336,233.254,o),
(339.073,270.87,cs),
(307.406,339.87,o),
(275.74,408.87,o),
(244.073,477.87,cs),
(226.921,515.243,o),
(83.148,424.691,o),
(99.927,388.13,cs),
(131.594,319.13,o),
(163.26,250.13,o),
(194.927,181.13,cs)
);
}
);
width = 600;
}
);
unicode = 187;
},
{
glyphname = guilsinglleft;
lastChange = "2024-02-02 07:26:09 +0000";
layers = (
{
layerId = m01;
shapes = (
{
closed = 1;
nodes = (
(433,480,o),
(371,513,o),
(291,450,cs),
(223,397,o),
(156,344,o),
(89,292,cs),
(9,229,o),
(72,199,o),
(151,260,cs),
(219,313,o),
(286,366,o),
(353,418,cs)
);
},
{
closed = 1;
nodes = (
(178,358,o),
(34,268,o),
(51,231,cs),
(83,162,o),
(114,93,o),
(146,24,cs),
(163,-13,o),
(307,76,o),
(290,114,cs),
(258,183,o),
(227,252,o),
(195,321,cs)
);
}
);
width = 406;
}
);
unicode = 8249;
},
{
glyphname = guilsinglright;
lastChange = "2024-02-02 07:26:09 +0000";
layers = (
{
layerId = m01;
shapes = (
{
closed = 1;
nodes = (
(7,21,o),
(70,-9,o),
(149,52,cs),
(217,105,o),
(284,158,o),
(351,210,cs),
(431,272,o),
(369,305,o),
(289,242,cs),
(221,189,o),
(154,136,o),
(87,84,cs)
);
},
{
closed = 1;
nodes = (
(262,144,o),
(406,233,o),
(389,271,cs),
(357,340,o),
(326,409,o),
(294,478,cs),
(277,515,o),
(133,425,o),
(150,388,cs),
(182,319,o),
(213,250,o),
(245,181,cs)
);
}
);
width = 406;
}
);
unicode = 8250;
},
{
glyphname = quotedbl;
lastChange = "2024-02-02 07:37:35 +0000";
layers = (
{
layerId = m01;
shapes = (
{
closed = 1;
nodes = (
(197,745,o),
(45,665,o),
(45,623,cs),
(45,583,o),
(30,453,o),
(30,447,cs),
(24,399,o),
(176,477,o),
(180,521,cs),
(181,522,o),
(197,663,o),
(197,701,cs)
);
},
{
closed = 1;
nodes = (
(369,745,o),
(217,665,o),
(217,623,cs),
(217,583,o),
(202,453,o),
(202,447,cs),
(196,399,o),
(348,477,o),
(352,521,cs),
(353,522,o),
(369,663,o),
(369,701,cs)
);
}
);
width = 389;
}
);
unicode = 34;
},
{
glyphname = quotesingle;
lastChange = "2024-02-02 07:37:24 +0000";
layers = (
{
layerId = m01;
shapes = (
{
closed = 1;
nodes = (
(198,746,o),
(46,665,o),
(46,622,cs),
(46,589,o),
(30,446,o),
(30,446,cs),
(24,399,o),
(177,477,o),
(182,522,cs),
(183,528,o),
(198,659,o),
(198,702,cs)
);
}
);
width = 218;
}
);
unicode = 39;
},
{
glyphname = baht;
lastChange = "2024-02-02 07:26:09 +0000";
layers = (
{
layerId = m01;
shapes = (
{
closed = 1;
nodes = (
(58,266,o),
(54,233,o),
(54,205,cs),
(54,176,o),
(58,153,o),
(64,153,cs),
(67,153,o),
(71,159,o),
(75,173,cs),
(102,260,o),
(185,307,o),
(255,307,cs),
(313,307,o),
(361,275,o),
(361,207,cs),
(361,186,o),
(356,161,o),
(346,133,cs),
(344,128,o),
(343,124,o),
(343,122,cs),
(343,119,o),
(344,118,o),
(346,118,cs),
(362,118,o),
(438,205,o),
(454,249,cs),
(465,278,o),
(470,303,o),
(470,326,cs),
(470,417,o),
(394,465,o),
(306,465,cs),
(211,465,o),
(103,408,o),
(65,289,cs)
);
},
{
closed = 1;
nodes = (
(235,414,o),
(205,366,o),
(205,340,cs),
(205,331,o),
(209,325,o),
(219,325,cs),
(226,325,o),
(236,329,o),
(250,336,c),
(448,452,o),
(519,554,o),
(519,624,cs),
(519,688,o),
(461,726,o),
(385,726,cs),
(285,726,o),
(154,659,o),
(89,496,c),
(80,473,o),
(76,452,o),
(76,436,cs),
(76,407,o),
(88,389,o),
(104,389,cs),
(120,389,o),
(141,408,o),
(159,452,c),
(189,527,o),
(294,568,o),
(353,568,cs),
(379,568,o),
(396,560,o),
(396,545,cs),
(396,524,o),
(364,490,o),
(278,440,c)
);
},
{
closed = 1;
nodes = (
(176,507,o),
(100,531,o),
(85,479,cs),
(62,393,o),
(32,221,o),
(32,145,cs),
(32,92,o),
(118,99,o),
(118,153,cs),
(118,211,o),
(140,377,o),
(163,459,cs)
);
},
{
closed = 1;
nodes = (
(458,270,o),
(463,294,o),
(463,308,cs),
(463,316,o),
(461,321,o),
(458,321,cs),
(451,321,o),
(437,301,o),
(422,257,cs),
(396,184,o),
(320,150,o),
(252,150,cs),
(189,150,o),
(132,181,o),
(132,237,cs),
(132,254,o),
(137,273,o),
(149,295,cs),
(155,307,o),
(158,314,o),
(158,318,cs),
(158,321,o),
(157,322,o),
(155,322,cs),
(141,322,o),
(80,258,o),
(51,203,cs),
(37,176,o),
(30,149,o),
(30,124,cs),
(30,45,o),
(97,-14,o),
(181,-14,cs),
(271,-14,o),
(381,54,o),
(446,237,cs)
);
},
{
closed = 1;
nodes = (
(95,-109,o),
(180,-74,o),
(203,-20,cs),
(243,69,o),
(373,786,o),
(374,789,cs),
(383,839,o),
(293,784,o),
(284,737,cs),
(280,711,o),
(157,31,o),
(121,-52,cs)
);
}
);
width = 549;
}
);
unicode = 3647;
},
{
glyphname = at;
lastChange = "2024-02-02 07:26:09 +0000";
layers = (
{
layerId = m01;
shapes = (
{
closed = 1;
nodes = (
(441,-29,o),
(581,117,o),
(554,123,cs),
(533,129,o),
(543,208,o),
(554,377,cs),
(558,426,o),
(567,449,o),
(567,514,cs),
(567,584,o),
(506,700,o),
(343,523,cs),
(272,445,o),
(275,390,o),
(351,473,cs),
(366,490,o),
(421,474,o),
(421,378,cs),
(421,313,o),
(413,294,o),
(410,241,cs),
(397,58,o),
(383,-15,o),
(418,-23,cs)
);
},
{
closed = 1;
nodes = (
(418,596,o),
(322,517,o),
(289,452,cs),
(278,430,o),
(262,388,o),
(256,347,cs),
(243,259,o),
(229,120,o),
(213,-3,cs),
(206,-55,o),
(298,13,o),
(303,57,cs),
(321,190,o),
(336,335,o),
(350,429,cs),
(356,472,o),
(380,520,o),
(383,526,cs)
);
},
{
closed = 1;
nodes = (
(581,207,o),
(700,346,o),
(640,345,cs),
(555,345,o),
(470,345,o),
(384,344,cs),
(304,344,o),
(142,352,o),
(192,487,cs),
(240,615,o),
(389,697,o),
(461,697,cs),
(467,697,o),
(473,699,o),
(480,699,cs),
(651,703,o),
(713,566,o),
(694,412,cs),
(684,338,o),
(679,264,o),
(670,192,cs),
(657,89,o),
(502,-85,o),
(392,-85,cs),
(314,-86,o),
(236,-86,o),
(158,-86,cs),
(101,-86,o),
(-13,-228,o),
(57,-227,cs),
(135,-227,o),
(213,-227,o),
(290,-227,cs),
(530,-226,o),
(791,223,o),
(802,315,cs),
(811,381,o),
(822,446,o),
(830,510,cs),
(849,655,o),
(750,837,o),
(588,837,cs),
(580,837,o),
(571,839,o),
(563,839,cs),
(379,839,o),
(166,605,o),
(110,455,cs),
(26,230,o),
(212,205,o),
(276,206,cs),
(361,206,o),
(446,206,o),
(532,207,cs)
);
}
);
width = 911;
}
);
unicode = 64;
},
{
glyphname = ampersand;
lastChange = "2024-02-02 07:26:09 +0000";
layers = (
{
layerId = m01;
shapes = (
{
closed = 1;
nodes = (
(307,425,o),
(299,407,o),
(299,397,cs),
(299,390,o),
(303,387,o),
(309,387,cs),
(327,387,o),
(367,416,o),
(404,466,cs),
(457,540,o),
(479,598,o),
(479,639,cs),
(479,689,o),
(446,714,o),
(401,714,cs),
(361,714,o),
(310,694,o),
(264,654,cs),
(214,612,o),
(182,562,o),
(196,562,cs),
(202,562,o),
(215,570,o),
(236,588,cs),
(243,594,o),
(251,596,o),
(260,596,cs),
(296,596,o),
(344,555,o),
(344,504,cs),
(344,487,o),
(339,469,o),
(326,452,cs)
);
},
{
closed = 1;
nodes = (
(289,673,o),
(169,572,o),
(136,519,cs),
(87,441,o),
(137,408,o),
(199,323,cs),
(257,244,o),
(442,-2,o),
(503,-14,cs),
(522,-18,o),
(649,110,o),
(627,114,cs),
(596,120,o),
(399,337,o),
(351,403,cs),
(287,491,o),
(229,579,o),
(252,615,cs)
);
},
{
closed = 1;
nodes = (
(275,325,o),
(294,353,o),
(294,367,cs),
(294,373,o),
(291,376,o),
(284,376,cs),
(271,376,o),
(246,364,o),
(211,336,cs),
(97,241,o),
(50,152,o),
(50,87,cs),
(50,25,o),
(93,-15,o),
(161,-15,cs),
(259,-15,o),
(409,67,o),
(557,281,cs),
(570,301,o),
(576,316,o),
(576,325,cs),
(576,332,o),
(572,336,o),
(565,336,cs),
(547,336,o),
(512,312,o),
(481,269,cs),
(411,166,o),
(336,129,o),
(279,129,cs),
(224,129,o),
(186,164,o),
(186,207,cs),
(186,234,o),
(200,263,o),
(233,290,cs)
);
},
{
closed = 1;
nodes = (
(578,460,o),
(447,348,o),
(460,334,cs),
(480,311,o),
(554,225,o),
(573,216,cs),
(590,208,o),
(718,335,o),
(699,344,cs),
(688,349,o),
(606,427,o),
(590,446,cs)
);
}
);
width = 680;
}
);
unicode = 38;
},
{
glyphname = section;
lastChange = "2024-02-02 07:26:09 +0000";
layers = (
{
layerId = m01;
shapes = (
{
closed = 1;
nodes = (
(55,118,o),
(-11,-46,o),
(2,-72,cs),
(25,-117,o),
(154,-226,o),
(271,-59,cs),
(427,164,o),
(340,184,o),
(254,240,cs),
(125,325,o),
(141,391,o),
(152,406,cs),
(208,486,o),
(162,504,o),
(108,428,cs),
(-19,247,o),
(32,174,o),
(130,110,cs),
(272,17,o),
(252,11,o),
(249,7,cs),
(238,-9,o),
(111,6,o),
(68,94,cs)
);
},
{
closed = 1;
nodes = (
(378,505,o),
(442,673,o),
(431,697,cs),
(408,742,o),
(277,849,o),
(162,684,cs),
(6,460,o),
(92,441,o),
(179,384,cs),
(308,300,o),
(292,233,o),
(281,218,cs),
(227,141,o),
(268,116,o),
(325,196,cs),
(452,377,o),
(400,450,o),
(303,514,cs),
(161,607,o),
(181,613,o),
(184,618,cs),
(194,633,o),
(322,619,o),
(365,531,cs)
);
}
);
width = 432;
}
);
unicode = 167;
},
{
glyphname = copyright;
lastChange = "2024-02-02 07:26:09 +0000";
layers = (
{
layerId = m01;
shapes = (
{
closed = 1;
nodes = (
(558,503,o),
(561,579,o),
(479,501,cs),
(126,163,o),
(384,-90,o),
(631,98,cs),
(695,147,o),
(765,306,o),
(691,250,cs),
(460,74,o),
(408,359,o),
(479,427,cs)
);
},
{
closed = 1;
nodes = (
(631,368,o),
(759,496,o),
(752,515,cs),
(736,566,o),
(652,638,o),
(549,564,cs),
(498,529,o),
(410,388,o),
(471,432,cs),
(534,476,o),
(607,443,o),
(624,391,cs)
);
},
{
closed = 1;
nodes = (
(568,-145,o),
(950,139,o),
(1028,397,cs),
(1100,637,o),
(931,820,o),
(694,794,cs),
(430,766,o),
(99,394,o),
(62,242,cs),
(3,-2,o),
(173,-196,o),
(401,-167,cs)
);
},
{
closed = 1;
nodes = (
(283,-58,o),
(163,109,o),
(216,326,cs),
(268,541,o),
(454,662,o),
(582,676,cs),
(791,698,o),
(941,528,o),
(876,313,cs),
(806,82,o),
(650,-11,o),
(505,-29,cs)
);
}
);
width = 1095;
}
);
unicode = 169;
},
{
glyphname = registered;
lastChange = "2024-02-02 07:26:09 +0000";
layers = (
{
layerId = m01;
shapes = (
{
closed = 1;
nodes = (
(414,159,o),
(671,371,o),
(735,554,cs),
(795,724,o),
(721,916,o),
(470,844,cs),
(281,789,o),
(47,562,o),
(11,426,cs),
(-35,254,o),
(61,81,o),
(269,127,cs)
);
},
{
closed = 1;
nodes = (
(177,225,o),
(119,350,o),
(161,506,cs),
(189,610,o),
(319,703,o),
(408,728,cs),
(575,777,o),
(643,634,o),
(589,478,cs),
(540,338,o),
(451,286,o),
(347,263,cs)
);
},
{
closed = 1;
nodes = (
(381,654,o),
(292,614,o),
(256,546,cs),
(203,449,o),
(223,321,o),
(223,315,cs),
(226,276,o),
(336,351,o),
(333,389,cs),
(332,395,o),
(325,549,o),
(344,586,cs)
);
},
{
closed = 1;
nodes = (
(287,484,o),
(300,412,o),
(369,466,cs),
(674,705,o),
(327,793,o),
(250,531,cs),
(235,481,o),
(316,510,o),
(330,557,cs),
(351,629,o),
(431,598,o),
(351,534,cs)
);
},
{
closed = 1;
nodes = (
(238,458,o),
(220,349,o),
(269,400,cs),
(336,469,o),
(424,453,o),
(375,338,cs),
(350,280,o),
(464,323,o),
(485,374,cs),
(561,553,o),
(384,609,o),
(279,500,cs)
);
}
);
width = 755;
}
);
unicode = 174;
},
{
glyphname = trademark;
lastChange = "2024-02-02 07:38:58 +0000";
layers = (
{
layerId = m01;
shapes = (
{
closed = 1;
nodes = (
(329,565,o),
(392,723,o),
(352,718,cs),
(278,708,o),
(126,727,o),
(79,709,cs),
(57,701,o),
(14,538,o),
(37,547,cs),
(74,561,o),
(222,550,o),
(294,560,cs)
);
},
{
closed = 1;
nodes = (
(232,639,o),
(109,522,o),
(118,504,cs),
(126,489,o),
(84,308,o),
(105,259,cs),
(114,239,o),
(235,359,o),
(227,377,cs),
(208,420,o),
(254,597,o),
(242,620,cs)
);
},
{
closed = 1;
nodes = (
(487,723,o),
(365,604,o),
(384,593,cs),
(422,572,o),
(466,363,o),
(473,260,cs),
(475,232,o),
(597,351,o),
(595,376,cs),
(588,481,o),
(546,690,o),
(502,715,cs)
);
},
{
closed = 1;
nodes = (
(285,226,o),
(381,281,o),
(398,335,cs),
(440,470,o),
(461,661,o),
(461,663,cs),
(466,698,o),
(373,619,o),
(369,587,cs),
(368,579,o),
(342,409,o),
(302,281,cs)
);
},
{
closed = 1;
nodes = (
(460,283,o),
(553,332,o),
(589,380,cs),
(648,461,o),
(705,669,o),
(706,675,cs),
(719,715,o),
(609,619,o),
(598,581,cs),
(595,573,o),
(536,386,o),
(497,334,cs)
);
},
{
closed = 1;
nodes = (
(707,713,o),
(586,591,o),
(615,591,cs),
(621,591,o),
(612,322,o),
(648,258,cs),
(659,239,o),
(779,359,o),
(770,376,cs),
(732,442,o),
(749,713,o),
(729,713,cs)
);
}
);
width = 820;
}
);
unicode = 8482;
},
{
glyphname = degree;
lastChange = "2024-02-02 07:26:09 +0000";
layers = (
{
layerId = m01;
shapes = (
{
closed = 1;
nodes = (
(210,625,o),
(220,646,o),
(220,658,cs),
(220,665,o),
(216,669,o),
(209,669,cs),
(194,669,o),
(163,648,o),
(130,607,cs),
(72,534,o),
(50,473,o),
(50,427,cs),
(50,362,o),
(93,326,o),
(143,326,cs),
(162,326,o),
(183,332,o),
(203,343,cs),
(240,364,o),
(290,452,o),
(290,483,cs),
(290,490,o),
(288,494,o),
(282,494,cs),
(279,494,o),
(274,492,o),
(269,489,cs),
(252,479,o),
(238,475,o),
(227,475,cs),
(189,475,o),
(177,518,o),
(177,553,cs),
(177,572,o),
(181,589,o),
(186,595,cs)
);
},
{
closed = 1;
nodes = (
(216,446,o),
(199,402,o),
(199,379,cs),
(199,369,o),
(202,363,o),
(209,363,cs),
(217,363,o),
(229,371,o),
(247,391,cs),
(347,500,o),
(382,579,o),
(382,631,cs),
(382,688,o),
(340,714,o),
(294,714,cs),
(266,714,o),
(237,705,o),
(214,688,cs),
(172,659,o),
(121,585,o),
(121,563,cs),
(121,558,o),
(123,556,o),
(127,556,cs),
(131,556,o),
(139,560,o),
(150,568,cs),
(169,581,o),
(184,587,o),
(197,587,cs),
(241,587,o),
(250,520,o),
(250,492,cs),
(250,486,o),
(249,482,o),
(249,481,cs)
);
}
);
width = 433;
}
);
unicode = 176;
},
{
glyphname = bar;
lastChange = "2024-02-02 07:26:09 +0000";
layers = (
{
layerId = m01;
shapes = (
{
closed = 1;
nodes = (
(249,814,o),
(101,697,o),
(94,636,cs),
(93,624,o),
(50,3,o),
(50,2,cs),
(46,-58,o),
(194,67,o),
(198,122,cs),
(199,131,o),
(240,735,o),
(242,752,cs)
);
}
);
width = 286;
}
);
unicode = 124;
},
{
glyphname = brokenbar;
lastChange = "2024-02-02 07:26:09 +0000";
layers = (
{
layerId = m01;
shapes = (
{
closed = 1;
nodes = (
(234,749,o),
(93,620,o),
(79,579,cs),
(76,571,o),
(65,351,o),
(65,350,cs),
(63,320,o),
(206,454,o),
(207,486,cs),
(208,489,o),
(220,707,o),
(221,709,cs)
);
},
{
closed = 1;
nodes = (
(219,397,o),
(78,268,o),
(64,227,cs),
(61,219,o),
(50,-1,o),
(50,-2,cs),
(48,-32,o),
(191,102,o),
(192,134,cs),
(193,137,o),
(205,355,o),
(206,357,cs)
);
}
);
width = 272;
}
);
unicode = 166;
},
{
glyphname = dagger;
lastChange = "2024-02-02 07:26:09 +0000";
layers = (
{
layerId = m01;
shapes = (
{
closed = 1;
nodes = (
(94,585,o),
(33,415,o),
(54,415,cs),
(182,416,o),
(311,416,o),
(439,416,cs),
(458,416,o),
(520,586,o),
(499,586,cs),
(371,585,o),
(242,585,o),
(114,585,cs)
);
},
{
closed = 1;
nodes = (
(369,796,o),
(226,658,o),
(222,627,cs),
(220,619,o),
(189,135,o),
(189,135,cs),
(186,105,o),
(329,239,o),
(331,271,cs),
(332,278,o),
(363,748,o),
(364,761,cs)
);
}
);
width = 554;
}
);
unicode = 8224;
},
{
glyphname = daggerdbl;
lastChange = "2024-02-02 07:26:09 +0000";
layers = (
{
layerId = m01;
shapes = (
{
closed = 1;
nodes = (
(130,657,o),
(69,487,o),
(90,487,cs),
(234,488,o),
(379,488,o),
(523,488,cs),
(542,488,o),
(604,658,o),
(583,658,cs),
(439,657,o),
(294,657,o),
(150,657,cs)
);
},
{
closed = 1;
nodes = (
(94,404,o),
(33,234,o),
(54,234,cs),
(198,235,o),
(343,235,o),
(487,235,cs),
(506,235,o),
(568,405,o),
(547,405,cs),
(403,404,o),
(258,404,o),
(114,404,cs)
);
},
{
closed = 1;
nodes = (
(429,796,o),
(286,658,o),
(282,627,cs),
(280,619,o),
(249,135,o),
(249,135,cs),
(246,105,o),
(389,239,o),
(391,271,cs),
(392,278,o),
(423,748,o),
(424,761,cs)
);
}
);
width = 637;
}
);
unicode = 8225;
},
{
glyphname = cent;
lastChange = "2024-02-02 07:40:00 +0000";
layers = (
{
layerId = m01;
shapes = (
{
closed = 1;
nodes = (
(222,498,o),
(242,537,o),
(242,556,cs),
(242,563,o),
(239,567,o),
(233,567,cs),
(223,567,o),
(207,557,o),
(182,534,cs),
(58,414,o),
(10,306,o),
(10,224,cs),
(10,127,o),
(76,67,o),
(166,67,cs),
(217,67,o),
(276,87,o),
(334,131,cs),
(378,165,o),
(426,253,o),
(426,284,cs),
(426,291,o),
(424,295,o),
(418,295,cs),
(413,295,o),
(405,291,o),
(394,283,cs),
(341,242,o),
(297,226,o),
(263,226,cs),
(187,226,o),
(152,302,o),
(152,371,cs),
(152,407,o),
(162,442,o),
(182,460,cs)
);
},
{
closed = 1;
nodes = (
(351,408,o),
(479,536,o),
(472,555,cs),
(456,606,o),
(372,678,o),
(269,604,cs),
(218,569,o),
(130,428,o),
(191,472,cs),
(254,516,o),
(327,483,o),
(344,431,cs)
);
},
{
closed = 1;
nodes = (
(108,-86,o),
(194,-48,o),
(215,5,cs),
(247,85,o),
(356,724,o),
(357,727,cs),
(366,776,o),
(275,720,o),
(267,673,cs),
(263,651,o),
(160,45,o),
(131,-29,cs)
);
}
);
width = 472;
}
);
unicode = 162;
},
{
glyphname = currency;
lastChange = "2024-02-02 08:03:51 +0000";
layers = (
{
layerId = m01;
shapes = (
{
closed = 1;
nodes = (
(279,520,o),
(289,541,o),
(289,553,cs),
(289,560,o),
(285,564,o),
(278,564,cs),
(263,564,o),
(232,543,o),
(199,502,cs),
(131,416,o),
(104,342,o),
(104,284,cs),
(104,203,o),
(156,155,o),
(220,155,cs),
(245,155,o),
(272,162,o),
(298,177,cs),
(335,198,o),
(385,286,o),
(385,317,cs),
(385,324,o),
(383,328,o),
(377,328,cs),
(374,328,o),
(369,326,o),
(364,323,cs),
(339,308,o),
(318,302,o),
(301,302,cs),
(251,302,o),
(232,353,o),
(232,404,cs),
(232,438,o),
(241,472,o),
(255,490,cs)
);
},
{
closed = 1;
nodes = (
(315,285,o),
(297,243,o),
(297,220,cs),
(297,210,o),
(301,204,o),
(308,204,cs),
(316,204,o),
(329,212,o),
(347,232,cs),
(461,358,o),
(503,453,o),
(503,518,cs),
(503,590,o),
(452,626,o),
(392,626,cs),
(359,626,o),
(322,615,o),
(291,592,cs),
(249,563,o),
(198,489,o),
(198,467,cs),
(198,462,o),
(200,460,o),
(204,460,cs),
(208,460,o),
(216,464,o),
(227,472,cs),
(253,490,o),
(275,497,o),
(293,497,cs),
(344,497,o),
(368,441,o),
(368,390,cs),
(368,362,o),
(361,335,o),
(347,320,cs)
);
},
{
closed = 1;
nodes = (
(453,65,o),
(574,185,o),
(548,217,cs),
(509,266,o),
(478,297,o),
(440,345,cs),
(416,375,o),
(272,284,o),
(298,251,cs),
(344,195,o),
(383,152,o),
(428,97,cs)
);
},
{
closed = 1;
nodes = (
(293,312,o),
(250,364,o),
(171,285,cs),
(159,273,o),
(73,162,o),
(73,162,cs),
(5,74,o),
(87,66,o),
(153,152,cs),
(157,158,o),
(213,231,o),
(213,231,cs)
);
},
{
closed = 1;
nodes = (
(608,704,o),
(565,756,o),
(486,677,cs),
(474,665,o),
(388,554,o),
(388,554,cs),
(320,466,o),
(402,458,o),
(468,544,cs),
(472,550,o),
(528,623,o),
(528,623,cs)
);
},
{
closed = 1;
nodes = (
(178,408,o),
(298,529,o),
(282,548,cs),
(241,600,o),
(196,660,o),
(154,711,cs),
(129,742,o),
(7,624,o),
(34,591,cs),
(76,538,o),
(119,480,o),
(162,428,cs)
);
}
);
width = 621;
}
);
unicode = 164;
},
{
glyphname = dollar;
lastChange = "2024-02-02 07:26:09 +0000";
layers = (
{
layerId = m01;
shapes = (
{
closed = 1;
nodes = (
(55.284,270.377,o),
(-10.649,106.354,o),
(2.392,80.271,cs),
(29.306,26.443,o),
(173.297,-108.167,o),
(309.801,85.942,cs),
(483.27,332.617,o),
(384.699,351.643,o),
(280.105,420.065,cs),
(121.301,523.948,o),
(152.392,552.73,o),
(156.092,557.939,cs),
(172.427,580.932,o),
(308.616,560.411,o),
(359.555,447.212,cs),
(370.864,422.081,o),
(433.961,591.642,o),
(424.445,612.788,cs),
(403.384,659.589,o),
(263.243,805.302,o),
(135.908,626.061,cs),
(-21.21,404.898,o),
(51.637,358.137,o),
(155.895,289.935,cs),
(316.349,184.973,o),
(303.449,173.743,o),
(288.199,152.058,cs),
(266.672,121.447,o),
(117.2,146.545,o),
(67.608,245.729,cs)
);
},
{
closed = 1;
nodes = (
(65.415,-109.02,o),
(150.125,-73.53,o),
(173.381,-20.476,cs),
(212.664,69.139,o),
(343.245,786.308,o),
(343.748,789.012,cs),
(353.088,839.209,o),
(263.032,784.169,o),
(254.252,736.988,cs),
(249.5,711.449,o),
(126.862,31.155,o),
(90.619,-51.524,cs)
);
}
);
width = 455;
}
);
unicode = 36;
},
{
glyphname = euro;
lastChange = "2024-02-02 07:26:09 +0000";
layers = (
{
layerId = m01;
shapes = (
{
closed = 1;
nodes = (
(376,579,o),
(383,596,o),
(383,606,cs),
(383,613,o),
(380,616,o),
(374,616,cs),
(356,616,o),
(318,589,o),
(285,543,cs),
(193,416,o),
(155,292,o),
(155,193,cs),
(155,67,o),
(217,-19,o),
(311,-19,cs),
(360,-19,o),
(417,4,o),
(478,56,cs),
(523,95,o),
(565,175,o),
(565,205,cs),
(565,212,o),
(562,216,o),
(557,216,cs),
(551,216,o),
(541,211,o),
(528,200,cs),
(483,162,o),
(443,145,o),
(408,145,cs),
(331,145,o),
(284,228,o),
(284,331,cs),
(284,402,o),
(307,483,o),
(357,553,cs)
);
},
{
closed = 1;
nodes = (
(491,484,o),
(618,611,o),
(608,628,cs),
(586,664,o),
(536,778,o),
(400,662,cs),
(341,612,o),
(269,483,o),
(338,542,cs),
(406,599,o),
(451,549,o),
(480,502,cs)
);
},
{
closed = 1;
nodes = (
(84,451,o),
(33,371,o),
(78,374,cs),
(136,377,o),
(471,376,o),
(492,376,cs),
(530,377,o),
(582,456,o),
(538,456,cs),
(538,456,o),
(163,455,o),
(122,452,cs)
);
},
{
closed = 1;
nodes = (
(44,312,o),
(-7,232,o),
(38,235,cs),
(96,238,o),
(431,237,o),
(452,237,cs),
(490,238,o),
(542,317,o),
(498,317,cs),
(498,317,o),
(123,316,o),
(82,313,cs)
);
}
);
width = 659;
}
);
unicode = 8364;
},
{
glyphname = hryvnia;
lastChange = "2024-02-02 07:26:09 +0000";
layers = (
{
layerId = m01;
shapes = (
{
closed = 1;
nodes = (
(349,275,o),
(359,290,o),
(359,301,cs),
(359,311,o),
(350,317,o),
(334,317,cs),
(314,317,o),
(284,307,o),
(252,283,cs),
(131,196,o),
(88,123,o),
(88,71,cs),
(88,13,o),
(143,-20,o),
(204,-20,cs),
(241,-20,o),
(280,-8,o),
(309,18,cs),
(350,55,o),
(389,128,o),
(389,154,cs),
(389,160,o),
(387,164,o),
(382,164,cs),
(376,164,o),
(368,159,o),
(355,148,cs),
(335,130,o),
(305,121,o),
(281,121,cs),
(255,121,o),
(234,131,o),
(234,152,cs),
(234,174,o),
(258,208,o),
(324,257,cs)
);
},
{
closed = 1;
nodes = (
(111,449,o),
(60,370,o),
(105,373,cs),
(160,376,o),
(469,375,o),
(489,375,cs),
(527,376,o),
(579,455,o),
(535,455,cs),
(535,455,o),
(188,454,o),
(149,451,cs)
);
},
{
closed = 1;
nodes = (
(74,312,o),
(23,233,o),
(68,236,cs),
(122,239,o),
(432,238,o),
(452,238,cs),
(490,239,o),
(542,318,o),
(498,318,cs),
(498,318,o),
(150,317,o),
(112,314,cs)
);
},
{
closed = 1;
nodes = (
(269,419,o),
(259,404,o),
(259,393,cs),
(259,384,o),
(268,378,o),
(284,378,cs),
(304,378,o),
(334,388,o),
(366,411,cs),
(487,499,o),
(531,571,o),
(531,624,cs),
(531,682,o),
(476,715,o),
(415,715,cs),
(378,715,o),
(339,702,o),
(309,676,cs),
(268,640,o),
(229,567,o),
(229,540,cs),
(229,534,o),
(231,530,o),
(236,530,cs),
(241,530,o),
(250,535,o),
(263,546,cs),
(284,564,o),
(314,574,o),
(339,574,cs),
(365,574,o),
(385,564,o),
(385,543,cs),
(385,521,o),
(361,486,o),
(294,437,cs)
);
}
);
width = 602;
}
);
unicode = 8372;
},
{
glyphname = ruble;
lastChange = "2024-02-02 07:26:09 +0000";
layers = (
{
layerId = m01;
shapes = (
{
closed = 1;
nodes = (
(294,577,o),
(176,517,o),
(144,458,cs),
(95,371,o),
(98,16,o),
(98,11,cs),
(97,-33,o),
(223,59,o),
(224,99,cs),
(224,113,o),
(230,463,o),
(258,514,cs)
);
},
{
closed = 1;
nodes = (
(22,192,o),
(-27,113,o),
(19,117,cs),
(46,119,o),
(270,119,o),
(278,119,cs),
(316,120,o),
(368,199,o),
(324,199,cs),
(324,199,o),
(89,198,o),
(61,195,cs)
);
},
{
closed = 1;
nodes = (
(74,321,o),
(41,279,o),
(41,258,cs),
(41,249,o),
(47,243,o),
(60,245,cs),
(65,245,o),
(83,245,o),
(107,245,cs),
(173,245,o),
(281,244,o),
(283,244,cs),
(284,244,o),
(300,244,o),
(318,262,cs),
(441,386,o),
(487,500,o),
(487,583,cs),
(487,663,o),
(443,714,o),
(382,714,cs),
(306,714,o),
(205,635,o),
(134,437,cs),
(126,416,o),
(123,397,o),
(123,382,cs),
(123,353,o),
(134,337,o),
(150,337,cs),
(168,337,o),
(191,358,o),
(208,405,cs),
(247,512,o),
(296,554,o),
(332,554,cs),
(360,554,o),
(380,528,o),
(380,489,cs),
(380,443,o),
(354,378,o),
(284,312,c),
(296,318,o),
(307,324,o),
(319,330,c),
(309,330,o),
(134,327,o),
(102,323,cs)
);
}
);
width = 488;
}
);
unicode = 8381;
},
{
glyphname = rupeeIndian;
lastChange = "2024-02-02 07:26:09 +0000";
layers = (
{
layerId = m01;
shapes = (
{
closed = 1;
nodes = (
(72,371,o),
(22,287,o),
(105,311,cs),
(206,341,o),
(309,291,o),
(206,41,cs),
(167,-54,o),
(318,34,o),
(352,117,cs),
(473,409,o),
(356,453,o),
(147,393,cs)
);
},
{
closed = 1;
nodes = (
(14,305,o),
(92,284,o),
(170,343,cs),
(569,648,o),
(246,802,o),
(78,661,cs),
(33,623,o),
(61,582,o),
(108,621,cs),
(160,666,o),
(385,590,o),
(92,365,cs)
);
},
{
closed = 1;
nodes = (
(179,711,o),
(130,631,o),
(176,636,cs),
(200,638,o),
(393,638,o),
(400,638,cs),
(438,639,o),
(490,718,o),
(446,718,cs),
(446,718,o),
(243,717,o),
(218,714,cs)
);
},
{
closed = 1;
nodes = (
(38,543,o),
(-12,464,o),
(33,467,cs),
(78,470,o),
(343,469,o),
(360,469,cs),
(398,470,o),
(450,549,o),
(406,549,cs),
(406,549,o),
(110,548,o),
(77,545,cs)
);
}
);
width = 463;
}
);
unicode = 8377;
},
{
glyphname = sheqel;
lastChange = "2024-02-02 07:26:09 +0000";
layers = (
{
layerId = m01;
shapes = (
{
closed = 1;
nodes = (
(242,853,o),
(112,766,o),
(98,699,cs),
(89,660,o),
(0,9,o),
(0,7,cs),
(-9,-61,o),
(121,32,o),
(130,97,cs),
(134,126,o),
(215,732,o),
(226,781,cs)
);
},
{
closed = 1;
nodes = (
(165,809,o),
(50,668,o),
(118,669,cs),
(191,669,o),
(263,671,o),
(337,672,cs),
(394,672,o),
(441,650,o),
(432,596,cs),
(409,462,o),
(392,329,o),
(370,196,cs),
(363,158,o),
(496,282,o),
(502,318,cs),
(523,442,o),
(547,567,o),
(568,690,cs),
(578,750,o),
(522,811,o),
(445,810,cs),
(371,809,o),
(295,810,o),
(220,809,cs)
);
},
{
closed = 1;
nodes = (
(500,-61,o),
(630,32,o),
(644,95,cs),
(653,134,o),
(742,785,o),
(742,787,cs),
(751,855,o),
(620,759,o),
(612,697,cs),
(608,668,o),
(527,62,o),
(516,13,cs)
);
},
{
closed = 1;
nodes = (
(577,-15,o),
(691,126,o),
(624,125,cs),
(551,125,o),
(479,123,o),
(405,122,cs),
(348,122,o),
(301,144,o),
(310,198,cs),
(333,332,o),
(350,465,o),
(372,598,cs),
(379,638,o),
(245,509,o),
(240,476,cs),
(219,352,o),
(195,227,o),
(174,104,cs),
(164,44,o),
(220,-17,o),
(297,-16,cs),
(371,-15,o),
(447,-16,o),
(522,-15,cs)
);
}
);
width = 742;
}
);
unicode = 8362;
},
{
glyphname = sterling;
lastChange = "2024-02-02 07:39:36 +0000";
layers = (
{
layerId = m01;
shapes = (
{
closed = 1;
nodes = (
(368,664,o),
(331,688,o),
(280,642,cs),
(144,522,o),
(157,444,o),
(140,308,cs),
(130,225,o),
(105,141,o),
(95,129,cs),
(56,84,o),
(121,90,o),
(157,131,cs),
(211,193,o),
(212,265,o),
(224,356,cs),
(241,494,o),
(250,560,o),
(318,620,cs)
);
},
{
closed = 1;
nodes = (
(38,393,o),
(-12,314,o),
(33,317,cs),
(78,320,o),
(330,319,o),
(347,319,cs),
(385,320,o),
(437,399,o),
(393,399,cs),
(393,399,o),
(110,398,o),
(77,395,cs)
);
},
{
closed = 1;
nodes = (
(101,179,o),
(28,1,o),
(65,-1,cs),
(85,-2,o),
(269,-1,o),
(390,0,cs),
(424,0,o),
(485,170,o),
(446,170,cs),
(329,169,o),
(151,176,o),
(135,177,cs)
);
},
{
closed = 1;
nodes = (
(390,486,o),
(517,613,o),
(507,630,cs),
(485,666,o),
(435,780,o),
(299,664,cs),
(240,614,o),
(168,485,o),
(237,544,cs),
(305,601,o),
(350,551,o),
(379,504,cs)
);
}
);
width = 538;
}
);
unicode = 163;
},
{
glyphname = won;
lastChange = "2024-02-02 07:26:09 +0000";
layers = (
{
layerId = m01;
shapes = (
{
closed = 1;
nodes = (
(423,-17,o),
(543,103,o),
(534,120,cs),
(471,233,o),
(505,660,o),
(451,712,cs),
(438,725,o),
(316,606,o),
(331,592,cs),
(379,546,o),
(347,119,o),
(412,2,cs)
);
},
{
closed = 1;
nodes = (
(775,750,o),
(657,679,o),
(635,626,cs),
(507,315,o),
(457,46,o),
(456,40,cs),
(449,8,o),
(559,124,o),
(566,158,cs),
(569,168,o),
(626,387,o),
(751,690,cs)
);
},
{
closed = 1;
nodes = (
(186,-17,o),
(306,103,o),
(297,120,cs),
(234,233,o),
(266,660,o),
(213,712,cs),
(200,725,o),
(78,606,o),
(93,592,cs),
(140,546,o),
(110,119,o),
(175,2,cs)
);
},
{
closed = 1;
nodes = (
(479,640,o),
(383,612,o),
(375,589,cs),
(309,416,o),
(221,52,o),
(218,39,cs),
(208,4,o),
(316,119,o),
(324,151,cs),
(327,161,o),
(407,453,o),
(469,615,cs)
);
},
{
closed = 1;
nodes = (
(74,442,o),
(23,363,o),
(67,364,cs),
(154,367,o),
(639,367,o),
(670,367,cs),
(708,368,o),
(760,447,o),
(716,447,cs),
(716,447,o),
(172,446,o),
(113,444,cs)
);
}
);
width = 754;
}
);
unicode = 8361;
},
{
glyphname = yen;
lastChange = "2024-02-02 07:40:56 +0000";
layers = (
{
layerId = m01;
shapes = (
{
closed = 1;
nodes = (
(632,748,o),
(522,715,o),
(473,631,cs),
(453,596,o),
(174,44,o),
(174,43,cs),
(131,-41,o),
(252,12,o),
(290,89,cs),
(303,113,o),
(560,624,o),
(583,663,cs)
);
},
{
closed = 1;
nodes = (
(324,347,o),
(441,476,o),
(397,458,cs),
(318,427,o),
(262,738,o),
(175,713,cs),
(143,704,o),
(20,574,o),
(59,585,cs),
(132,606,o),
(184,291,o),
(285,332,cs)
);
},
{
closed = 1;
nodes = (
(84,451,o),
(33,371,o),
(78,374,cs),
(136,377,o),
(471,376,o),
(492,376,cs),
(530,377,o),
(582,456,o),
(538,456,cs),
(538,456,o),
(163,455,o),
(122,452,cs)
);
},
{
closed = 1;
nodes = (
(44,312,o),
(-7,232,o),
(38,235,cs),
(96,238,o),
(431,237,o),
(452,237,cs),
(490,238,o),
(542,317,o),
(498,317,cs),
(498,317,o),
(123,316,o),
(82,313,cs)
);
}
);
width = 544;
}
);
metricLeft = y;
metricRight = y;
unicode = 165;
},
{
glyphname = plus;
lastChange = "2024-02-02 07:32:47 +0000";
layers = (
{
layerId = m01;
shapes = (
{
closed = 1;
nodes = (
(64,356,o),
(3,186,o),
(24,186,cs),
(168,187,o),
(313,187,o),
(457,187,cs),
(476,187,o),
(538,357,o),
(517,357,cs),
(373,356,o),
(228,356,o),
(84,356,cs)
);
},
{
closed = 1;
nodes = (
(363,574,o),
(220,438,o),
(213,403,cs),
(211,396,o),
(186,6,o),
(186,5,cs),
(183,-25,o),
(326,109,o),
(328,141,cs),
(329,147,o),
(353,527,o),
(355,537,cs)
);
}
);
width = 571;
}
);
unicode = 43;
},
{
glyphname = minus;
lastChange = "2024-02-02 07:26:09 +0000";
layers = (
{
layerId = m01;
shapes = (
{
closed = 1;
nodes = (
(44,353,o),
(-17,183,o),
(4,183,cs),
(148,184,o),
(293,184,o),
(437,184,cs),
(456,184,o),
(518,354,o),
(497,354,cs),
(353,353,o),
(208,353,o),
(64,353,cs)
);
}
);
width = 501;
}
);
unicode = 8722;
},
{
glyphname = multiply;
lastChange = "2024-02-02 07:59:05 +0000";
layers = (
{
layerId = m01;
shapes = (
{
closed = 1;
nodes = (
(543,520,o),
(481,551,o),
(408,470,cs),
(376,435,o),
(62,40,o),
(61,38,cs),
(-8,-47,o),
(67,-64,o),
(137,24,cs),
(147,36,o),
(453,419,o),
(466,434,cs)
);
},
{
closed = 1;
nodes = (
(397,-59,o),
(539,34,o),
(514,66,cs),
(397,214,o),
(281,362,o),
(165,510,cs),
(141,540,o),
(-3,449,o),
(23,416,cs),
(140,268,o),
(256,120,o),
(372,-28,cs)
);
}
);
width = 567;
}
);
unicode = 215;
},
{
glyphname = divide;
lastChange = "2024-02-02 07:26:09 +0000";
layers = (
{
layerId = m01;
shapes = (
{
closed = 1;
nodes = (
(44,353,o),
(-17,183,o),
(4,183,cs),
(148,184,o),
(293,184,o),
(437,184,cs),
(456,184,o),
(518,354,o),
(497,354,cs),
(353,353,o),
(208,353,o),
(64,353,cs)
);
}
);
width = 501;
}
);
unicode = 247;
},
{
glyphname = equal;
lastChange = "2024-02-02 07:26:09 +0000";
layers = (
{
layerId = m01;
shapes = (
{
closed = 1;
nodes = (
(100,462,o),
(39,292,o),
(60,292,cs),
(204,293,o),
(349,293,o),
(493,293,cs),
(512,293,o),
(574,463,o),
(553,463,cs),
(409,462,o),
(264,462,o),
(120,462,cs)
);
},
{
closed = 1;
nodes = (
(64,209,o),
(3,39,o),
(24,39,cs),
(168,40,o),
(313,40,o),
(457,40,cs),
(476,40,o),
(538,210,o),
(517,210,cs),
(373,209,o),
(228,209,o),
(84,209,cs)
);
}
);
width = 607;
}
);
unicode = 61;
},
{
glyphname = notequal;
lastChange = "2024-02-02 08:00:07 +0000";
layers = (
{
layerId = m01;
shapes = (
{
pos = (0,13);
ref = equal;
},
{
closed = 1;
nodes = (
(532,587,o),
(446,589,o),
(382,499,cs),
(352,457,o),
(92,20,o),
(90,16,cs),
(38,-72,o),
(143,-45,o),
(194,40,cs),
(204,57,o),
(459,485,o),
(470,501,cs)
);
}
);
width = 607;
}
);
unicode = 8800;
},
{
glyphname = greater;
lastChange = "2024-02-02 07:26:09 +0000";
layers = (
{
layerId = m01;
shapes = (
{
closed = 1;
nodes = (
(46,23,o),
(93,-20,o),
(177,40,cs),
(271,107,o),
(365,174,o),
(459,241,cs),
(541,299,o),
(497,345,o),
(411,283,cs),
(317,216,o),
(223,149,o),
(129,82,cs)
);
},
{
closed = 1;
nodes = (
(394,190,o),
(535,285,o),
(498,311,cs),
(404,378,o),
(310,445,o),
(216,511,cs),
(185,534,o),
(43,439,o),
(80,413,cs),
(174,346,o),
(268,279,o),
(362,213,cs)
);
}
);
width = 579;
}
);
unicode = 62;
},
{
glyphname = less;
lastChange = "2024-02-02 07:26:09 +0000";
layers = (
{
layerId = m01;
shapes = (
{
closed = 1;
nodes = (
(533,500,o),
(489,545,o),
(403,484,cs),
(309,417,o),
(215,350,o),
(120,283,cs),
(37,224,o),
(83,181,o),
(168,241,cs),
(262,308,o),
(356,375,o),
(451,442,cs)
);
},
{
closed = 1;
nodes = (
(185,334,o),
(43,239,o),
(81,213,cs),
(175,146,o),
(269,79,o),
(364,13,cs),
(396,-10,o),
(537,85,o),
(500,111,cs),
(406,178,o),
(312,245,o),
(217,311,cs)
);
}
);
width = 580;
}
);
unicode = 60;
},
{
glyphname = greaterequal;
lastChange = "2024-02-02 07:26:09 +0000";
layers = (
{
layerId = m01;
shapes = (
{
closed = 1;
nodes = (
(126,236,o),
(113,161,o),
(209,201,cs),
(288,234,o),
(367,268,o),
(446,301,cs),
(535,338,o),
(548,413,o),
(452,373,cs),
(373,340,o),
(294,306,o),
(215,273,cs)
);
},
{
closed = 1;
nodes = (
(470,288,o),
(584,415,o),
(544,433,cs),
(456,474,o),
(368,514,o),
(280,555,cs),
(243,572,o),
(88,466,o),
(134,445,cs),
(234,398,o),
(334,352,o),
(434,305,cs)
);
},
{
closed = 1;
nodes = (
(113,134,o),
(58,-20,o),
(79,-20,cs),
(203,-20,o),
(328,-20,o),
(452,-19,cs),
(472,-19,o),
(528,135,o),
(506,135,cs),
(382,135,o),
(257,135,o),
(133,134,cs)
);
}
);
width = 627;
}
);
unicode = 8805;
},
{
glyphname = lessequal;
lastChange = "2024-02-02 07:26:09 +0000";
layers = (
{
layerId = m01;
shapes = (
{
closed = 1;
nodes = (
(113,119,o),
(58,-35,o),
(79,-35,cs),
(203,-35,o),
(328,-35,o),
(452,-34,cs),
(472,-34,o),
(528,120,o),
(506,120,cs),
(382,120,o),
(257,120,o),
(133,119,cs)
);
},
{
closed = 1;
nodes = (
(561,502,o),
(582,584,o),
(490,541,cs),
(396,498,o),
(301,454,o),
(207,410,cs),
(122,371,o),
(101,289,o),
(193,332,cs),
(287,375,o),
(382,419,o),
(476,463,cs)
);
},
{
closed = 1;
nodes = (
(238,443,o),
(90,337,o),
(135,316,cs),
(229,272,o),
(323,229,o),
(418,185,cs),
(457,167,o),
(603,274,o),
(558,295,cs),
(464,339,o),
(370,382,o),
(275,426,cs)
);
}
);
width = 642;
}
);
unicode = 8804;
},
{
glyphname = plusminus;
lastChange = "2024-02-02 08:00:24 +0000";
layers = (
{
layerId = m01;
shapes = (
{
closed = 1;
nodes = (
(59,119,o),
(4,-35,o),
(25,-35,cs),
(149,-35,o),
(274,-35,o),
(398,-34,cs),
(418,-34,o),
(474,120,o),
(452,120,cs),
(328,120,o),
(203,120,o),
(79,119,cs)
);
},
{
closed = 1;
nodes = (
(66,454,o),
(5,284,o),
(26,284,cs),
(170,285,o),
(315,285,o),
(459,285,cs),
(478,285,o),
(540,455,o),
(519,455,cs),
(375,454,o),
(230,454,o),
(86,454,cs)
);
},
{
closed = 1;
nodes = (
(362,618,o),
(219,482,o),
(212,447,cs),
(210,440,o),
(191,158,o),
(191,157,cs),
(188,127,o),
(331,261,o),
(333,293,cs),
(334,297,o),
(353,573,o),
(354,581,cs)
);
}
);
width = 573;
}
);
unicode = 177;
},
{
glyphname = asciitilde;
lastChange = "2024-02-02 08:02:07 +0000";
layers = (
{
layerId = m01;
shapes = (
{
closed = 1;
nodes = (
(533,266,o),
(582,436,o),
(536,406,cs),
(399,319,o),
(389,362,o),
(341,397,cs),
(275,446,o),
(224,477,o),
(89,388,cs),
(52,364,o),
(2,193,o),
(49,224,cs),
(182,311,o),
(207,280,o),
(275,231,cs),
(312,204,o),
(349,149,o),
(494,242,cs)
);
}
);
width = 605;
}
);
unicode = 126;
},
{
glyphname = logicalnot;
lastChange = "2024-02-02 07:26:09 +0000";
layers = (
{
layerId = m01;
shapes = (
{
closed = 1;
nodes = (
(94,423,o),
(33,253,o),
(54,253,cs),
(197,254,o),
(341,254,o),
(484,254,cs),
(503,254,o),
(565,424,o),
(544,424,cs),
(401,423,o),
(257,423,o),
(114,423,cs)
);
},
{
closed = 1;
nodes = (
(557,443,o),
(414,308,o),
(405,272,cs),
(403,265,o),
(387,9,o),
(387,8,cs),
(385,-22,o),
(527,112,o),
(529,144,cs),
(530,148,o),
(546,398,o),
(547,404,cs)
);
}
);
width = 598;
}
);
unicode = 172;
},
{
glyphname = asciicircum;
lastChange = "2024-02-02 08:02:20 +0000";
layers = (
{
layerId = m01;
shapes = (
{
closed = 1;
nodes = (
(405,290,o),
(540,373,o),
(520,409,cs),
(468,504,o),
(416,599,o),
(363,693,cs),
(344,728,o),
(209,644,o),
(229,609,cs),
(281,514,o),
(333,419,o),
(386,325,cs)
);
},
{
closed = 1;
nodes = (
(393,738,o),
(254,688,o),
(220,627,cs),
(165,531,o),
(111,434,o),
(56,338,cs),
(18,272,o),
(159,327,o),
(192,384,cs),
(247,480,o),
(301,577,o),
(356,673,cs)
);
}
);
width = 572;
}
);
unicode = 94;
},
{
glyphname = infinity;
lastChange = "2024-02-02 08:02:20 +0000";
layers = (
{
layerId = m01;
shapes = (
{
closed = 1;
nodes = (
(199,421,o),
(205,438,o),
(195,438,cs),
(185,438,o),
(154,418,o),
(120,380,cs),
(71,328,o),
(50,279,o),
(50,239,cs),
(50,181,o),
(94,143,o),
(160,143,cs),
(202,143,o),
(253,158,o),
(308,194,cs),
(355,224,o),
(407,299,o),
(407,324,cs),
(407,330,o),
(404,333,o),
(399,333,cs),
(394,333,o),
(386,330,o),
(374,322,cs),
(332,295,o),
(297,285,o),
(269,285,cs),
(185,285,o),
(158,377,o),
(164,384,cs)
);
},
{
closed = 1;
nodes = (
(224,483,o),
(102,353,o),
(140,369,cs),
(156,375,o),
(171,378,o),
(187,378,cs),
(253,378,o),
(312,325,o),
(365,274,cs),
(372,267,o),
(494,389,o),
(487,396,cs),
(434,446,o),
(380,506,o),
(309,506,cs),
(292,506,o),
(274,503,o),
(256,495,cs)
);
},
{
closed = 1;
nodes = (
(679,218,o),
(675,206,o),
(683,206,cs),
(696,206,o),
(736,235,o),
(772,278,cs),
(806,319,o),
(823,365,o),
(823,405,cs),
(823,461,o),
(789,505,o),
(721,505,cs),
(658,505,o),
(565,468,o),
(444,367,cs),
(404,334,o),
(385,307,o),
(385,293,cs),
(385,287,o),
(389,284,o),
(396,284,cs),
(409,284,o),
(436,297,o),
(472,327,cs),
(506,355,o),
(543,366,o),
(578,366,cs),
(652,366,o),
(715,319,o),
(715,276,cs),
(715,266,o),
(711,257,o),
(704,248,cs)
);
},
{
closed = 1;
nodes = (
(650,145,o),
(771,274,o),
(732,259,cs),
(716,254,o),
(702,251,o),
(688,251,cs),
(611,251,o),
(552,330,o),
(488,396,cs),
(481,403,o),
(359,281,o),
(366,274,cs),
(430,208,o),
(482,123,o),
(566,123,cs),
(581,123,o),
(598,126,o),
(616,133,cs)
);
}
);
width = 873;
}
);
unicode = 8734;
},
{
glyphname = integral;
lastChange = "2024-02-02 07:26:09 +0000";
layers = (
{
layerId = m01;
shapes = (
{
closed = 1;
nodes = (
(382,421,o),
(245,315,o),
(239,256,cs),
(231,183,o),
(227,110,o),
(220,40,cs),
(219,32,o),
(198,-3,o),
(132,-4,cs),
(112,-5,o),
(92,-5,o),
(72,-5,cs),
(14,-6,o),
(-98,-148,o),
(-28,-147,cs),
(-8,-146,o),
(12,-146,o),
(32,-146,cs),
(130,-144,o),
(341,56,o),
(352,162,cs),
(359,228,o),
(369,292,o),
(375,356,cs)
);
},
{
closed = 1;
nodes = (
(232,196,o),
(369,298,o),
(375,360,cs),
(383,433,o),
(387,506,o),
(394,576,cs),
(395,584,o),
(416,619,o),
(482,620,cs),
(502,621,o),
(522,621,o),
(542,621,cs),
(603,622,o),
(712,764,o),
(642,763,cs),
(622,762,o),
(602,762,o),
(582,762,cs),
(484,760,o),
(273,560,o),
(262,454,cs),
(255,388,o),
(245,324,o),
(239,260,cs)
);
}
);
width = 585;
}
);
unicode = 8747;
},
{
glyphname = product;
lastChange = "2024-02-02 07:26:09 +0000";
layers = (
{
layerId = m01;
shapes = (
{
closed = 1;
nodes = (
(253,759,o),
(122,669,o),
(111,603,cs),
(104,569,o),
(51,5,o),
(51,4,cs),
(44,-62,o),
(175,34,o),
(181,96,cs),
(183,122,o),
(232,646,o),
(240,689,cs)
);
},
{
closed = 1;
nodes = (
(44,717,o),
(-17,547,o),
(4,547,cs),
(180,548,o),
(355,548,o),
(531,548,cs),
(550,548,o),
(612,718,o),
(591,718,cs),
(415,717,o),
(240,717,o),
(64,717,cs)
);
},
{
closed = 1;
nodes = (
(470,759,o),
(339,669,o),
(328,603,cs),
(321,569,o),
(269,5,o),
(269,4,cs),
(262,-62,o),
(393,34,o),
(399,96,cs),
(401,122,o),
(449,646,o),
(457,689,cs)
);
}
);
width = 600;
}
);
unicode = 8719;
},
{
glyphname = summation;
lastChange = "2024-02-02 07:41:46 +0000";
layers = (
{
layerId = m01;
shapes = (
{
closed = 1;
nodes = (
(54,163,o),
(-5,-7,o),
(32,-7,cs),
(57,-7,o),
(326,-9,o),
(355,-9,cs),
(375,-9,o),
(436,161,o),
(415,161,cs),
(386,161,o),
(115,163,o),
(88,163,cs)
);
},
{
closed = 1;
nodes = (
(435,549,o),
(496,719,o),
(475,719,cs),
(452,719,o),
(167,715,o),
(161,718,cs),
(143,730,o),
(94,559,o),
(97,552,cs),
(100,544,o),
(205,309,o),
(221,278,cs),
(231,258,o),
(315,374,o),
(305,394,cs),
(288,428,o),
(168,703,o),
(163,716,c),
(142,661,o),
(120,605,o),
(99,550,c),
(109,543,o),
(392,549,o),
(415,549,cs)
);
},
{
closed = 1;
nodes = (
(336,423,o),
(238,415,o),
(198,357,cs),
(177,327,o),
(47,121,o),
(34,81,cs),
(17,27,o),
(129,64,o),
(146,117,cs),
(149,128,o),
(279,340,o),
(296,365,cs)
);
}
);
width = 509;
}
);
unicode = 8721;
},
{
glyphname = radical;
lastChange = "2024-02-02 07:45:14 +0000";
layers = (
{
layerId = m01;
shapes = (
{
closed = 1;
nodes = (
(103,395,o),
(32,235,o),
(54,196,cs),
(63,181,o),
(215,-75,o),
(231,-83,cs),
(249,-92,o),
(311,77,o),
(293,85,cs),
(285,89,o),
(131,347,o),
(126,356,cs)
);
},
{
closed = 1;
nodes = (
(664,540,o),
(725,710,o),
(704,710,cs),
(687,710,o),
(472,706,o),
(468,709,cs),
(453,722,o),
(389,555,o),
(406,541,cs),
(414,534,o),
(627,540,o),
(644,540,cs)
);
},
{
closed = 1;
nodes = (
(542,649,o),
(435,625,o),
(407,570,cs),
(396,549,o),
(232,-32,o),
(224,-59,cs),
(208,-114,o),
(322,-70,o),
(336,-21,cs),
(347,15,o),
(509,583,o),
(513,592,cs)
);
}
);
width = 658;
}
);
unicode = 8730;
},
{
glyphname = partialdiff;
lastChange = "2024-02-02 08:02:34 +0000";
layers = (
{
layerId = m01;
shapes = (
{
closed = 1;
nodes = (
(51,71,o),
(54,67,o),
(59,67,cs),
(81,67,o),
(141,147,o),
(141,186,cs),
(141,246,o),
(213,300,o),
(269,300,cs),
(304,300,o),
(332,279,o),
(332,224,cs),
(332,218,o),
(332,211,o),
(331,205,cs),
(329,189,o),
(332,183,o),
(338,183,cs),
(357,183,o),
(404,252,o),
(409,299,cs),
(410,307,o),
(410,314,o),
(410,321,cs),
(410,402,o),
(359,444,o),
(296,444,cs),
(191,444,o),
(51,328,o),
(51,80,cs)
);
},
{
closed = 1;
nodes = (
(387,660,o),
(373,670,o),
(362,670,cs),
(350,670,o),
(340,656,o),
(340,636,cs),
(340,623,o),
(343,608,o),
(352,591,cs),
(377,542,o),
(387,487,o),
(387,434,cs),
(387,279,o),
(298,132,o),
(215,132,cs),
(184,132,o),
(154,153,o),
(130,201,cs),
(128,205,o),
(125,206,o),
(122,206,cs),
(100,206,o),
(50,120,o),
(50,81,cs),
(50,76,o),
(51,72,o),
(52,69,cs),
(81,12,o),
(123,-13,o),
(169,-13,cs),
(295,-13,o),
(454,176,o),
(454,406,cs),
(454,480,o),
(438,559,o),
(398,637,cs)
);
}
);
width = 504;
}
);
unicode = 8706;
},
{
glyphname = percent;
lastChange = "2024-02-02 07:26:09 +0000";
layers = (
{
layerId = m01;
shapes = (
{
closed = 1;
nodes = (
(589,677,o),
(597,695,o),
(597,707,cs),
(597,718,o),
(589,724,o),
(578,724,cs),
(557,724,o),
(522,705,o),
(491,664,cs),
(447,607,o),
(116,48,o),
(112,42,cs),
(102,25,o),
(98,12,o),
(98,4,cs),
(98,-7,o),
(104,-12,o),
(115,-12,cs),
(140,-12,o),
(187,18,o),
(216,66,cs),
(229,88,o),
(556,634,o),
(571,654,cs)
);
},
{
closed = 1;
nodes = (
(210,646,o),
(220,667,o),
(220,679,cs),
(220,686,o),
(216,690,o),
(209,690,cs),
(194,690,o),
(163,669,o),
(130,628,cs),
(72,555,o),
(50,494,o),
(50,448,cs),
(50,383,o),
(93,347,o),
(143,347,cs),
(162,347,o),
(183,353,o),
(203,364,cs),
(240,385,o),
(290,473,o),
(290,504,cs),
(290,511,o),
(288,515,o),
(282,515,cs),
(279,515,o),
(274,513,o),
(269,510,cs),
(252,500,o),
(238,496,o),
(227,496,cs),
(189,496,o),
(177,539,o),
(177,574,cs),
(177,593,o),
(181,610,o),
(186,616,cs)
);
},
{
closed = 1;
nodes = (
(216,467,o),
(199,423,o),
(199,400,cs),
(199,390,o),
(202,384,o),
(209,384,cs),
(217,384,o),
(229,392,o),
(247,412,cs),
(347,521,o),
(382,600,o),
(382,652,cs),
(382,709,o),
(340,735,o),
(294,735,cs),
(266,735,o),
(237,726,o),
(214,709,cs),
(172,680,o),
(121,606,o),
(121,584,cs),
(121,579,o),
(123,577,o),
(127,577,cs),
(131,577,o),
(139,581,o),
(150,589,cs),
(169,602,o),
(184,608,o),
(197,608,cs),
(241,608,o),
(250,541,o),
(250,513,cs),
(250,507,o),
(249,503,o),
(249,502,cs)
);
},
{
closed = 1;
nodes = (
(496,295,o),
(506,316,o),
(506,328,cs),
(506,335,o),
(502,339,o),
(495,339,cs),
(480,339,o),
(449,318,o),
(416,277,cs),
(358,204,o),
(336,143,o),
(336,97,cs),
(336,32,o),
(379,-4,o),
(429,-4,cs),
(448,-4,o),
(469,2,o),
(489,13,cs),
(526,34,o),
(576,122,o),
(576,153,cs),
(576,160,o),
(574,164,o),
(568,164,cs),
(565,164,o),
(560,162,o),
(555,159,cs),
(538,149,o),
(524,145,o),
(513,145,cs),
(475,145,o),
(463,188,o),
(463,223,cs),
(463,242,o),
(467,259,o),
(472,265,cs)
);
},
{
closed = 1;
nodes = (
(502,116,o),
(485,72,o),
(485,49,cs),
(485,39,o),
(488,33,o),
(495,33,cs),
(503,33,o),
(515,41,o),
(533,61,cs),
(633,170,o),
(668,249,o),
(668,301,cs),
(668,358,o),
(626,384,o),
(580,384,cs),
(552,384,o),
(523,375,o),
(500,358,cs),
(458,329,o),
(407,255,o),
(407,233,cs),
(407,228,o),
(409,226,o),
(413,226,cs),
(417,226,o),
(425,230,o),
(436,238,cs),
(455,251,o),
(470,257,o),
(483,257,cs),
(527,257,o),
(536,190,o),
(536,162,cs),
(536,156,o),
(535,152,o),
(535,151,cs)
);
}
);
width = 718;
}
);
unicode = 37;
},
{
glyphname = perthousand;
lastChange = "2024-02-02 07:26:09 +0000";
layers = (
{
layerId = m01;
shapes = (
{
closed = 1;
nodes = (
(589,677,o),
(597,695,o),
(597,707,cs),
(597,718,o),
(589,724,o),
(578,724,cs),
(557,724,o),
(522,705,o),
(491,664,cs),
(447,607,o),
(116,48,o),
(112,42,cs),
(102,25,o),
(98,12,o),
(98,4,cs),
(98,-7,o),
(104,-12,o),
(115,-12,cs),
(140,-12,o),
(187,18,o),
(216,66,cs),
(229,88,o),
(556,634,o),
(571,654,cs)
);
},
{
closed = 1;
nodes = (
(210,646,o),
(220,667,o),
(220,679,cs),
(220,686,o),
(216,690,o),
(209,690,cs),
(194,690,o),
(163,669,o),
(130,628,cs),
(72,555,o),
(50,494,o),
(50,448,cs),
(50,383,o),
(93,347,o),
(143,347,cs),
(162,347,o),
(183,353,o),
(203,364,cs),
(240,385,o),
(290,473,o),
(290,504,cs),
(290,511,o),
(288,515,o),
(282,515,cs),
(279,515,o),
(274,513,o),
(269,510,cs),
(252,500,o),
(238,496,o),
(227,496,cs),
(189,496,o),
(177,539,o),
(177,574,cs),
(177,593,o),
(181,610,o),
(186,616,cs)
);
},
{
closed = 1;
nodes = (
(216,467,o),
(199,423,o),
(199,400,cs),
(199,390,o),
(202,384,o),
(209,384,cs),
(217,384,o),
(229,392,o),
(247,412,cs),
(347,521,o),
(382,600,o),
(382,652,cs),
(382,709,o),
(340,735,o),
(294,735,cs),
(266,735,o),
(237,726,o),
(214,709,cs),
(172,680,o),
(121,606,o),
(121,584,cs),
(121,579,o),
(123,577,o),
(127,577,cs),
(131,577,o),
(139,581,o),
(150,589,cs),
(169,602,o),
(184,608,o),
(197,608,cs),
(241,608,o),
(250,541,o),
(250,513,cs),
(250,507,o),
(249,503,o),
(249,502,cs)
);
},
{
closed = 1;
nodes = (
(496,295,o),
(506,316,o),
(506,328,cs),
(506,335,o),
(502,339,o),
(495,339,cs),
(480,339,o),
(449,318,o),
(416,277,cs),
(358,204,o),
(336,143,o),
(336,97,cs),
(336,32,o),
(379,-4,o),
(429,-4,cs),
(448,-4,o),
(469,2,o),
(489,13,cs),
(526,34,o),
(576,122,o),
(576,153,cs),
(576,160,o),
(574,164,o),
(568,164,cs),
(565,164,o),
(560,162,o),
(555,159,cs),
(538,149,o),
(524,145,o),
(513,145,cs),
(475,145,o),
(463,188,o),
(463,223,cs),
(463,242,o),
(467,259,o),
(472,265,cs)
);
},
{
closed = 1;
nodes = (
(502,116,o),
(485,72,o),
(485,49,cs),
(485,39,o),
(488,33,o),
(495,33,cs),
(503,33,o),
(515,41,o),
(533,61,cs),
(633,170,o),
(668,249,o),
(668,301,cs),
(668,358,o),
(626,384,o),
(580,384,cs),
(552,384,o),
(523,375,o),
(500,358,cs),
(458,329,o),
(407,255,o),
(407,233,cs),
(407,228,o),
(409,226,o),
(413,226,cs),
(417,226,o),
(425,230,o),
(436,238,cs),
(455,251,o),
(470,257,o),
(483,257,cs),
(527,257,o),
(536,190,o),
(536,162,cs),
(536,156,o),
(535,152,o),
(535,151,cs)
);
},
{
closed = 1;
nodes = (
(825,295,o),
(835,316,o),
(835,328,cs),
(835,335,o),
(831,339,o),
(824,339,cs),
(809,339,o),
(778,318,o),
(745,277,cs),
(687,204,o),
(665,143,o),
(665,97,cs),
(665,32,o),
(708,-4,o),
(758,-4,cs),
(777,-4,o),
(798,2,o),
(818,13,cs),
(855,34,o),
(905,122,o),
(905,153,cs),
(905,160,o),
(903,164,o),
(897,164,cs),
(894,164,o),
(889,162,o),
(884,159,cs),
(867,149,o),
(853,145,o),
(842,145,cs),
(804,145,o),
(792,188,o),
(792,223,cs),
(792,242,o),
(796,259,o),
(801,265,cs)
);
},
{
closed = 1;
nodes = (
(831,116,o),
(814,72,o),
(814,49,cs),
(814,39,o),
(817,33,o),
(824,33,cs),
(832,33,o),
(844,41,o),
(862,61,cs),
(962,170,o),
(997,249,o),
(997,301,cs),
(997,358,o),
(955,384,o),
(909,384,cs),
(881,384,o),
(852,375,o),
(829,358,cs),
(787,329,o),
(736,255,o),
(736,233,cs),
(736,228,o),
(738,226,o),
(742,226,cs),
(746,226,o),
(754,230,o),
(765,238,cs),
(784,251,o),
(799,257,o),
(812,257,cs),
(856,257,o),
(865,190,o),
(865,162,cs),
(865,156,o),
(864,152,o),
(864,151,cs)
);
}
);
width = 1047;
}
);
unicode = 8240;
},
{
glyphname = dieresiscomb;
lastChange = "2024-02-02 07:26:09 +0000";
layers = (
{
anchors = (
{
name = _top;
pos = (212,508);
},
{
name = top;
pos = (233,797);
}
);
layerId = m01;
shapes = (
{
closed = 1;
nodes = (
(363,726,o),
(399,832,o),
(317,764,cs),
(234,696,o),
(196,567,o),
(288,603,cs),
(330,619,o),
(417,774,o),
(364,753,cs),
(363,753,o),
(288,665,o),
(289,666,cs)
);
},
{
closed = 1;
nodes = (
(294,704,o),
(244,571,o),
(311,621,cs),
(430,710,o),
(442,833,o),
(353,788,cs),
(306,764,o),
(208,624,o),
(267,654,cs),
(268,654,o),
(350,746,o),
(349,745,cs)
);
},
{
closed = 1;
nodes = (
(208,726,o),
(244,832,o),
(162,764,cs),
(79,696,o),
(41,567,o),
(133,603,cs),
(175,619,o),
(262,774,o),
(209,753,cs),
(208,753,o),
(133,665,o),
(134,666,cs)
);
},
{
closed = 1;
nodes = (
(139,704,o),
(89,571,o),
(156,621,cs),
(275,710,o),
(287,833,o),
(198,788,cs),
(151,764,o),
(53,624,o),
(112,654,cs),
(113,654,o),
(195,746,o),
(194,745,cs)
);
}
);
width = 371;
}
);
unicode = 776;
},
{
glyphname = dotaccentcomb;
lastChange = "2024-02-02 07:26:09 +0000";
layers = (
{
layerId = m01;
shapes = (
{
closed = 1;
nodes = (
(128,865,o),
(164,971,o),
(82,903,cs),
(-1,835,o),
(-39,706,o),
(53,742,cs),
(95,758,o),
(182,913,o),
(129,892,cs),
(128,892,o),
(53,804,o),
(54,805,cs)
);
},
{
closed = 1;
nodes = (
(59,843,o),
(9,710,o),
(76,760,cs),
(195,849,o),
(207,972,o),
(118,927,cs),
(71,903,o),
(-27,763,o),
(32,793,cs),
(33,793,o),
(115,885,o),
(114,884,cs)
);
}
);
width = 177;
}
);
unicode = 775;
},
{
glyphname = gravecomb;
lastChange = "2024-02-02 07:26:09 +0000";
layers = (
{
anchors = (
{
name = _top;
pos = (98,500);
},
{
name = top;
pos = (77,793);
}
);
layerId = m01;
shapes = (
{
closed = 1;
nodes = (
(83,534,o),
(146,651,o),
(130,674,cs),
(130,675,o),
(88,773,o),
(86,778,cs),
(54,838,o),
(-21,700,o),
(6,648,cs),
(6,648,o),
(30,611,o),
(66,559,cs)
);
}
);
width = 300;
}
);
unicode = 768;
},
{
glyphname = acutecomb;
lastChange = "2024-02-02 07:26:09 +0000";
layers = (
{
anchors = (
{
name = _top;
pos = (81,531);
},
{
name = top;
pos = (92,800);
}
);
guides = (
{
pos = (-2166,770);
}
);
layerId = m01;
shapes = (
{
closed = 1;
nodes = (
(-6,580,o),
(133,644,o),
(138,670,cs),
(139,671,o),
(180,770,o),
(182,775,cs),
(203,839,o),
(39,764,o),
(20,709,cs),
(20,709,o),
(11,667,o),
(0,608,cs)
);
}
);
width = 184;
}
);
unicode = 769;
},
{
glyphname = circumflexcomb;
lastChange = "2024-02-02 07:26:09 +0000";
layers = (
{
anchors = (
{
name = _top;
pos = (136,500);
},
{
name = top;
pos = (188,819);
}
);
layerId = m01;
shapes = (
{
closed = 1;
nodes = (
(187,561,o),
(306,635,o),
(288,666,cs),
(255,726,o),
(239,748,o),
(205,808,cs),
(188,839,o),
(69,765,o),
(87,734,cs),
(120,679,o),
(136,652,o),
(170,592,cs)
);
},
{
closed = 1;
nodes = (
(228,844,o),
(115,806,o),
(85,754,cs),
(51,693,o),
(41,670,o),
(6,608,cs),
(-26,551,o),
(90,592,o),
(118,643,cs),
(152,703,o),
(162,726,o),
(197,788,cs)
);
}
);
width = 300;
}
);
unicode = 770;
},
{
glyphname = caroncomb;
lastChange = "2024-02-02 07:26:09 +0000";
layers = (
{
layerId = m01;
shapes = (
{
closed = 1;
nodes = (
(103,810,o),
(-15,736,o),
(2,705,cs),
(35,645,o),
(68,585,o),
(102,525,cs),
(119,494,o),
(238,568,o),
(220,599,cs),
(187,659,o),
(154,719,o),
(120,779,cs)
);
},
{
closed = 1;
nodes = (
(78,488,o),
(194,529,o),
(222,579,cs),
(256,640,o),
(291,701,o),
(326,763,cs),
(357,819,o),
(244,781,o),
(214,729,cs),
(180,668,o),
(145,607,o),
(110,545,cs)
);
}
);
width = 300;
}
);
unicode = 780;
},
{
glyphname = brevecomb;
lastChange = "2024-02-02 07:26:09 +0000";
layers = (
{
anchors = (
{
name = _top;
pos = (145,500);
},
{
name = top;
pos = (211,653);
}
);
layerId = m01;
shapes = (
{
closed = 1;
nodes = (
(99,699,o),
(95,703,o),
(89,703,cs),
(62,703,o),
(-3,635,o),
(0,600,cs),
(7,530,o),
(44,502,o),
(89,502,cs),
(146,502,o),
(218,547,o),
(262,603,cs),
(282,630,o),
(291,657,o),
(291,676,cs),
(291,689,o),
(286,698,o),
(277,698,cs),
(268,698,o),
(255,690,o),
(238,669,cs),
(227,654,o),
(186,620,o),
(152,620,cs),
(127,620,o),
(105,637,o),
(100,692,cs)
);
}
);
width = 300;
}
);
unicode = 774;
},
{
glyphname = ringcomb;
lastChange = "2024-02-02 07:26:09 +0000";
layers = (
{
anchors = (
{
name = _top;
pos = (104,478);
},
{
name = top;
pos = (115,800);
}
);
layerId = m01;
shapes = (
{
closed = 1;
nodes = (
(144,769,o),
(96,782,o),
(49,722,cs),
(-55,590,o),
(27,509,o),
(102,552,cs),
(144,576,o),
(184,679,o),
(135,651,cs),
(85,622,o),
(86,696,o),
(93,706,cs)
);
},
{
closed = 1;
nodes = (
(74,594,o),
(79,526,o),
(131,582,cs),
(299,765,o),
(174,821,o),
(101,769,cs),
(53,735,o),
(17,651,o),
(72,689,cs),
(114,720,o),
(124,648,o),
(121,646,cs)
);
}
);
width = 300;
}
);
unicode = 778;
},
{
glyphname = hookabovecomb;
lastChange = "2024-02-02 07:26:09 +0000";
layers = (
{
layerId = m01;
shapes = (
{
closed = 1;
nodes = (
(89,580,o),
(86,573,o),
(86,567,cs),
(86,559,o),
(94,555,o),
(105,555,cs),
(125,555,o),
(157,567,o),
(177,591,cs),
(198,615,o),
(208,643,o),
(208,671,cs),
(208,737,o),
(155,799,o),
(71,795,cs),
(42,793,o),
(0,722,o),
(0,688,cs),
(0,677,o),
(5,670,o),
(16,670,cs),
(86,674,o),
(105,641,o),
(105,615,cs),
(105,605,o),
(102,595,o),
(98,590,cs)
);
}
);
width = 300;
}
);
unicode = 777;
},
{
glyphname = dblgravecomb;
lastChange = "2024-02-02 07:26:09 +0000";
layers = (
{
anchors = (
{
name = _top;
pos = (146,500);
},
{
name = top;
pos = (146,777);
}
);
layerId = m01;
shapes = (
{
closed = 1;
nodes = (
(90,519,o),
(147,639,o),
(130,661,cs),
(130,662,o),
(83,758,o),
(81,763,cs),
(45,821,o),
(-22,679,o),
(7,629,cs),
(7,629,o),
(33,593,o),
(72,543,cs)
);
},
{
closed = 1;
nodes = (
(248,519,o),
(305,639,o),
(288,661,cs),
(288,663,o),
(245,752,o),
(238,763,cs),
(203,821,o),
(136,679,o),
(165,629,cs),
(165,629,o),
(191,593,o),
(230,543,cs)
);
}
);
width = 300;
}
);
unicode = 783;
},
{
glyphname = leftangleabovecomb;
lastChange = "2024-02-02 07:26:09 +0000";
layers = (
{
layerId = m01;
shapes = (
{
closed = 1;
nodes = (
(23,714,o),
(-24,572,o),
(15,572,cs),
(112,572,o),
(208,573,o),
(305,573,cs),
(340,573,o),
(388,715,o),
(349,715,cs),
(252,715,o),
(156,714,o),
(59,714,cs)
);
},
{
closed = 1;
nodes = (
(383,736,o),
(256,646,o),
(236,585,cs),
(233,576,o),
(221,440,o),
(221,440,cs),
(216,386,o),
(345,493,o),
(349,542,cs),
(350,550,o),
(360,669,o),
(360,669,cs)
);
}
);
width = 300;
}
);
unicode = 794;
},
{
glyphname = dotbelowcomb;
lastChange = "2024-02-02 07:26:09 +0000";
layers = (
{
layerId = m01;
shapes = (
{
closed = 1;
nodes = (
(128,-104,o),
(164,2,o),
(82,-66,cs),
(-1,-134,o),
(-39,-263,o),
(53,-227,cs),
(95,-211,o),
(182,-56,o),
(129,-77,cs),
(128,-77,o),
(53,-165,o),
(54,-164,cs)
);
},
{
closed = 1;
nodes = (
(59,-126,o),
(9,-259,o),
(76,-209,cs),
(195,-120,o),
(207,3,o),
(118,-42,cs),
(71,-66,o),
(-27,-206,o),
(32,-176,cs),
(33,-176,o),
(115,-84,o),
(114,-85,cs)
);
}
);
width = 176;
}
);
unicode = 803;
},
{
glyphname = dieresisbelowcomb;
lastChange = "2024-02-02 07:26:09 +0000";
layers = (
{
layerId = m01;
shapes = (
{
closed = 1;
nodes = (
(303,-104,o),
(339,2,o),
(257,-66,cs),
(174,-134,o),
(136,-263,o),
(228,-227,cs),
(270,-211,o),
(357,-56,o),
(304,-77,cs),
(303,-77,o),
(228,-165,o),
(229,-164,cs)
);
},
{
closed = 1;
nodes = (
(234,-126,o),
(184,-259,o),
(251,-209,cs),
(370,-120,o),
(382,3,o),
(293,-42,cs),
(246,-66,o),
(148,-206,o),
(207,-176,cs),
(208,-176,o),
(290,-84,o),
(289,-85,cs)
);
},
{
closed = 1;
nodes = (
(128,-104,o),
(164,2,o),
(82,-66,cs),
(-1,-134,o),
(-39,-263,o),
(53,-227,cs),
(95,-211,o),
(182,-56,o),
(129,-77,cs),
(128,-77,o),
(53,-165,o),
(54,-164,cs)
);
},
{
closed = 1;
nodes = (
(59,-126,o),
(9,-259,o),
(76,-209,cs),
(195,-120,o),
(207,3,o),
(118,-42,cs),
(71,-66,o),
(-27,-206,o),
(32,-176,cs),
(33,-176,o),
(115,-84,o),
(114,-85,cs)
);
}
);
width = 351;
}
);
unicode = 804;
},
{
glyphname = cedillacomb;
lastChange = "2024-02-02 07:26:09 +0000";
layers = (
{
anchors = (
{
name = _bottom;
pos = (147,31);
},
{
name = bottom;
pos = (140,-253);
}
);
layerId = m01;
shapes = (
{
closed = 1;
nodes = (
(204,61,o),
(187,139,o),
(140,66,cs),
(110,20,o),
(74,-36,o),
(50,-74,cs),
(20,-120,o),
(47,-132,o),
(89,-100,cs),
(103,-89,o),
(224,-79,o),
(188,-165,cs),
(164,-221,o),
(248,-142,o),
(271,-89,cs),
(314,15,o),
(205,54,o),
(82,-40,c),
(95,-49,o),
(108,-58,o),
(120,-66,c),
(139,-37,o),
(147,-27,o),
(160,-7,cs)
);
},
{
closed = 1;
nodes = (
(271,-90,o),
(282,8,o),
(246,-58,cs),
(217,-109,o),
(182,-171,o),
(100,-132,cs),
(83,-124,o),
(-17,-222,o),
(3,-232,cs),
(92,-275,o),
(180,-256,o),
(239,-148,cs)
);
}
);
width = 300;
}
);
unicode = 807;
},
{
glyphname = caronbelowcomb;
lastChange = "2024-02-02 07:26:09 +0000";
layers = (
{
layerId = m01;
shapes = (
{
closed = 1;
nodes = (
(103,75,o),
(-15,1,o),
(2,-30,cs),
(35,-90,o),
(69,-150,o),
(102,-210,cs),
(119,-240,o),
(238,-167,o),
(220,-135,cs),
(187,-75,o),
(154,-15,o),
(120,45,cs)
);
},
{
closed = 1;
nodes = (
(78,-246,o),
(194,-205,o),
(222,-156,cs),
(257,-94,o),
(291,-33,o),
(326,28,cs),
(357,84,o),
(244,46,o),
(214,-5,cs),
(180,-67,o),
(145,-128,o),
(110,-189,cs)
);
}
);
width = 300;
}
);
unicode = 812;
},
